<svg xmlns="http://www.w3.org/2000/svg" viewBox="0 0 1000 1000" style="background-color: rgb(0, 0, 0); width: 1000px; height: 1000px;"><svg viewBox="0 0 1000 1000" class="undefined" style="width: 1000px; height: 1000px;">
        <defs>
            <linearGradient id="backgroundGradient" gradientTransform="rotate(90)">
                <stop offset="0%" stop-color="rgba(136, 253, 0, 1)"/>
                <stop offset="100%" stop-color="rgba(9, 229, 95, 1)"/>

            </linearGradient>
        </defs>
    <polygon points="838.5,959.7634408602152 838.5,593.5483870967741 879.5,607.2150537634408 879.5,973.4301075268818" fill="url('#backgroundGradient')"/><polygon points="879.5,607.2150537634408 838.5,593.5483870967741 879.5,593.5483870967741 920.5,607.2150537634408" fill="rgba(171, 148, 47, 1)"/><polygon points="879.5,987.0967741935484 879.5,607.2150537634408 920.5,607.2150537634408 920.5,987.0967741935484" fill="#000000"/><polygon points="812.6935483870968,959.7634408602152 812.6935483870968,309.67741935483866 853.6935483870968,323.34408602150535 853.6935483870968,973.4301075268818" fill="url('#backgroundGradient')"/><polygon points="853.6935483870968,323.34408602150535 812.6935483870968,309.67741935483866 853.6935483870968,309.67741935483866 894.6935483870968,323.34408602150535" fill="rgba(142, 235, 7, 1)"/><polygon points="853.6935483870968,987.0967741935484 853.6935483870968,323.34408602150535 894.6935483870968,323.34408602150535 894.6935483870968,987.0967741935484" fill="#000000"/><polygon points="786.8870967741937,959.7634408602152 786.8870967741937,696.7741935483871 827.8870967741937,710.4408602150537 827.8870967741937,973.4301075268818" fill="url('#backgroundGradient')"/><polygon points="827.8870967741937,710.4408602150537 786.8870967741937,696.7741935483871 827.8870967741937,696.7741935483871 868.8870967741937,710.4408602150537" fill="rgba(183, 117, 62, 1)"/><polygon points="827.8870967741937,987.0967741935484 827.8870967741937,710.4408602150537 868.8870967741937,710.4408602150537 868.8870967741937,987.0967741935484" fill="#000000"/><polygon points="761.0806451612905,959.7634408602152 761.0806451612905,645.1612903225806 802.0806451612905,658.8279569892472 802.0806451612905,973.4301075268818" fill="url('#backgroundGradient')"/><polygon points="802.0806451612905,658.8279569892472 761.0806451612905,645.1612903225806 802.0806451612905,645.1612903225806 843.0806451612905,658.8279569892472" fill="rgba(179, 126, 56, 1)"/><polygon points="802.0806451612905,987.0967741935484 802.0806451612905,658.8279569892472 843.0806451612905,658.8279569892472 843.0806451612905,987.0967741935484" fill="#000000"/><polygon points="735.2741935483873,959.7634408602152 735.2741935483873,309.67741935483866 776.2741935483873,323.34408602150535 776.2741935483873,973.4301075268818" fill="url('#backgroundGradient')"/><polygon points="776.2741935483873,323.34408602150535 735.2741935483873,309.67741935483866 776.2741935483873,309.67741935483866 817.2741935483873,323.34408602150535" fill="rgba(142, 235, 7, 1)"/><polygon points="776.2741935483873,987.0967741935484 776.2741935483873,323.34408602150535 817.2741935483873,323.34408602150535 817.2741935483873,987.0967741935484" fill="#000000"/><polygon points="709.4677419354841,959.7634408602152 709.4677419354841,490.3225806451613 750.4677419354841,503.98924731182797 750.4677419354841,973.4301075268818" fill="url('#backgroundGradient')"/><polygon points="750.4677419354841,503.98924731182797 709.4677419354841,490.3225806451613 750.4677419354841,490.3225806451613 791.4677419354841,503.98924731182797" fill="rgba(161, 180, 32, 1)"/><polygon points="750.4677419354841,987.0967741935484 750.4677419354841,503.98924731182797 791.4677419354841,503.98924731182797 791.4677419354841,987.0967741935484" fill="#000000"/><polygon points="683.661290322581,959.7634408602152 683.661290322581,412.9032258064516 724.661290322581,426.5698924731183 724.661290322581,973.4301075268818" fill="url('#backgroundGradient')"/><polygon points="724.661290322581,426.5698924731183 683.661290322581,412.9032258064516 724.661290322581,412.9032258064516 765.661290322581,426.5698924731183" fill="rgba(155, 203, 22, 1)"/><polygon points="724.661290322581,987.0967741935484 724.661290322581,426.5698924731183 765.661290322581,426.5698924731183 765.661290322581,987.0967741935484" fill="#000000"/><polygon points="657.8548387096778,959.7634408602152 657.8548387096778,619.3548387096773 698.8548387096778,633.021505376344 698.8548387096778,973.4301075268818" fill="url('#backgroundGradient')"/><polygon points="698.8548387096778,633.021505376344 657.8548387096778,619.3548387096773 698.8548387096778,619.3548387096773 739.8548387096778,633.021505376344" fill="rgba(175, 137, 53, 1)"/><polygon points="698.8548387096778,987.0967741935484 698.8548387096778,633.021505376344 739.8548387096778,633.021505376344 739.8548387096778,987.0967741935484" fill="#000000"/><polygon points="632.0483870967746,959.7634408602152 632.0483870967746,464.51612903225805 673.0483870967746,478.18279569892474 673.0483870967746,973.4301075268818" fill="url('#backgroundGradient')"/><polygon points="673.0483870967746,478.18279569892474 632.0483870967746,464.51612903225805 673.0483870967746,464.51612903225805 714.0483870967746,478.18279569892474" fill="rgba(156, 191, 26, 1)"/><polygon points="673.0483870967746,987.0967741935484 673.0483870967746,478.18279569892474 714.0483870967746,478.18279569892474 714.0483870967746,987.0967741935484" fill="#000000"/><polygon points="606.2419354838714,959.7634408602152 606.2419354838714,387.09677419354836 647.2419354838714,400.76344086021504 647.2419354838714,973.4301075268818" fill="url('#backgroundGradient')"/><polygon points="647.2419354838714,400.76344086021504 606.2419354838714,387.09677419354836 647.2419354838714,387.09677419354836 688.2419354838714,400.76344086021504" fill="rgba(149, 213, 17, 1)"/><polygon points="647.2419354838714,987.0967741935484 647.2419354838714,400.76344086021504 688.2419354838714,400.76344086021504 688.2419354838714,987.0967741935484" fill="#000000"/><polygon points="580.4354838709683,959.7634408602152 580.4354838709683,722.5806451612902 621.4354838709683,736.2473118279569 621.4354838709683,973.4301075268818" fill="url('#backgroundGradient')"/><polygon points="621.4354838709683,736.2473118279569 580.4354838709683,722.5806451612902 621.4354838709683,722.5806451612902 662.4354838709683,736.2473118279569" fill="rgba(184, 104, 66, 1)"/><polygon points="621.4354838709683,987.0967741935484 621.4354838709683,736.2473118279569 662.4354838709683,736.2473118279569 662.4354838709683,987.0967741935484" fill="#000000"/><polygon points="554.6290322580651,959.7634408602152 554.6290322580651,361.2903225806451 595.6290322580651,374.9569892473118 595.6290322580651,973.4301075268818" fill="url('#backgroundGradient')"/><polygon points="595.6290322580651,374.9569892473118 554.6290322580651,361.2903225806451 595.6290322580651,361.2903225806451 636.6290322580651,374.9569892473118" fill="rgba(147, 224, 13, 1)"/><polygon points="595.6290322580651,987.0967741935484 595.6290322580651,374.9569892473118 636.6290322580651,374.9569892473118 636.6290322580651,987.0967741935484" fill="#000000"/><polygon points="528.8225806451619,959.7634408602152 528.8225806451619,619.3548387096773 569.8225806451619,633.021505376344 569.8225806451619,973.4301075268818" fill="url('#backgroundGradient')"/><polygon points="569.8225806451619,633.021505376344 528.8225806451619,619.3548387096773 569.8225806451619,619.3548387096773 610.8225806451619,633.021505376344" fill="rgba(175, 137, 53, 1)"/><polygon points="569.8225806451619,987.0967741935484 569.8225806451619,633.021505376344 610.8225806451619,633.021505376344 610.8225806451619,987.0967741935484" fill="#000000"/><polygon points="503.01612903225873,959.7634408602152 503.01612903225873,541.9354838709677 544.0161290322587,555.6021505376343 544.0161290322587,973.4301075268818" fill="url('#backgroundGradient')"/><polygon points="544.0161290322587,555.6021505376343 503.01612903225873,541.9354838709677 544.0161290322587,541.9354838709677 585.0161290322587,555.6021505376343" fill="rgba(168, 159, 43, 1)"/><polygon points="544.0161290322587,987.0967741935484 544.0161290322587,555.6021505376343 585.0161290322587,555.6021505376343 585.0161290322587,987.0967741935484" fill="#000000"/><polygon points="477.2096774193555,959.7634408602152 477.2096774193555,361.2903225806451 518.2096774193556,374.9569892473118 518.2096774193556,973.4301075268818" fill="url('#backgroundGradient')"/><polygon points="518.2096774193556,374.9569892473118 477.20967741935556,361.2903225806451 518.2096774193556,361.2903225806451 559.2096774193556,374.9569892473118" fill="rgba(147, 224, 13, 1)"/><polygon points="518.2096774193556,987.0967741935484 518.2096774193556,374.9569892473118 559.2096774193556,374.9569892473118 559.2096774193556,987.0967741935484" fill="#000000"/><polygon points="451.40322580645227,959.7634408602152 451.40322580645227,154.83870967741933 492.40322580645227,168.505376344086 492.40322580645227,973.4301075268818" fill="url('#backgroundGradient')"/><polygon points="492.40322580645227,168.505376344086 451.40322580645227,154.83870967741933 492.40322580645227,154.83870967741933 533.4032258064523,168.505376344086" fill="rgba(136, 253, 0, 1)"/><polygon points="492.40322580645227,987.0967741935484 492.40322580645227,168.505376344086 533.4032258064523,168.505376344086 533.4032258064523,987.0967741935484" fill="#000000"/><polygon points="425.59677419354904,959.7634408602152 425.59677419354904,516.1290322580645 466.59677419354904,529.7956989247311 466.59677419354904,973.4301075268818" fill="url('#backgroundGradient')"/><polygon points="466.59677419354904,529.7956989247311 425.59677419354904,516.1290322580645 466.59677419354904,516.1290322580645 507.59677419354904,529.7956989247311" fill="rgba(164, 168, 36, 1)"/><polygon points="466.59677419354904,987.0967741935484 466.59677419354904,529.7956989247311 507.59677419354904,529.7956989247311 507.59677419354904,987.0967741935484" fill="#000000"/><polygon points="399.7903225806458,959.7634408602152 399.7903225806458,283.8709677419355 440.7903225806458,297.5376344086022 440.7903225806458,973.4301075268818" fill="url('#backgroundGradient')"/><polygon points="440.7903225806458,297.5376344086022 399.7903225806458,283.8709677419355 440.7903225806458,283.8709677419355 481.7903225806458,297.5376344086022" fill="rgba(138, 247, 2, 1)"/><polygon points="440.7903225806458,987.0967741935484 440.7903225806458,297.5376344086022 481.7903225806458,297.5376344086022 481.7903225806458,987.0967741935484" fill="#000000"/><polygon points="373.9838709677426,959.7634408602152 373.9838709677426,283.8709677419355 414.9838709677426,297.5376344086022 414.9838709677426,973.4301075268818" fill="url('#backgroundGradient')"/><polygon points="414.9838709677426,297.5376344086022 373.9838709677426,283.8709677419355 414.9838709677426,283.8709677419355 455.9838709677426,297.5376344086022" fill="rgba(138, 247, 2, 1)"/><polygon points="414.9838709677426,987.0967741935484 414.9838709677426,297.5376344086022 455.9838709677426,297.5376344086022 455.9838709677426,987.0967741935484" fill="#000000"/><polygon points="348.17741935483934,959.7634408602152 348.17741935483934,335.4838709677419 389.17741935483934,349.1505376344086 389.17741935483934,973.4301075268818" fill="url('#backgroundGradient')"/><polygon points="389.17741935483934,349.1505376344086 348.17741935483934,335.4838709677419 389.17741935483934,335.4838709677419 430.17741935483934,349.1505376344086" fill="rgba(147, 224, 13, 1)"/><polygon points="389.17741935483934,987.0967741935484 389.17741935483934,349.1505376344086 430.17741935483934,349.1505376344086 430.17741935483934,987.0967741935484" fill="#000000"/><polygon points="322.3709677419361,959.7634408602152 322.3709677419361,696.7741935483871 363.3709677419361,710.4408602150537 363.3709677419361,973.4301075268818" fill="url('#backgroundGradient')"/><polygon points="363.3709677419361,710.4408602150537 322.3709677419361,696.7741935483871 363.3709677419361,696.7741935483871 404.3709677419361,710.4408602150537" fill="rgba(183, 117, 62, 1)"/><polygon points="363.3709677419361,987.0967741935484 363.3709677419361,710.4408602150537 404.3709677419361,710.4408602150537 404.3709677419361,987.0967741935484" fill="#000000"/><polygon points="296.5645161290329,959.7634408602152 296.5645161290329,387.09677419354836 337.5645161290329,400.76344086021504 337.5645161290329,973.4301075268818" fill="url('#backgroundGradient')"/><polygon points="337.5645161290329,400.76344086021504 296.5645161290329,387.09677419354836 337.5645161290329,387.09677419354836 378.5645161290329,400.76344086021504" fill="rgba(149, 213, 17, 1)"/><polygon points="337.5645161290329,987.0967741935484 337.5645161290329,400.76344086021504 378.5645161290329,400.76344086021504 378.5645161290329,987.0967741935484" fill="#000000"/><polygon points="270.75806451612965,959.7634408602152 270.75806451612965,567.741935483871 311.75806451612965,581.4086021505376 311.75806451612965,973.4301075268818" fill="url('#backgroundGradient')"/><polygon points="311.75806451612965,581.4086021505376 270.75806451612965,567.741935483871 311.75806451612965,567.741935483871 352.75806451612965,581.4086021505376" fill="rgba(171, 148, 47, 1)"/><polygon points="311.75806451612965,987.0967741935484 311.75806451612965,581.4086021505376 352.75806451612965,581.4086021505376 352.75806451612965,987.0967741935484" fill="#000000"/><polygon points="244.95161290322642,959.7634408602152 244.95161290322642,283.8709677419355 285.9516129032264,297.5376344086022 285.9516129032264,973.4301075268818" fill="url('#backgroundGradient')"/><polygon points="285.9516129032264,297.5376344086022 244.95161290322642,283.8709677419355 285.9516129032264,283.8709677419355 326.9516129032264,297.5376344086022" fill="rgba(138, 247, 2, 1)"/><polygon points="285.9516129032264,987.0967741935484 285.9516129032264,297.5376344086022 326.9516129032264,297.5376344086022 326.9516129032264,987.0967741935484" fill="#000000"/><polygon points="219.1451612903232,959.7634408602152 219.1451612903232,412.9032258064516 260.1451612903232,426.5698924731183 260.1451612903232,973.4301075268818" fill="url('#backgroundGradient')"/><polygon points="260.1451612903232,426.5698924731183 219.1451612903232,412.9032258064516 260.1451612903232,412.9032258064516 301.1451612903232,426.5698924731183" fill="rgba(155, 203, 22, 1)"/><polygon points="260.1451612903232,987.0967741935484 260.1451612903232,426.5698924731183 301.1451612903232,426.5698924731183 301.1451612903232,987.0967741935484" fill="#000000"/><polygon points="193.33870967741996,959.7634408602152 193.33870967741996,619.3548387096773 234.33870967741996,633.021505376344 234.33870967741996,973.4301075268818" fill="url('#backgroundGradient')"/><polygon points="234.33870967741996,633.021505376344 193.33870967741996,619.3548387096773 234.33870967741996,619.3548387096773 275.33870967741996,633.021505376344" fill="rgba(175, 137, 53, 1)"/><polygon points="234.33870967741996,987.0967741935484 234.33870967741996,633.021505376344 275.33870967741996,633.021505376344 275.33870967741996,987.0967741935484" fill="#000000"/><polygon points="167.53225806451672,959.7634408602152 167.53225806451672,464.51612903225805 208.53225806451672,478.18279569892474 208.53225806451672,973.4301075268818" fill="url('#backgroundGradient')"/><polygon points="208.53225806451672,478.18279569892474 167.53225806451672,464.51612903225805 208.53225806451672,464.51612903225805 249.53225806451672,478.18279569892474" fill="rgba(156, 191, 26, 1)"/><polygon points="208.53225806451672,987.0967741935484 208.53225806451672,478.18279569892474 249.53225806451672,478.18279569892474 249.53225806451672,987.0967741935484" fill="#000000"/><polygon points="141.7258064516135,959.7634408602152 141.7258064516135,154.83870967741933 182.7258064516135,168.505376344086 182.7258064516135,973.4301075268818" fill="url('#backgroundGradient')"/><polygon points="182.7258064516135,168.505376344086 141.7258064516135,154.83870967741933 182.7258064516135,154.83870967741933 223.7258064516135,168.505376344086" fill="rgba(136, 253, 0, 1)"/><polygon points="182.7258064516135,987.0967741935484 182.7258064516135,168.505376344086 223.7258064516135,168.505376344086 223.7258064516135,987.0967741935484" fill="#000000"/><polygon points="115.91935483871026,959.7634408602152 115.91935483871026,232.25806451612902 156.91935483871026,245.92473118279568 156.91935483871026,973.4301075268818" fill="url('#backgroundGradient')"/><polygon points="156.91935483871026,245.92473118279568 115.91935483871026,232.25806451612902 156.91935483871026,232.25806451612902 197.91935483871026,245.92473118279568" fill="rgba(136, 253, 0, 1)"/><polygon points="156.91935483871026,987.0967741935484 156.91935483871026,245.92473118279568 197.91935483871026,245.92473118279568 197.91935483871026,987.0967741935484" fill="#000000"/><polygon points="90.11290322580703,959.7634408602152 90.11290322580703,490.3225806451613 131.11290322580703,503.98924731182797 131.11290322580703,973.4301075268818" fill="url('#backgroundGradient')"/><polygon points="131.11290322580703,503.98924731182797 90.11290322580703,490.3225806451613 131.11290322580703,490.3225806451613 172.11290322580703,503.98924731182797" fill="rgba(161, 180, 32, 1)"/><polygon points="131.11290322580703,987.0967741935484 131.11290322580703,503.98924731182797 172.11290322580703,503.98924731182797 172.11290322580703,987.0967741935484" fill="#000000"/></svg></svg>