<svg xmlns="http://www.w3.org/2000/svg" viewBox="0 0 1000 1000" style="background-color: rgb(255, 255, 255); width: 1000px; height: 1000px;"><svg viewBox="0 0 1000 1000" class="undefined" style="width: 1000px; height: 1000px;">
        <defs>
            <linearGradient id="backgroundGradient" gradientTransform="rotate(90)">
                <stop offset="0%" stop-color="rgba(243, 198, 119, 1)"/>
                <stop offset="100%" stop-color="rgba(14, 10, 63, 1)"/>

            </linearGradient>
        </defs>
    <polygon points="837,970.7 837,475 879,483.4 879,979.1" fill="url('#backgroundGradient')"/><polygon points="879,483.4 837,475 879,475 921,483.4" fill="rgba(244, 166, 107, 1)"/><polygon points="879,987.5 879,483.4 921,483.4 921,987.5" fill="#ffffff"/><polygon points="812,970.7 812,175 854,183.4 854,979.1" fill="url('#backgroundGradient')"/><polygon points="854,183.4 812,175 854,175 896,183.4" fill="rgba(243, 198, 119, 1)"/><polygon points="854,987.5 854,183.4 896,183.4 896,987.5" fill="#ffffff"/><polygon points="787,970.7 787,550 829,558.4 829,979.1" fill="url('#backgroundGradient')"/><polygon points="829,558.4 787,550 829,550 871,558.4" fill="rgba(245, 156, 104, 1)"/><polygon points="829,987.5 829,558.4 871,558.4 871,987.5" fill="#ffffff"/><polygon points="762,970.7 762,175 804,183.4 804,979.1" fill="url('#backgroundGradient')"/><polygon points="804,183.4 762,175 804,175 846,183.4" fill="rgba(243, 198, 119, 1)"/><polygon points="804,987.5 804,183.4 846,183.4 846,987.5" fill="#ffffff"/><polygon points="737,970.7 737,475 779,483.4 779,979.1" fill="url('#backgroundGradient')"/><polygon points="779,483.4 737,475 779,475 821,483.4" fill="rgba(244, 166, 107, 1)"/><polygon points="779,987.5 779,483.4 821,483.4 821,987.5" fill="#ffffff"/><polygon points="712,970.7 712,300 754,308.4 754,979.1" fill="url('#backgroundGradient')"/><polygon points="754,308.4 712,300 754,300 796,308.4" fill="rgba(243, 195, 118, 1)"/><polygon points="754,987.5 754,308.4 796,308.4 796,987.5" fill="#ffffff"/><polygon points="687,970.7 687,550 729,558.4 729,979.1" fill="url('#backgroundGradient')"/><polygon points="729,558.4 687,550 729,550 771,558.4" fill="rgba(245, 156, 104, 1)"/><polygon points="729,987.5 729,558.4 771,558.4 771,987.5" fill="#ffffff"/><polygon points="662,970.7 662,400 704,408.4 704,979.1" fill="url('#backgroundGradient')"/><polygon points="704,408.4 662,400 704,400 746,408.4" fill="rgba(243, 180, 112, 1)"/><polygon points="704,987.5 704,408.4 746,408.4 746,987.5" fill="#ffffff"/><polygon points="637,970.7 637,450 679,458.4 679,979.1" fill="url('#backgroundGradient')"/><polygon points="679,458.4 637,450 679,450 721,458.4" fill="rgba(244, 171, 109, 1)"/><polygon points="679,987.5 679,458.4 721,458.4 721,987.5" fill="#ffffff"/><polygon points="612,970.7 612,425 654,433.4 654,979.1" fill="url('#backgroundGradient')"/><polygon points="654,433.4 612,425 654,425 696,433.4" fill="rgba(244, 176, 111, 1)"/><polygon points="654,987.5 654,433.4 696,433.4 696,987.5" fill="#ffffff"/><polygon points="587,970.7 587,275 629,283.4 629,979.1" fill="url('#backgroundGradient')"/><polygon points="629,283.4 587,275 629,275 671,283.4" fill="rgba(243, 195, 118, 1)"/><polygon points="629,987.5 629,283.4 671,283.4 671,987.5" fill="#ffffff"/><polygon points="562,970.7 562,500 604,508.4 604,979.1" fill="url('#backgroundGradient')"/><polygon points="604,508.4 562,500 604,500 646,508.4" fill="rgba(244, 166, 107, 1)"/><polygon points="604,987.5 604,508.4 646,508.4 646,987.5" fill="#ffffff"/><polygon points="537,970.7 537,375 579,383.4 579,979.1" fill="url('#backgroundGradient')"/><polygon points="579,383.4 537,375 579,375 621,383.4" fill="rgba(243, 180, 112, 1)"/><polygon points="579,987.5 579,383.4 621,383.4 621,987.5" fill="#ffffff"/><polygon points="512,970.7 512,400 554,408.4 554,979.1" fill="url('#backgroundGradient')"/><polygon points="554,408.4 512,400 554,400 596,408.4" fill="rgba(243, 180, 112, 1)"/><polygon points="554,987.5 554,408.4 596,408.4 596,987.5" fill="#ffffff"/><polygon points="487,970.7 487,175 529,183.4 529,979.1" fill="url('#backgroundGradient')"/><polygon points="529,183.4 487,175 529,175 571,183.4" fill="rgba(243, 198, 119, 1)"/><polygon points="529,987.5 529,183.4 571,183.4 571,987.5" fill="#ffffff"/><polygon points="462,970.7 462,575 504,583.4 504,979.1" fill="url('#backgroundGradient')"/><polygon points="504,583.4 462,575 504,575 546,583.4" fill="rgba(245, 151, 102, 1)"/><polygon points="504,987.5 504,583.4 546,583.4 546,987.5" fill="#ffffff"/><polygon points="437,970.7 437,500 479,508.4 479,979.1" fill="url('#backgroundGradient')"/><polygon points="479,508.4 437,500 479,500 521,508.4" fill="rgba(244, 166, 107, 1)"/><polygon points="479,987.5 479,508.4 521,508.4 521,987.5" fill="#ffffff"/><polygon points="412,970.7 412,325 454,333.4 454,979.1" fill="url('#backgroundGradient')"/><polygon points="454,333.4 412,325 454,325 496,333.4" fill="rgba(243, 190, 116, 1)"/><polygon points="454,987.5 454,333.4 496,333.4 496,987.5" fill="#ffffff"/><polygon points="387,970.7 387,600 429,608.4 429,979.1" fill="url('#backgroundGradient')"/><polygon points="429,608.4 387,600 429,600 471,608.4" fill="rgba(245, 151, 102, 1)"/><polygon points="429,987.5 429,608.4 471,608.4 471,987.5" fill="#ffffff"/><polygon points="362,970.7 362,575 404,583.4 404,979.1" fill="url('#backgroundGradient')"/><polygon points="404,583.4 362,575 404,575 446,583.4" fill="rgba(245, 151, 102, 1)"/><polygon points="404,987.5 404,583.4 446,583.4 446,987.5" fill="#ffffff"/><polygon points="337,970.7 337,200 379,208.4 379,979.1" fill="url('#backgroundGradient')"/><polygon points="379,208.4 337,200 379,200 421,208.4" fill="rgba(243, 198, 119, 1)"/><polygon points="379,987.5 379,208.4 421,208.4 421,987.5" fill="#ffffff"/><polygon points="312,970.7 312,500 354,508.4 354,979.1" fill="url('#backgroundGradient')"/><polygon points="354,508.4 312,500 354,500 396,508.4" fill="rgba(244, 166, 107, 1)"/><polygon points="354,987.5 354,508.4 396,508.4 396,987.5" fill="#ffffff"/><polygon points="287,970.7 287,550 329,558.4 329,979.1" fill="url('#backgroundGradient')"/><polygon points="329,558.4 287,550 329,550 371,558.4" fill="rgba(245, 156, 104, 1)"/><polygon points="329,987.5 329,558.4 371,558.4 371,987.5" fill="#ffffff"/><polygon points="262,970.7 262,300 304,308.4 304,979.1" fill="url('#backgroundGradient')"/><polygon points="304,308.4 262,300 304,300 346,308.4" fill="rgba(243, 195, 118, 1)"/><polygon points="304,987.5 304,308.4 346,308.4 346,987.5" fill="#ffffff"/><polygon points="237,970.7 237,500 279,508.4 279,979.1" fill="url('#backgroundGradient')"/><polygon points="279,508.4 237,500 279,500 321,508.4" fill="rgba(244, 166, 107, 1)"/><polygon points="279,987.5 279,508.4 321,508.4 321,987.5" fill="#ffffff"/><polygon points="212,970.7 212,475 254,483.4 254,979.1" fill="url('#backgroundGradient')"/><polygon points="254,483.4 212,475 254,475 296,483.4" fill="rgba(244, 166, 107, 1)"/><polygon points="254,987.5 254,483.4 296,483.4 296,987.5" fill="#ffffff"/><polygon points="187,970.7 187,425 229,433.4 229,979.1" fill="url('#backgroundGradient')"/><polygon points="229,433.4 187,425 229,425 271,433.4" fill="rgba(244, 176, 111, 1)"/><polygon points="229,987.5 229,433.4 271,433.4 271,987.5" fill="#ffffff"/><polygon points="162,970.7 162,500 204,508.4 204,979.1" fill="url('#backgroundGradient')"/><polygon points="204,508.4 162,500 204,500 246,508.4" fill="rgba(244, 166, 107, 1)"/><polygon points="204,987.5 204,508.4 246,508.4 246,987.5" fill="#ffffff"/><polygon points="137,970.7 137,475 179,483.4 179,979.1" fill="url('#backgroundGradient')"/><polygon points="179,483.4 137,475 179,475 221,483.4" fill="rgba(244, 166, 107, 1)"/><polygon points="179,987.5 179,483.4 221,483.4 221,987.5" fill="#ffffff"/><polygon points="112,970.7 112,450 154,458.4 154,979.1" fill="url('#backgroundGradient')"/><polygon points="154,458.4 112,450 154,450 196,458.4" fill="rgba(244, 171, 109, 1)"/><polygon points="154,987.5 154,458.4 196,458.4 196,987.5" fill="#ffffff"/><polygon points="87,970.7 87,475 129,483.4 129,979.1" fill="url('#backgroundGradient')"/><polygon points="129,483.4 87,475 129,475 171,483.4" fill="rgba(244, 166, 107, 1)"/><polygon points="129,987.5 129,483.4 171,483.4 171,987.5" fill="#ffffff"/></svg></svg>