<svg xmlns="http://www.w3.org/2000/svg" viewBox="0 0 1000 1000" style="background-color: rgb(61, 53, 1); width: 1000px; height: 1000px;"><svg viewBox="0 0 1000 1000" class="undefined" style="width: 1000px; height: 1000px;">
        <defs>
            <linearGradient id="backgroundGradient" gradientTransform="rotate(90)">
                <stop offset="0%" stop-color="rgba(0, 245, 212, 1)"/>
                <stop offset="100%" stop-color="rgba(156, 92, 227, 1)"/>

            </linearGradient>
        </defs>
    <polygon points="835.5,959.2307692307693 835.5,615.3846153846154 880.5,620.3846153846154 880.5,964.2307692307693" fill="url('#backgroundGradient')"/><polygon points="880.5,620.3846153846154 835.5,615.3846153846154 880.5,615.3846153846154 925.5,620.3846153846154" fill="rgba(0, 218, 229, 1)"/><polygon points="880.5,969.2307692307693 880.5,620.3846153846154 925.5,620.3846153846154 925.5,969.2307692307693" fill="#3d3501"/><polygon points="773.9615384615385,959.2307692307693 773.9615384615385,615.3846153846154 818.9615384615385,620.3846153846154 818.9615384615385,964.2307692307693" fill="url('#backgroundGradient')"/><polygon points="818.9615384615385,620.3846153846154 773.9615384615385,615.3846153846154 818.9615384615385,615.3846153846154 863.9615384615385,620.3846153846154" fill="rgba(0, 218, 229, 1)"/><polygon points="818.9615384615385,969.2307692307693 818.9615384615385,620.3846153846154 863.9615384615385,620.3846153846154 863.9615384615385,969.2307692307693" fill="#3d3501"/><polygon points="712.4230769230769,959.2307692307693 712.4230769230769,615.3846153846154 757.4230769230769,620.3846153846154 757.4230769230769,964.2307692307693" fill="url('#backgroundGradient')"/><polygon points="757.4230769230769,620.3846153846154 712.4230769230769,615.3846153846154 757.4230769230769,615.3846153846154 802.4230769230769,620.3846153846154" fill="rgba(0, 218, 229, 1)"/><polygon points="757.4230769230769,969.2307692307693 757.4230769230769,620.3846153846154 802.4230769230769,620.3846153846154 802.4230769230769,969.2307692307693" fill="#3d3501"/><polygon points="650.8846153846154,959.2307692307693 650.8846153846154,246.15384615384616 695.8846153846154,251.15384615384616 695.8846153846154,964.2307692307693" fill="url('#backgroundGradient')"/><polygon points="695.8846153846154,251.15384615384616 650.8846153846154,246.15384615384616 695.8846153846154,246.15384615384616 740.8846153846154,251.15384615384616" fill="rgba(0, 245, 212, 1)"/><polygon points="695.8846153846154,969.2307692307693 695.8846153846154,251.15384615384616 740.8846153846154,251.15384615384616 740.8846153846154,969.2307692307693" fill="#3d3501"/><polygon points="589.3461538461538,959.2307692307693 589.3461538461538,615.3846153846154 634.3461538461538,620.3846153846154 634.3461538461538,964.2307692307693" fill="url('#backgroundGradient')"/><polygon points="634.3461538461538,620.3846153846154 589.3461538461538,615.3846153846154 634.3461538461538,615.3846153846154 679.3461538461538,620.3846153846154" fill="rgba(0, 218, 229, 1)"/><polygon points="634.3461538461538,969.2307692307693 634.3461538461538,620.3846153846154 679.3461538461538,620.3846153846154 679.3461538461538,969.2307692307693" fill="#3d3501"/><polygon points="527.8076923076923,959.2307692307693 527.8076923076923,430.7692307692308 572.8076923076923,435.7692307692308 572.8076923076923,964.2307692307693" fill="url('#backgroundGradient')"/><polygon points="572.8076923076923,435.7692307692308 527.8076923076923,430.7692307692308 572.8076923076923,430.7692307692308 617.8076923076923,435.7692307692308" fill="rgba(0, 233, 219, 1)"/><polygon points="572.8076923076923,969.2307692307693 572.8076923076923,435.7692307692308 617.8076923076923,435.7692307692308 617.8076923076923,969.2307692307693" fill="#3d3501"/><polygon points="466.2692307692307,959.2307692307693 466.2692307692307,553.8461538461538 511.2692307692307,558.8461538461538 511.2692307692307,964.2307692307693" fill="url('#backgroundGradient')"/><polygon points="511.2692307692307,558.8461538461538 466.2692307692307,553.8461538461538 511.2692307692307,553.8461538461538 556.2692307692307,558.8461538461538" fill="rgba(0, 223, 225, 1)"/><polygon points="511.2692307692307,969.2307692307693 511.2692307692307,558.8461538461538 556.2692307692307,558.8461538461538 556.2692307692307,969.2307692307693" fill="#3d3501"/><polygon points="404.73076923076917,959.2307692307693 404.73076923076917,369.2307692307692 449.73076923076917,374.2307692307692 449.73076923076917,964.2307692307693" fill="url('#backgroundGradient')"/><polygon points="449.73076923076917,374.2307692307692 404.73076923076917,369.2307692307692 449.73076923076917,369.2307692307692 494.73076923076917,374.2307692307692" fill="rgba(0, 236, 217, 1)"/><polygon points="449.73076923076917,969.2307692307693 449.73076923076917,374.2307692307692 494.73076923076917,374.2307692307692 494.73076923076917,969.2307692307693" fill="#3d3501"/><polygon points="343.1923076923076,959.2307692307693 343.1923076923076,184.6153846153846 388.1923076923076,189.6153846153846 388.1923076923076,964.2307692307693" fill="url('#backgroundGradient')"/><polygon points="388.1923076923076,189.6153846153846 343.1923076923076,184.6153846153846 388.1923076923076,184.6153846153846 433.1923076923076,189.6153846153846" fill="rgba(0, 245, 212, 1)"/><polygon points="388.1923076923076,969.2307692307693 388.1923076923076,189.6153846153846 433.1923076923076,189.6153846153846 433.1923076923076,969.2307692307693" fill="#3d3501"/><polygon points="281.6538461538461,959.2307692307693 281.6538461538461,246.15384615384616 326.6538461538461,251.15384615384616 326.6538461538461,964.2307692307693" fill="url('#backgroundGradient')"/><polygon points="326.6538461538461,251.15384615384616 281.6538461538461,246.15384615384616 326.6538461538461,246.15384615384616 371.6538461538461,251.15384615384616" fill="rgba(0, 245, 212, 1)"/><polygon points="326.6538461538461,969.2307692307693 326.6538461538461,251.15384615384616 371.6538461538461,251.15384615384616 371.6538461538461,969.2307692307693" fill="#3d3501"/><polygon points="220.11538461538453,959.2307692307693 220.11538461538453,430.7692307692308 265.1153846153845,435.7692307692308 265.1153846153845,964.2307692307693" fill="url('#backgroundGradient')"/><polygon points="265.1153846153845,435.7692307692308 220.11538461538453,430.7692307692308 265.1153846153845,430.7692307692308 310.1153846153845,435.7692307692308" fill="rgba(0, 233, 219, 1)"/><polygon points="265.1153846153845,969.2307692307693 265.1153846153845,435.7692307692308 310.1153846153845,435.7692307692308 310.1153846153845,969.2307692307693" fill="#3d3501"/><polygon points="158.57692307692298,959.2307692307693 158.57692307692298,307.6923076923077 203.57692307692298,312.6923076923077 203.57692307692298,964.2307692307693" fill="url('#backgroundGradient')"/><polygon points="203.57692307692298,312.6923076923077 158.57692307692298,307.6923076923077 203.57692307692298,307.6923076923077 248.57692307692298,312.6923076923077" fill="rgba(0, 241, 214, 1)"/><polygon points="203.57692307692298,969.2307692307693 203.57692307692298,312.6923076923077 248.57692307692298,312.6923076923077 248.57692307692298,969.2307692307693" fill="#3d3501"/><polygon points="97.03846153846143,959.2307692307693 97.03846153846143,307.6923076923077 142.03846153846143,312.6923076923077 142.03846153846143,964.2307692307693" fill="url('#backgroundGradient')"/><polygon points="142.03846153846143,312.6923076923077 97.03846153846143,307.6923076923077 142.03846153846143,307.6923076923077 187.03846153846143,312.6923076923077" fill="rgba(0, 241, 214, 1)"/><polygon points="142.03846153846143,969.2307692307693 142.03846153846143,312.6923076923077 187.03846153846143,312.6923076923077 187.03846153846143,969.2307692307693" fill="#3d3501"/></svg></svg>