<svg xmlns="http://www.w3.org/2000/svg" viewBox="0 0 1000 1000" style="background-color: rgb(255, 255, 255); width: 1000px; height: 1000px;"><svg viewBox="0 0 1000 1000" class="undefined" style="width: 1000px; height: 1000px;">
        <defs>
            <linearGradient id="backgroundGradient" gradientTransform="rotate(90)">
                <stop offset="0%" stop-color="rgba(43, 192, 22, 1)"/>
                <stop offset="100%" stop-color="rgba(56, 94, 102, 1)"/>

            </linearGradient>
        </defs>
    <polygon points="920,974 920,768 960,773 960,979" fill="url('#backgroundGradient')"/><polygon points="960,773 920,768 960,768 1000,773" fill="rgba(39, 176, 79, 1)"/><polygon points="960,984 960,773 1000,773 1000,984" fill="#ffffff"/><polygon points="888,974 888,320 928,325 928,979" fill="url('#backgroundGradient')"/><polygon points="928,325 888,320 928,320 968,325" fill="rgba(42, 190, 27, 1)"/><polygon points="928,984 928,325 968,325 968,984" fill="#ffffff"/><polygon points="856,974 856,800 896,805 896,979" fill="url('#backgroundGradient')"/><polygon points="896,805 856,800 896,800 936,805" fill="rgba(39, 176, 79, 1)"/><polygon points="896,984 896,805 936,805 936,984" fill="#ffffff"/><polygon points="824,974 824,480 864,485 864,979" fill="url('#backgroundGradient')"/><polygon points="864,485 824,480 864,480 904,485" fill="rgba(41, 185, 46, 1)"/><polygon points="864,984 864,485 904,485 904,984" fill="#ffffff"/><polygon points="792,974 792,224 832,229 832,979" fill="url('#backgroundGradient')"/><polygon points="832,229 792,224 832,224 872,229" fill="rgba(43, 192, 22, 1)"/><polygon points="832,984 832,229 872,229 872,984" fill="#ffffff"/><polygon points="760,974 760,896 800,901 800,979" fill="url('#backgroundGradient')"/><polygon points="800,901 760,896 800,896 840,901" fill="rgba(39, 173, 91, 1)"/><polygon points="800,984 800,901 840,901 840,984" fill="#ffffff"/><polygon points="728,974 728,448 768,453 768,979" fill="url('#backgroundGradient')"/><polygon points="768,453 728,448 768,448 808,453" fill="rgba(41, 186, 42, 1)"/><polygon points="768,984 768,453 808,453 808,984" fill="#ffffff"/><polygon points="696,974 696,288 736,293 736,979" fill="url('#backgroundGradient')"/><polygon points="736,293 696,288 736,288 776,293" fill="rgba(43, 191, 24, 1)"/><polygon points="736,984 736,293 776,293 776,984" fill="#ffffff"/><polygon points="664,974 664,320 704,325 704,979" fill="url('#backgroundGradient')"/><polygon points="704,325 664,320 704,320 744,325" fill="rgba(42, 190, 27, 1)"/><polygon points="704,984 704,325 744,325 744,984" fill="#ffffff"/><polygon points="632,974 632,704 672,709 672,979" fill="url('#backgroundGradient')"/><polygon points="672,709 632,704 672,704 712,709" fill="rgba(40, 178, 72, 1)"/><polygon points="672,984 672,709 712,709 712,984" fill="#ffffff"/><polygon points="600,974 600,288 640,293 640,979" fill="url('#backgroundGradient')"/><polygon points="640,293 600,288 640,288 680,293" fill="rgba(43, 191, 24, 1)"/><polygon points="640,984 640,293 680,293 680,984" fill="#ffffff"/><polygon points="568,974 568,576 608,581 608,979" fill="url('#backgroundGradient')"/><polygon points="608,581 568,576 608,576 648,581" fill="rgba(41, 182, 57, 1)"/><polygon points="608,984 608,581 648,581 648,984" fill="#ffffff"/><polygon points="536,974 536,512 576,517 576,979" fill="url('#backgroundGradient')"/><polygon points="576,517 536,512 576,512 616,517" fill="rgba(41, 184, 50, 1)"/><polygon points="576,984 576,517 616,517 616,984" fill="#ffffff"/><polygon points="504,974 504,832 544,837 544,979" fill="url('#backgroundGradient')"/><polygon points="544,837 504,832 544,832 584,837" fill="rgba(39, 175, 84, 1)"/><polygon points="544,984 544,837 584,837 584,984" fill="#ffffff"/><polygon points="472,974 472,864 512,869 512,979" fill="url('#backgroundGradient')"/><polygon points="512,869 472,864 512,864 552,869" fill="rgba(39, 174, 87, 1)"/><polygon points="512,984 512,869 552,869 552,984" fill="#ffffff"/><polygon points="440,974 440,288 480,293 480,979" fill="url('#backgroundGradient')"/><polygon points="480,293 440,288 480,288 520,293" fill="rgba(43, 191, 24, 1)"/><polygon points="480,984 480,293 520,293 520,984" fill="#ffffff"/><polygon points="408,974 408,224 448,229 448,979" fill="url('#backgroundGradient')"/><polygon points="448,229 408,224 448,224 488,229" fill="rgba(43, 192, 22, 1)"/><polygon points="448,984 448,229 488,229 488,984" fill="#ffffff"/><polygon points="376,974 376,896 416,901 416,979" fill="url('#backgroundGradient')"/><polygon points="416,901 376,896 416,896 456,901" fill="rgba(39, 173, 91, 1)"/><polygon points="416,984 416,901 456,901 456,984" fill="#ffffff"/><polygon points="344,974 344,736 384,741 384,979" fill="url('#backgroundGradient')"/><polygon points="384,741 344,736 384,736 424,741" fill="rgba(40, 177, 76, 1)"/><polygon points="384,984 384,741 424,741 424,984" fill="#ffffff"/><polygon points="312,974 312,704 352,709 352,979" fill="url('#backgroundGradient')"/><polygon points="352,709 312,704 352,704 392,709" fill="rgba(40, 178, 72, 1)"/><polygon points="352,984 352,709 392,709 392,984" fill="#ffffff"/><polygon points="280,974 280,640 320,645 320,979" fill="url('#backgroundGradient')"/><polygon points="320,645 280,640 320,640 360,645" fill="rgba(40, 180, 65, 1)"/><polygon points="320,984 320,645 360,645 360,984" fill="#ffffff"/><polygon points="248,974 248,800 288,805 288,979" fill="url('#backgroundGradient')"/><polygon points="288,805 248,800 288,800 328,805" fill="rgba(39, 176, 79, 1)"/><polygon points="288,984 288,805 328,805 328,984" fill="#ffffff"/><polygon points="216,974 216,512 256,517 256,979" fill="url('#backgroundGradient')"/><polygon points="256,517 216,512 256,512 296,517" fill="rgba(41, 184, 50, 1)"/><polygon points="256,984 256,517 296,517 296,984" fill="#ffffff"/><polygon points="184,974 184,544 224,549 224,979" fill="url('#backgroundGradient')"/><polygon points="224,549 184,544 224,544 264,549" fill="rgba(41, 183, 54, 1)"/><polygon points="224,984 224,549 264,549 264,984" fill="#ffffff"/><polygon points="152,974 152,544 192,549 192,979" fill="url('#backgroundGradient')"/><polygon points="192,549 152,544 192,544 232,549" fill="rgba(41, 183, 54, 1)"/><polygon points="192,984 192,549 232,549 232,984" fill="#ffffff"/><polygon points="120,974 120,448 160,453 160,979" fill="url('#backgroundGradient')"/><polygon points="160,453 120,448 160,448 200,453" fill="rgba(41, 186, 42, 1)"/><polygon points="160,984 160,453 200,453 200,984" fill="#ffffff"/><polygon points="88,974 88,832 128,837 128,979" fill="url('#backgroundGradient')"/><polygon points="128,837 88,832 128,832 168,837" fill="rgba(39, 175, 84, 1)"/><polygon points="128,984 128,837 168,837 168,984" fill="#ffffff"/><polygon points="56,974 56,512 96,517 96,979" fill="url('#backgroundGradient')"/><polygon points="96,517 56,512 96,512 136,517" fill="rgba(41, 184, 50, 1)"/><polygon points="96,984 96,517 136,517 136,984" fill="#ffffff"/><polygon points="24,974 24,576 64,581 64,979" fill="url('#backgroundGradient')"/><polygon points="64,581 24,576 64,576 104,581" fill="rgba(41, 182, 57, 1)"/><polygon points="64,984 64,581 104,581 104,984" fill="#ffffff"/></svg></svg>