<svg xmlns="http://www.w3.org/2000/svg" viewBox="0 0 1000 1000" style="background-color: rgb(0, 0, 0); width: 1000px; height: 1000px;"><svg viewBox="0 0 1000 1000" class="undefined" style="width: 1000px; height: 1000px;">
        <defs>
            <linearGradient id="backgroundGradient" gradientTransform="rotate(90)">
                <stop offset="0%" stop-color="rgba(242, 197, 118, 1)"/>
                <stop offset="100%" stop-color="rgba(14, 11, 62, 1)"/>

            </linearGradient>
        </defs>
    <polygon points="868.5,900.8 868.5,480 916.5,489.6 916.5,910.4" fill="url('#backgroundGradient')"/><polygon points="916.5,489.6 868.5,480 916.5,480 964.5,489.6" fill="rgba(244, 167, 106, 1)"/><polygon points="916.5,920 916.5,489.6 964.5,489.6 964.5,920" fill="#000000"/><polygon points="708.5,900.8 708.5,640 756.5,649.6 756.5,910.4" fill="url('#backgroundGradient')"/><polygon points="756.5,649.6 708.5,640 756.5,640 804.5,649.6" fill="rgba(247, 142, 99, 1)"/><polygon points="756.5,920 756.5,649.6 804.5,649.6 804.5,920" fill="#000000"/><polygon points="548.5,900.8 548.5,320 596.5,329.6 596.5,910.4" fill="url('#backgroundGradient')"/><polygon points="596.5,329.6 548.5,320 596.5,320 644.5,329.6" fill="rgba(242, 190, 117, 1)"/><polygon points="596.5,920 596.5,329.6 644.5,329.6 644.5,920" fill="#000000"/><polygon points="388.5,900.8 388.5,480 436.5,489.6 436.5,910.4" fill="url('#backgroundGradient')"/><polygon points="436.5,489.6 388.5,480 436.5,480 484.5,489.6" fill="rgba(244, 167, 106, 1)"/><polygon points="436.5,920 436.5,489.6 484.5,489.6 484.5,920" fill="#000000"/><polygon points="228.5,900.8 228.5,160 276.5,169.6 276.5,910.4" fill="url('#backgroundGradient')"/><polygon points="276.5,169.6 228.5,160 276.5,160 324.5,169.6" fill="rgba(242, 198, 118, 1)"/><polygon points="276.5,920 276.5,169.6 324.5,169.6 324.5,920" fill="#000000"/><polygon points="68.5,900.8 68.5,160 116.5,169.6 116.5,910.4" fill="url('#backgroundGradient')"/><polygon points="116.5,169.6 68.5,160 116.5,160 164.5,169.6" fill="rgba(242, 198, 118, 1)"/><polygon points="116.5,920 116.5,169.6 164.5,169.6 164.5,920" fill="#000000"/></svg></svg>