<svg xmlns="http://www.w3.org/2000/svg" viewBox="0 0 1000 1000" style="background-color: rgb(0, 0, 0); width: 1000px; height: 1000px;"><svg viewBox="0 0 1000 1000" class="undefined" style="width: 1000px; height: 1000px;">
        <defs>
            <linearGradient id="backgroundGradient" gradientTransform="rotate(90)">
                <stop offset="0%" stop-color="rgba(254, 185, 7, 1)"/>
                <stop offset="100%" stop-color="rgba(107, 3, 14, 1)"/>

            </linearGradient>
        </defs>
    <polygon points="808.5,935.2363636363635 808.5,654.5454545454546 879.5,668.7454545454547 879.5,949.4363636363636" fill="url('#backgroundGradient')"/><polygon points="879.5,668.7454545454547 808.5,654.5454545454546 879.5,654.5454545454546 950.5,668.7454545454547" fill="rgba(247, 153, 6, 1)"/><polygon points="879.5,963.6363636363636 879.5,668.7454545454547 950.5,668.7454545454547 950.5,963.6363636363636" fill="#000000"/><polygon points="735.7727272727273,935.2363636363635 735.7727272727273,581.8181818181819 806.7727272727273,596.0181818181819 806.7727272727273,949.4363636363636" fill="url('#backgroundGradient')"/><polygon points="806.7727272727273,596.0181818181819 735.7727272727273,581.8181818181819 806.7727272727273,581.8181818181819 877.7727272727273,596.0181818181819" fill="rgba(248, 157, 6, 1)"/><polygon points="806.7727272727273,963.6363636363636 806.7727272727273,596.0181818181819 877.7727272727273,596.0181818181819 877.7727272727273,963.6363636363636" fill="#000000"/><polygon points="663.0454545454545,935.2363636363635 663.0454545454545,509.0909090909091 734.0454545454545,523.2909090909092 734.0454545454545,949.4363636363636" fill="url('#backgroundGradient')"/><polygon points="734.0454545454545,523.2909090909092 663.0454545454545,509.0909090909092 734.0454545454545,509.0909090909092 805.0454545454545,523.2909090909092" fill="rgba(249, 160, 6, 1)"/><polygon points="734.0454545454545,963.6363636363636 734.0454545454545,523.2909090909092 805.0454545454545,523.2909090909092 805.0454545454545,963.6363636363636" fill="#000000"/><polygon points="590.3181818181818,935.2363636363635 590.3181818181818,218.1818181818182 661.3181818181818,232.38181818181818 661.3181818181818,949.4363636363636" fill="url('#backgroundGradient')"/><polygon points="661.3181818181818,232.38181818181818 590.3181818181818,218.1818181818182 661.3181818181818,218.1818181818182 732.3181818181818,232.38181818181818" fill="rgba(252, 174, 7, 1)"/><polygon points="661.3181818181818,963.6363636363636 661.3181818181818,232.38181818181818 732.3181818181818,232.38181818181818 732.3181818181818,963.6363636363636" fill="#000000"/><polygon points="517.590909090909,935.2363636363635 517.590909090909,654.5454545454546 588.590909090909,668.7454545454547 588.590909090909,949.4363636363636" fill="url('#backgroundGradient')"/><polygon points="588.590909090909,668.7454545454547 517.590909090909,654.5454545454546 588.590909090909,654.5454545454546 659.590909090909,668.7454545454547" fill="rgba(247, 153, 6, 1)"/><polygon points="588.590909090909,963.6363636363636 588.590909090909,668.7454545454547 659.590909090909,668.7454545454547 659.590909090909,963.6363636363636" fill="#000000"/><polygon points="444.86363636363626,935.2363636363635 444.86363636363626,363.6363636363637 515.8636363636363,377.83636363636367 515.8636363636363,949.4363636363636" fill="url('#backgroundGradient')"/><polygon points="515.8636363636363,377.83636363636367 444.86363636363626,363.6363636363637 515.8636363636363,363.6363636363637 586.8636363636363,377.83636363636367" fill="rgba(251, 168, 7, 1)"/><polygon points="515.8636363636363,963.6363636363636 515.8636363636363,377.83636363636367 586.8636363636363,377.83636363636367 586.8636363636363,963.6363636363636" fill="#000000"/><polygon points="372.1363636363635,935.2363636363635 372.1363636363635,436.3636363636364 443.1363636363635,450.56363636363636 443.1363636363635,949.4363636363636" fill="url('#backgroundGradient')"/><polygon points="443.1363636363635,450.56363636363636 372.1363636363635,436.3636363636364 443.1363636363635,436.3636363636364 514.1363636363635,450.56363636363636" fill="rgba(250, 163, 7, 1)"/><polygon points="443.1363636363635,963.6363636363636 443.1363636363635,450.56363636363636 514.1363636363635,450.56363636363636 514.1363636363635,963.6363636363636" fill="#000000"/><polygon points="299.40909090909076,935.2363636363635 299.40909090909076,436.3636363636364 370.40909090909076,450.56363636363636 370.40909090909076,949.4363636363636" fill="url('#backgroundGradient')"/><polygon points="370.40909090909076,450.56363636363636 299.40909090909076,436.3636363636364 370.40909090909076,436.3636363636364 441.40909090909076,450.56363636363636" fill="rgba(250, 163, 7, 1)"/><polygon points="370.40909090909076,963.6363636363636 370.40909090909076,450.56363636363636 441.40909090909076,450.56363636363636 441.40909090909076,963.6363636363636" fill="#000000"/><polygon points="226.68181818181802,935.2363636363635 226.68181818181802,363.6363636363637 297.681818181818,377.83636363636367 297.681818181818,949.4363636363636" fill="url('#backgroundGradient')"/><polygon points="297.681818181818,377.83636363636367 226.68181818181802,363.6363636363637 297.681818181818,363.6363636363637 368.681818181818,377.83636363636367" fill="rgba(251, 168, 7, 1)"/><polygon points="297.681818181818,963.6363636363636 297.681818181818,377.83636363636367 368.681818181818,377.83636363636367 368.681818181818,963.6363636363636" fill="#000000"/><polygon points="153.95454545454527,935.2363636363635 153.95454545454527,654.5454545454546 224.95454545454527,668.7454545454547 224.95454545454527,949.4363636363636" fill="url('#backgroundGradient')"/><polygon points="224.95454545454527,668.7454545454547 153.95454545454527,654.5454545454546 224.95454545454527,654.5454545454546 295.95454545454527,668.7454545454547" fill="rgba(247, 153, 6, 1)"/><polygon points="224.95454545454527,963.6363636363636 224.95454545454527,668.7454545454547 295.95454545454527,668.7454545454547 295.95454545454527,963.6363636363636" fill="#000000"/><polygon points="81.22727272727253,935.2363636363635 81.22727272727253,218.1818181818182 152.22727272727252,232.38181818181818 152.22727272727252,949.4363636363636" fill="url('#backgroundGradient')"/><polygon points="152.22727272727252,232.38181818181818 81.22727272727252,218.1818181818182 152.22727272727252,218.1818181818182 223.22727272727252,232.38181818181818" fill="rgba(252, 174, 7, 1)"/><polygon points="152.22727272727252,963.6363636363636 152.22727272727252,232.38181818181818 223.22727272727252,232.38181818181818 223.22727272727252,963.6363636363636" fill="#000000"/></svg></svg>