<svg xmlns="http://www.w3.org/2000/svg" viewBox="0 0 1000 1000" style="background-color: rgb(0, 0, 0); width: 1000px; height: 1000px;"><svg viewBox="0 0 1000 1000" class="undefined" style="width: 1000px; height: 1000px;">
        <defs>
            <linearGradient id="backgroundGradient" gradientTransform="rotate(90)">
                <stop offset="0%" stop-color="rgba(255, 255, 255, 1)"/>
                <stop offset="100%" stop-color="rgba(1, 1, 1, 1)"/>

            </linearGradient>
        </defs>
    <polygon points="851.5,971.8095238095239 851.5,685.7142857142857 883.5,690.2857142857142 883.5,976.3809523809524" fill="url('#backgroundGradient')"/><polygon points="883.5,690.2857142857142 851.5,685.7142857142857 883.5,685.7142857142857 915.5,690.2857142857142" fill="rgba(209, 209, 209, 1)"/><polygon points="883.5,980.952380952381 883.5,690.2857142857142 915.5,690.2857142857142 915.5,980.952380952381" fill="#000000"/><polygon points="813.4047619047619,971.8095238095239 813.4047619047619,533.3333333333334 845.4047619047619,537.9047619047619 845.4047619047619,976.3809523809524" fill="url('#backgroundGradient')"/><polygon points="845.4047619047619,537.9047619047619 813.4047619047619,533.3333333333334 845.4047619047619,533.3333333333334 877.4047619047619,537.9047619047619" fill="rgba(227, 227, 227, 1)"/><polygon points="845.4047619047619,980.952380952381 845.4047619047619,537.9047619047619 877.4047619047619,537.9047619047619 877.4047619047619,980.952380952381" fill="#000000"/><polygon points="775.3095238095239,971.8095238095239 775.3095238095239,419.04761904761904 807.3095238095239,423.6190476190476 807.3095238095239,976.3809523809524" fill="url('#backgroundGradient')"/><polygon points="807.3095238095239,423.6190476190476 775.3095238095239,419.04761904761904 807.3095238095239,419.04761904761904 839.3095238095239,423.6190476190476" fill="rgba(238, 238, 238, 1)"/><polygon points="807.3095238095239,980.952380952381 807.3095238095239,423.6190476190476 839.3095238095239,423.6190476190476 839.3095238095239,980.952380952381" fill="#000000"/><polygon points="737.2142857142858,971.8095238095239 737.2142857142858,266.6666666666667 769.2142857142858,271.23809523809524 769.2142857142858,976.3809523809524" fill="url('#backgroundGradient')"/><polygon points="769.2142857142858,271.23809523809524 737.2142857142858,266.6666666666667 769.2142857142858,266.6666666666667 801.2142857142858,271.23809523809524" fill="rgba(255, 255, 255, 1)"/><polygon points="769.2142857142858,980.952380952381 769.2142857142858,271.23809523809524 801.2142857142858,271.23809523809524 801.2142857142858,980.952380952381" fill="#000000"/><polygon points="699.1190476190477,971.8095238095239 699.1190476190477,304.76190476190476 731.1190476190477,309.3333333333333 731.1190476190477,976.3809523809524" fill="url('#backgroundGradient')"/><polygon points="731.1190476190477,309.3333333333333 699.1190476190477,304.76190476190476 731.1190476190477,304.76190476190476 763.1190476190477,309.3333333333333" fill="rgba(249, 249, 249, 1)"/><polygon points="731.1190476190477,980.952380952381 731.1190476190477,309.3333333333333 763.1190476190477,309.3333333333333 763.1190476190477,980.952380952381" fill="#000000"/><polygon points="661.0238095238096,971.8095238095239 661.0238095238096,419.04761904761904 693.0238095238096,423.6190476190476 693.0238095238096,976.3809523809524" fill="url('#backgroundGradient')"/><polygon points="693.0238095238096,423.6190476190476 661.0238095238096,419.04761904761904 693.0238095238096,419.04761904761904 725.0238095238096,423.6190476190476" fill="rgba(238, 238, 238, 1)"/><polygon points="693.0238095238096,980.952380952381 693.0238095238096,423.6190476190476 725.0238095238096,423.6190476190476 725.0238095238096,980.952380952381" fill="#000000"/><polygon points="622.9285714285716,971.8095238095239 622.9285714285716,647.6190476190476 654.9285714285716,652.1904761904761 654.9285714285716,976.3809523809524" fill="url('#backgroundGradient')"/><polygon points="654.9285714285716,652.1904761904761 622.9285714285716,647.6190476190476 654.9285714285716,647.6190476190476 686.9285714285716,652.1904761904761" fill="rgba(212, 212, 212, 1)"/><polygon points="654.9285714285716,980.952380952381 654.9285714285716,652.1904761904761 686.9285714285716,652.1904761904761 686.9285714285716,980.952380952381" fill="#000000"/><polygon points="584.8333333333335,971.8095238095239 584.8333333333335,457.1428571428571 616.8333333333335,461.71428571428567 616.8333333333335,976.3809523809524" fill="url('#backgroundGradient')"/><polygon points="616.8333333333335,461.71428571428567 584.8333333333335,457.1428571428571 616.8333333333335,457.1428571428571 648.8333333333335,461.71428571428567" fill="rgba(234, 234, 234, 1)"/><polygon points="616.8333333333335,980.952380952381 616.8333333333335,461.71428571428567 648.8333333333335,461.71428571428567 648.8333333333335,980.952380952381" fill="#000000"/><polygon points="546.7380952380954,971.8095238095239 546.7380952380954,571.4285714285714 578.7380952380954,576 578.7380952380954,976.3809523809524" fill="url('#backgroundGradient')"/><polygon points="578.7380952380954,576 546.7380952380954,571.4285714285714 578.7380952380954,571.4285714285714 610.7380952380954,576" fill="rgba(219, 219, 219, 1)"/><polygon points="578.7380952380954,980.952380952381 578.7380952380954,576 610.7380952380954,576 610.7380952380954,980.952380952381" fill="#000000"/><polygon points="508.64285714285734,971.8095238095239 508.64285714285734,723.8095238095239 540.6428571428573,728.3809523809524 540.6428571428573,976.3809523809524" fill="url('#backgroundGradient')"/><polygon points="540.6428571428573,728.3809523809524 508.64285714285734,723.8095238095239 540.6428571428573,723.8095238095239 572.6428571428573,728.3809523809524" fill="rgba(205, 205, 205, 1)"/><polygon points="540.6428571428573,980.952380952381 540.6428571428573,728.3809523809524 572.6428571428573,728.3809523809524 572.6428571428573,980.952380952381" fill="#000000"/><polygon points="470.54761904761926,971.8095238095239 470.54761904761926,571.4285714285714 502.54761904761926,576 502.54761904761926,976.3809523809524" fill="url('#backgroundGradient')"/><polygon points="502.54761904761926,576 470.54761904761926,571.4285714285714 502.54761904761926,571.4285714285714 534.5476190476193,576" fill="rgba(219, 219, 219, 1)"/><polygon points="502.54761904761926,980.952380952381 502.54761904761926,576 534.5476190476193,576 534.5476190476193,980.952380952381" fill="#000000"/><polygon points="432.4523809523812,971.8095238095239 432.4523809523812,571.4285714285714 464.4523809523812,576 464.4523809523812,976.3809523809524" fill="url('#backgroundGradient')"/><polygon points="464.4523809523812,576 432.4523809523812,571.4285714285714 464.4523809523812,571.4285714285714 496.4523809523812,576" fill="rgba(219, 219, 219, 1)"/><polygon points="464.4523809523812,980.952380952381 464.4523809523812,576 496.4523809523812,576 496.4523809523812,980.952380952381" fill="#000000"/><polygon points="394.3571428571431,971.8095238095239 394.3571428571431,190.47619047619048 426.3571428571431,195.04761904761907 426.3571428571431,976.3809523809524" fill="url('#backgroundGradient')"/><polygon points="426.3571428571431,195.04761904761907 394.3571428571431,190.47619047619048 426.3571428571431,190.47619047619048 458.3571428571431,195.04761904761907" fill="rgba(255, 255, 255, 1)"/><polygon points="426.3571428571431,980.952380952381 426.3571428571431,195.04761904761907 458.3571428571431,195.04761904761907 458.3571428571431,980.952380952381" fill="#000000"/><polygon points="356.26190476190504,971.8095238095239 356.26190476190504,685.7142857142857 388.26190476190504,690.2857142857142 388.26190476190504,976.3809523809524" fill="url('#backgroundGradient')"/><polygon points="388.26190476190504,690.2857142857142 356.26190476190504,685.7142857142857 388.26190476190504,685.7142857142857 420.26190476190504,690.2857142857142" fill="rgba(209, 209, 209, 1)"/><polygon points="388.26190476190504,980.952380952381 388.26190476190504,690.2857142857142 420.26190476190504,690.2857142857142 420.26190476190504,980.952380952381" fill="#000000"/><polygon points="318.16666666666697,971.8095238095239 318.16666666666697,609.5238095238095 350.16666666666697,614.0952380952381 350.16666666666697,976.3809523809524" fill="url('#backgroundGradient')"/><polygon points="350.16666666666697,614.0952380952381 318.16666666666697,609.5238095238095 350.16666666666697,609.5238095238095 382.16666666666697,614.0952380952381" fill="rgba(216, 216, 216, 1)"/><polygon points="350.16666666666697,980.952380952381 350.16666666666697,614.0952380952381 382.16666666666697,614.0952380952381 382.16666666666697,980.952380952381" fill="#000000"/><polygon points="280.0714285714289,971.8095238095239 280.0714285714289,533.3333333333334 312.0714285714289,537.9047619047619 312.0714285714289,976.3809523809524" fill="url('#backgroundGradient')"/><polygon points="312.0714285714289,537.9047619047619 280.0714285714289,533.3333333333334 312.0714285714289,533.3333333333334 344.0714285714289,537.9047619047619" fill="rgba(227, 227, 227, 1)"/><polygon points="312.0714285714289,980.952380952381 312.0714285714289,537.9047619047619 344.0714285714289,537.9047619047619 344.0714285714289,980.952380952381" fill="#000000"/><polygon points="241.97619047619082,971.8095238095239 241.97619047619082,609.5238095238095 273.9761904761908,614.0952380952381 273.9761904761908,976.3809523809524" fill="url('#backgroundGradient')"/><polygon points="273.9761904761908,614.0952380952381 241.97619047619082,609.5238095238095 273.9761904761908,609.5238095238095 305.9761904761908,614.0952380952381" fill="rgba(216, 216, 216, 1)"/><polygon points="273.9761904761908,980.952380952381 273.9761904761908,614.0952380952381 305.9761904761908,614.0952380952381 305.9761904761908,980.952380952381" fill="#000000"/><polygon points="203.88095238095272,971.8095238095239 203.88095238095272,685.7142857142857 235.88095238095272,690.2857142857142 235.88095238095272,976.3809523809524" fill="url('#backgroundGradient')"/><polygon points="235.88095238095272,690.2857142857142 203.88095238095272,685.7142857142857 235.88095238095272,685.7142857142857 267.88095238095275,690.2857142857142" fill="rgba(209, 209, 209, 1)"/><polygon points="235.88095238095272,980.952380952381 235.88095238095272,690.2857142857142 267.88095238095275,690.2857142857142 267.88095238095275,980.952380952381" fill="#000000"/><polygon points="165.78571428571462,971.8095238095239 165.78571428571462,571.4285714285714 197.78571428571462,576 197.78571428571462,976.3809523809524" fill="url('#backgroundGradient')"/><polygon points="197.78571428571462,576 165.78571428571462,571.4285714285714 197.78571428571462,571.4285714285714 229.78571428571462,576" fill="rgba(219, 219, 219, 1)"/><polygon points="197.78571428571462,980.952380952381 197.78571428571462,576 229.78571428571462,576 229.78571428571462,980.952380952381" fill="#000000"/><polygon points="127.69047619047652,971.8095238095239 127.69047619047652,533.3333333333334 159.69047619047652,537.9047619047619 159.69047619047652,976.3809523809524" fill="url('#backgroundGradient')"/><polygon points="159.69047619047652,537.9047619047619 127.69047619047652,533.3333333333334 159.69047619047652,533.3333333333334 191.69047619047652,537.9047619047619" fill="rgba(227, 227, 227, 1)"/><polygon points="159.69047619047652,980.952380952381 159.69047619047652,537.9047619047619 191.69047619047652,537.9047619047619 191.69047619047652,980.952380952381" fill="#000000"/><polygon points="89.59523809523841,971.8095238095239 89.59523809523841,495.23809523809524 121.59523809523841,499.8095238095238 121.59523809523841,976.3809523809524" fill="url('#backgroundGradient')"/><polygon points="121.59523809523841,499.8095238095238 89.59523809523841,495.23809523809524 121.59523809523841,495.23809523809524 153.59523809523841,499.8095238095238" fill="rgba(231, 231, 231, 1)"/><polygon points="121.59523809523841,980.952380952381 121.59523809523841,499.8095238095238 153.59523809523841,499.8095238095238 153.59523809523841,980.952380952381" fill="#000000"/></svg></svg>