<svg xmlns="http://www.w3.org/2000/svg" viewBox="0 0 1000 1000" style="background-color: rgb(0, 0, 0); width: 1000px; height: 1000px;"><svg viewBox="0 0 1000 1000" class="undefined" style="width: 1000px; height: 1000px;">
        <defs>
            <linearGradient id="backgroundGradient" gradientTransform="rotate(90)">
                <stop offset="0%" stop-color="rgba(245, 172, 50, 1)"/>
                <stop offset="100%" stop-color="rgba(255, 210, 137, 1)"/>

            </linearGradient>
        </defs>
    <polygon points="838.5,970.6967741935483 838.5,283.8709677419355 879.5,292.0709677419355 879.5,978.8967741935484" fill="url('#backgroundGradient')"/><polygon points="879.5,292.0709677419355 838.5,283.8709677419355 879.5,283.8709677419355 920.5,292.0709677419355" fill="rgba(244, 172, 50, 1)"/><polygon points="879.5,987.0967741935484 879.5,292.0709677419355 920.5,292.0709677419355 920.5,987.0967741935484" fill="#000000"/><polygon points="812.6935483870968,970.6967741935483 812.6935483870968,387.09677419354836 853.6935483870968,395.29677419354834 853.6935483870968,978.8967741935484" fill="url('#backgroundGradient')"/><polygon points="853.6935483870968,395.29677419354834 812.6935483870968,387.09677419354836 853.6935483870968,387.09677419354836 894.6935483870968,395.29677419354834" fill="rgba(244, 173, 49, 1)"/><polygon points="853.6935483870968,987.0967741935484 853.6935483870968,395.29677419354834 894.6935483870968,395.29677419354834 894.6935483870968,987.0967741935484" fill="#000000"/><polygon points="786.8870967741937,970.6967741935483 786.8870967741937,516.1290322580645 827.8870967741937,524.3290322580646 827.8870967741937,978.8967741935484" fill="url('#backgroundGradient')"/><polygon points="827.8870967741937,524.3290322580646 786.8870967741937,516.1290322580645 827.8870967741937,516.1290322580645 868.8870967741937,524.3290322580646" fill="rgba(245, 176, 48, 1)"/><polygon points="827.8870967741937,987.0967741935484 827.8870967741937,524.3290322580646 868.8870967741937,524.3290322580646 868.8870967741937,987.0967741935484" fill="#000000"/><polygon points="761.0806451612905,970.6967741935483 761.0806451612905,387.09677419354836 802.0806451612905,395.29677419354834 802.0806451612905,978.8967741935484" fill="url('#backgroundGradient')"/><polygon points="802.0806451612905,395.29677419354834 761.0806451612905,387.09677419354836 802.0806451612905,387.09677419354836 843.0806451612905,395.29677419354834" fill="rgba(244, 173, 49, 1)"/><polygon points="802.0806451612905,987.0967741935484 802.0806451612905,395.29677419354834 843.0806451612905,395.29677419354834 843.0806451612905,987.0967741935484" fill="#000000"/><polygon points="735.2741935483873,970.6967741935483 735.2741935483873,309.67741935483866 776.2741935483873,317.87741935483865 776.2741935483873,978.8967741935484" fill="url('#backgroundGradient')"/><polygon points="776.2741935483873,317.87741935483865 735.2741935483873,309.67741935483866 776.2741935483873,309.67741935483866 817.2741935483873,317.87741935483865" fill="rgba(244, 173, 50, 1)"/><polygon points="776.2741935483873,987.0967741935484 776.2741935483873,317.87741935483865 817.2741935483873,317.87741935483865 817.2741935483873,987.0967741935484" fill="#000000"/><polygon points="709.4677419354841,970.6967741935483 709.4677419354841,412.9032258064516 750.4677419354841,421.1032258064516 750.4677419354841,978.8967741935484" fill="url('#backgroundGradient')"/><polygon points="750.4677419354841,421.1032258064516 709.4677419354841,412.9032258064516 750.4677419354841,412.9032258064516 791.4677419354841,421.1032258064516" fill="rgba(244, 174, 49, 1)"/><polygon points="750.4677419354841,987.0967741935484 750.4677419354841,421.1032258064516 791.4677419354841,421.1032258064516 791.4677419354841,987.0967741935484" fill="#000000"/><polygon points="683.661290322581,970.6967741935483 683.661290322581,232.25806451612902 724.661290322581,240.458064516129 724.661290322581,978.8967741935484" fill="url('#backgroundGradient')"/><polygon points="724.661290322581,240.458064516129 683.661290322581,232.25806451612902 724.661290322581,232.25806451612902 765.661290322581,240.458064516129" fill="rgba(244, 173, 49, 1)"/><polygon points="724.661290322581,987.0967741935484 724.661290322581,240.458064516129 765.661290322581,240.458064516129 765.661290322581,987.0967741935484" fill="#000000"/><polygon points="657.8548387096778,970.6967741935483 657.8548387096778,748.3870967741935 698.8548387096778,756.5870967741936 698.8548387096778,978.8967741935484" fill="url('#backgroundGradient')"/><polygon points="698.8548387096778,756.5870967741936 657.8548387096778,748.3870967741935 698.8548387096778,748.3870967741935 739.8548387096778,756.5870967741936" fill="rgba(245, 179, 47, 1)"/><polygon points="698.8548387096778,987.0967741935484 698.8548387096778,756.5870967741936 739.8548387096778,756.5870967741936 739.8548387096778,987.0967741935484" fill="#000000"/><polygon points="632.0483870967746,970.6967741935483 632.0483870967746,154.83870967741933 673.0483870967746,163.03870967741932 673.0483870967746,978.8967741935484" fill="url('#backgroundGradient')"/><polygon points="673.0483870967746,163.03870967741932 632.0483870967746,154.83870967741933 673.0483870967746,154.83870967741933 714.0483870967746,163.03870967741932" fill="rgba(244, 172, 50, 1)"/><polygon points="673.0483870967746,987.0967741935484 673.0483870967746,163.03870967741932 714.0483870967746,163.03870967741932 714.0483870967746,987.0967741935484" fill="#000000"/><polygon points="606.2419354838714,970.6967741935483 606.2419354838714,258.06451612903226 647.2419354838714,266.26451612903224 647.2419354838714,978.8967741935484" fill="url('#backgroundGradient')"/><polygon points="647.2419354838714,266.26451612903224 606.2419354838714,258.06451612903226 647.2419354838714,258.06451612903226 688.2419354838714,266.26451612903224" fill="rgba(244, 172, 50, 1)"/><polygon points="647.2419354838714,987.0967741935484 647.2419354838714,266.26451612903224 688.2419354838714,266.26451612903224 688.2419354838714,987.0967741935484" fill="#000000"/><polygon points="580.4354838709683,970.6967741935483 580.4354838709683,387.09677419354836 621.4354838709683,395.29677419354834 621.4354838709683,978.8967741935484" fill="url('#backgroundGradient')"/><polygon points="621.4354838709683,395.29677419354834 580.4354838709683,387.09677419354836 621.4354838709683,387.09677419354836 662.4354838709683,395.29677419354834" fill="rgba(244, 173, 49, 1)"/><polygon points="621.4354838709683,987.0967741935484 621.4354838709683,395.29677419354834 662.4354838709683,395.29677419354834 662.4354838709683,987.0967741935484" fill="#000000"/><polygon points="554.6290322580651,970.6967741935483 554.6290322580651,438.7096774193548 595.6290322580651,446.9096774193548 595.6290322580651,978.8967741935484" fill="url('#backgroundGradient')"/><polygon points="595.6290322580651,446.9096774193548 554.6290322580651,438.7096774193548 595.6290322580651,438.7096774193548 636.6290322580651,446.9096774193548" fill="rgba(244, 175, 50, 1)"/><polygon points="595.6290322580651,987.0967741935484 595.6290322580651,446.9096774193548 636.6290322580651,446.9096774193548 636.6290322580651,987.0967741935484" fill="#000000"/><polygon points="528.8225806451619,970.6967741935483 528.8225806451619,541.9354838709677 569.8225806451619,550.1354838709677 569.8225806451619,978.8967741935484" fill="url('#backgroundGradient')"/><polygon points="569.8225806451619,550.1354838709677 528.8225806451619,541.9354838709677 569.8225806451619,541.9354838709677 610.8225806451619,550.1354838709677" fill="rgba(244, 176, 49, 1)"/><polygon points="569.8225806451619,987.0967741935484 569.8225806451619,550.1354838709677 610.8225806451619,550.1354838709677 610.8225806451619,987.0967741935484" fill="#000000"/><polygon points="503.01612903225873,970.6967741935483 503.01612903225873,361.2903225806451 544.0161290322587,369.4903225806451 544.0161290322587,978.8967741935484" fill="url('#backgroundGradient')"/><polygon points="544.0161290322587,369.4903225806451 503.01612903225873,361.2903225806451 544.0161290322587,361.2903225806451 585.0161290322587,369.4903225806451" fill="rgba(243, 173, 50, 1)"/><polygon points="544.0161290322587,987.0967741935484 544.0161290322587,369.4903225806451 585.0161290322587,369.4903225806451 585.0161290322587,987.0967741935484" fill="#000000"/><polygon points="477.2096774193555,970.6967741935483 477.2096774193555,516.1290322580645 518.2096774193556,524.3290322580646 518.2096774193556,978.8967741935484" fill="url('#backgroundGradient')"/><polygon points="518.2096774193556,524.3290322580646 477.20967741935556,516.1290322580645 518.2096774193556,516.1290322580645 559.2096774193556,524.3290322580646" fill="rgba(245, 176, 48, 1)"/><polygon points="518.2096774193556,987.0967741935484 518.2096774193556,524.3290322580646 559.2096774193556,524.3290322580646 559.2096774193556,987.0967741935484" fill="#000000"/><polygon points="451.40322580645227,970.6967741935483 451.40322580645227,516.1290322580645 492.40322580645227,524.3290322580646 492.40322580645227,978.8967741935484" fill="url('#backgroundGradient')"/><polygon points="492.40322580645227,524.3290322580646 451.40322580645227,516.1290322580645 492.40322580645227,516.1290322580645 533.4032258064523,524.3290322580646" fill="rgba(245, 176, 48, 1)"/><polygon points="492.40322580645227,987.0967741935484 492.40322580645227,524.3290322580646 533.4032258064523,524.3290322580646 533.4032258064523,987.0967741935484" fill="#000000"/><polygon points="425.59677419354904,970.6967741935483 425.59677419354904,670.9677419354838 466.59677419354904,679.1677419354838 466.59677419354904,978.8967741935484" fill="url('#backgroundGradient')"/><polygon points="466.59677419354904,679.1677419354838 425.59677419354904,670.9677419354838 466.59677419354904,670.9677419354838 507.59677419354904,679.1677419354838" fill="rgba(244, 178, 48, 1)"/><polygon points="466.59677419354904,987.0967741935484 466.59677419354904,679.1677419354838 507.59677419354904,679.1677419354838 507.59677419354904,987.0967741935484" fill="#000000"/><polygon points="399.7903225806458,970.6967741935483 399.7903225806458,670.9677419354838 440.7903225806458,679.1677419354838 440.7903225806458,978.8967741935484" fill="url('#backgroundGradient')"/><polygon points="440.7903225806458,679.1677419354838 399.7903225806458,670.9677419354838 440.7903225806458,670.9677419354838 481.7903225806458,679.1677419354838" fill="rgba(244, 178, 48, 1)"/><polygon points="440.7903225806458,987.0967741935484 440.7903225806458,679.1677419354838 481.7903225806458,679.1677419354838 481.7903225806458,987.0967741935484" fill="#000000"/><polygon points="373.9838709677426,970.6967741935483 373.9838709677426,387.09677419354836 414.9838709677426,395.29677419354834 414.9838709677426,978.8967741935484" fill="url('#backgroundGradient')"/><polygon points="414.9838709677426,395.29677419354834 373.9838709677426,387.09677419354836 414.9838709677426,387.09677419354836 455.9838709677426,395.29677419354834" fill="rgba(244, 173, 49, 1)"/><polygon points="414.9838709677426,987.0967741935484 414.9838709677426,395.29677419354834 455.9838709677426,395.29677419354834 455.9838709677426,987.0967741935484" fill="#000000"/><polygon points="348.17741935483934,970.6967741935483 348.17741935483934,283.8709677419355 389.17741935483934,292.0709677419355 389.17741935483934,978.8967741935484" fill="url('#backgroundGradient')"/><polygon points="389.17741935483934,292.0709677419355 348.17741935483934,283.8709677419355 389.17741935483934,283.8709677419355 430.17741935483934,292.0709677419355" fill="rgba(244, 172, 50, 1)"/><polygon points="389.17741935483934,987.0967741935484 389.17741935483934,292.0709677419355 430.17741935483934,292.0709677419355 430.17741935483934,987.0967741935484" fill="#000000"/><polygon points="322.3709677419361,970.6967741935483 322.3709677419361,232.25806451612902 363.3709677419361,240.458064516129 363.3709677419361,978.8967741935484" fill="url('#backgroundGradient')"/><polygon points="363.3709677419361,240.458064516129 322.3709677419361,232.25806451612902 363.3709677419361,232.25806451612902 404.3709677419361,240.458064516129" fill="rgba(244, 173, 49, 1)"/><polygon points="363.3709677419361,987.0967741935484 363.3709677419361,240.458064516129 404.3709677419361,240.458064516129 404.3709677419361,987.0967741935484" fill="#000000"/><polygon points="296.5645161290329,970.6967741935483 296.5645161290329,619.3548387096773 337.5645161290329,627.5548387096774 337.5645161290329,978.8967741935484" fill="url('#backgroundGradient')"/><polygon points="337.5645161290329,627.5548387096774 296.5645161290329,619.3548387096773 337.5645161290329,619.3548387096773 378.5645161290329,627.5548387096774" fill="rgba(244, 177, 49, 1)"/><polygon points="337.5645161290329,987.0967741935484 337.5645161290329,627.5548387096774 378.5645161290329,627.5548387096774 378.5645161290329,987.0967741935484" fill="#000000"/><polygon points="270.75806451612965,970.6967741935483 270.75806451612965,516.1290322580645 311.75806451612965,524.3290322580646 311.75806451612965,978.8967741935484" fill="url('#backgroundGradient')"/><polygon points="311.75806451612965,524.3290322580646 270.75806451612965,516.1290322580645 311.75806451612965,516.1290322580645 352.75806451612965,524.3290322580646" fill="rgba(245, 176, 48, 1)"/><polygon points="311.75806451612965,987.0967741935484 311.75806451612965,524.3290322580646 352.75806451612965,524.3290322580646 352.75806451612965,987.0967741935484" fill="#000000"/><polygon points="244.95161290322642,970.6967741935483 244.95161290322642,619.3548387096773 285.9516129032264,627.5548387096774 285.9516129032264,978.8967741935484" fill="url('#backgroundGradient')"/><polygon points="285.9516129032264,627.5548387096774 244.95161290322642,619.3548387096773 285.9516129032264,619.3548387096773 326.9516129032264,627.5548387096774" fill="rgba(244, 177, 49, 1)"/><polygon points="285.9516129032264,987.0967741935484 285.9516129032264,627.5548387096774 326.9516129032264,627.5548387096774 326.9516129032264,987.0967741935484" fill="#000000"/><polygon points="219.1451612903232,970.6967741935483 219.1451612903232,232.25806451612902 260.1451612903232,240.458064516129 260.1451612903232,978.8967741935484" fill="url('#backgroundGradient')"/><polygon points="260.1451612903232,240.458064516129 219.1451612903232,232.25806451612902 260.1451612903232,232.25806451612902 301.1451612903232,240.458064516129" fill="rgba(244, 173, 49, 1)"/><polygon points="260.1451612903232,987.0967741935484 260.1451612903232,240.458064516129 301.1451612903232,240.458064516129 301.1451612903232,987.0967741935484" fill="#000000"/><polygon points="193.33870967741996,970.6967741935483 193.33870967741996,309.67741935483866 234.33870967741996,317.87741935483865 234.33870967741996,978.8967741935484" fill="url('#backgroundGradient')"/><polygon points="234.33870967741996,317.87741935483865 193.33870967741996,309.67741935483866 234.33870967741996,309.67741935483866 275.33870967741996,317.87741935483865" fill="rgba(244, 173, 50, 1)"/><polygon points="234.33870967741996,987.0967741935484 234.33870967741996,317.87741935483865 275.33870967741996,317.87741935483865 275.33870967741996,987.0967741935484" fill="#000000"/><polygon points="167.53225806451672,970.6967741935483 167.53225806451672,387.09677419354836 208.53225806451672,395.29677419354834 208.53225806451672,978.8967741935484" fill="url('#backgroundGradient')"/><polygon points="208.53225806451672,395.29677419354834 167.53225806451672,387.09677419354836 208.53225806451672,387.09677419354836 249.53225806451672,395.29677419354834" fill="rgba(244, 173, 49, 1)"/><polygon points="208.53225806451672,987.0967741935484 208.53225806451672,395.29677419354834 249.53225806451672,395.29677419354834 249.53225806451672,987.0967741935484" fill="#000000"/><polygon points="141.7258064516135,970.6967741935483 141.7258064516135,567.741935483871 182.7258064516135,575.941935483871 182.7258064516135,978.8967741935484" fill="url('#backgroundGradient')"/><polygon points="182.7258064516135,575.941935483871 141.7258064516135,567.741935483871 182.7258064516135,567.741935483871 223.7258064516135,575.941935483871" fill="rgba(245, 178, 47, 1)"/><polygon points="182.7258064516135,987.0967741935484 182.7258064516135,575.941935483871 223.7258064516135,575.941935483871 223.7258064516135,987.0967741935484" fill="#000000"/><polygon points="115.91935483871026,970.6967741935483 115.91935483871026,154.83870967741933 156.91935483871026,163.03870967741932 156.91935483871026,978.8967741935484" fill="url('#backgroundGradient')"/><polygon points="156.91935483871026,163.03870967741932 115.91935483871026,154.83870967741933 156.91935483871026,154.83870967741933 197.91935483871026,163.03870967741932" fill="rgba(244, 172, 50, 1)"/><polygon points="156.91935483871026,987.0967741935484 156.91935483871026,163.03870967741932 197.91935483871026,163.03870967741932 197.91935483871026,987.0967741935484" fill="#000000"/><polygon points="90.11290322580703,970.6967741935483 90.11290322580703,387.09677419354836 131.11290322580703,395.29677419354834 131.11290322580703,978.8967741935484" fill="url('#backgroundGradient')"/><polygon points="131.11290322580703,395.29677419354834 90.11290322580703,387.09677419354836 131.11290322580703,387.09677419354836 172.11290322580703,395.29677419354834" fill="rgba(244, 173, 49, 1)"/><polygon points="131.11290322580703,987.0967741935484 131.11290322580703,395.29677419354834 172.11290322580703,395.29677419354834 172.11290322580703,987.0967741935484" fill="#000000"/></svg></svg>