<svg xmlns="http://www.w3.org/2000/svg" viewBox="0 0 1000 1000" style="background-color: rgb(0, 0, 0); width: 1000px; height: 1000px;"><svg viewBox="0 0 1000 1000" class="undefined" style="width: 1000px; height: 1000px;">
        <defs>
            <linearGradient id="backgroundGradient" gradientTransform="rotate(90)">
                <stop offset="0%" stop-color="rgba(44, 192, 22, 1)"/>
                <stop offset="100%" stop-color="rgba(57, 94, 103, 1)"/>

            </linearGradient>
        </defs>
    <polygon points="820,957.9285714285714 820,228.57142857142858 874,235.32142857142858 874,964.6785714285714" fill="url('#backgroundGradient')"/><polygon points="874,235.32142857142858 820,228.57142857142858 874,228.57142857142858 928,235.32142857142858" fill="rgba(43, 193, 21, 1)"/><polygon points="874,971.4285714285714 874,235.32142857142858 928,235.32142857142858 928,971.4285714285714" fill="#000000"/><polygon points="762.8571428571429,957.9285714285714 762.8571428571429,514.2857142857143 816.8571428571429,521.0357142857143 816.8571428571429,964.6785714285714" fill="url('#backgroundGradient')"/><polygon points="816.8571428571429,521.0357142857143 762.8571428571429,514.2857142857143 816.8571428571429,514.2857142857143 870.8571428571429,521.0357142857143" fill="rgba(42, 185, 50, 1)"/><polygon points="816.8571428571429,971.4285714285714 816.8571428571429,521.0357142857143 870.8571428571429,521.0357142857143 870.8571428571429,971.4285714285714" fill="#000000"/><polygon points="705.7142857142858,957.9285714285714 705.7142857142858,171.42857142857144 759.7142857142858,178.17857142857144 759.7142857142858,964.6785714285714" fill="url('#backgroundGradient')"/><polygon points="759.7142857142858,178.17857142857144 705.7142857142858,171.42857142857144 759.7142857142858,171.42857142857144 813.7142857142858,178.17857142857144" fill="rgba(44, 192, 22, 1)"/><polygon points="759.7142857142858,971.4285714285714 759.7142857142858,178.17857142857144 813.7142857142858,178.17857142857144 813.7142857142858,971.4285714285714" fill="#000000"/><polygon points="648.5714285714287,957.9285714285714 648.5714285714287,628.5714285714286 702.5714285714287,635.3214285714286 702.5714285714287,964.6785714285714" fill="url('#backgroundGradient')"/><polygon points="702.5714285714287,635.3214285714286 648.5714285714287,628.5714285714286 702.5714285714287,628.5714285714286 756.5714285714287,635.3214285714286" fill="rgba(40, 181, 62, 1)"/><polygon points="702.5714285714287,971.4285714285714 702.5714285714287,635.3214285714286 756.5714285714287,635.3214285714286 756.5714285714287,971.4285714285714" fill="#000000"/><polygon points="591.4285714285716,957.9285714285714 591.4285714285716,514.2857142857143 645.4285714285716,521.0357142857143 645.4285714285716,964.6785714285714" fill="url('#backgroundGradient')"/><polygon points="645.4285714285716,521.0357142857143 591.4285714285716,514.2857142857143 645.4285714285716,514.2857142857143 699.4285714285716,521.0357142857143" fill="rgba(42, 185, 50, 1)"/><polygon points="645.4285714285716,971.4285714285714 645.4285714285716,521.0357142857143 699.4285714285716,521.0357142857143 699.4285714285716,971.4285714285714" fill="#000000"/><polygon points="534.2857142857144,957.9285714285714 534.2857142857144,571.4285714285714 588.2857142857144,578.1785714285714 588.2857142857144,964.6785714285714" fill="url('#backgroundGradient')"/><polygon points="588.2857142857144,578.1785714285714 534.2857142857144,571.4285714285714 588.2857142857144,571.4285714285714 642.2857142857144,578.1785714285714" fill="rgba(42, 183, 57, 1)"/><polygon points="588.2857142857144,971.4285714285714 588.2857142857144,578.1785714285714 642.2857142857144,578.1785714285714 642.2857142857144,971.4285714285714" fill="#000000"/><polygon points="477.1428571428573,957.9285714285714 477.1428571428573,685.7142857142858 531.1428571428573,692.4642857142858 531.1428571428573,964.6785714285714" fill="url('#backgroundGradient')"/><polygon points="531.1428571428573,692.4642857142858 477.14285714285734,685.7142857142858 531.1428571428573,685.7142857142858 585.1428571428573,692.4642857142858" fill="rgba(40, 179, 69, 1)"/><polygon points="531.1428571428573,971.4285714285714 531.1428571428573,692.4642857142858 585.1428571428573,692.4642857142858 585.1428571428573,971.4285714285714" fill="#000000"/><polygon points="420.0000000000001,957.9285714285714 420.0000000000001,514.2857142857143 474.0000000000001,521.0357142857143 474.0000000000001,964.6785714285714" fill="url('#backgroundGradient')"/><polygon points="474.0000000000001,521.0357142857143 420.0000000000001,514.2857142857143 474.0000000000001,514.2857142857143 528.0000000000001,521.0357142857143" fill="rgba(42, 185, 50, 1)"/><polygon points="474.0000000000001,971.4285714285714 474.0000000000001,521.0357142857143 528.0000000000001,521.0357142857143 528.0000000000001,971.4285714285714" fill="#000000"/><polygon points="362.85714285714295,957.9285714285714 362.85714285714295,685.7142857142858 416.85714285714295,692.4642857142858 416.85714285714295,964.6785714285714" fill="url('#backgroundGradient')"/><polygon points="416.85714285714295,692.4642857142858 362.85714285714295,685.7142857142858 416.85714285714295,685.7142857142858 470.85714285714295,692.4642857142858" fill="rgba(40, 179, 69, 1)"/><polygon points="416.85714285714295,971.4285714285714 416.85714285714295,692.4642857142858 470.85714285714295,692.4642857142858 470.85714285714295,971.4285714285714" fill="#000000"/><polygon points="305.7142857142858,957.9285714285714 305.7142857142858,342.8571428571429 359.7142857142858,349.6071428571429 359.7142857142858,964.6785714285714" fill="url('#backgroundGradient')"/><polygon points="359.7142857142858,349.6071428571429 305.7142857142858,342.8571428571429 359.7142857142858,342.8571428571429 413.7142857142858,349.6071428571429" fill="rgba(42, 189, 32, 1)"/><polygon points="359.7142857142858,971.4285714285714 359.7142857142858,349.6071428571429 413.7142857142858,349.6071428571429 413.7142857142858,971.4285714285714" fill="#000000"/><polygon points="248.5714285714286,957.9285714285714 248.5714285714286,685.7142857142858 302.5714285714286,692.4642857142858 302.5714285714286,964.6785714285714" fill="url('#backgroundGradient')"/><polygon points="302.5714285714286,692.4642857142858 248.5714285714286,685.7142857142858 302.5714285714286,685.7142857142858 356.5714285714286,692.4642857142858" fill="rgba(40, 179, 69, 1)"/><polygon points="302.5714285714286,971.4285714285714 302.5714285714286,692.4642857142858 356.5714285714286,692.4642857142858 356.5714285714286,971.4285714285714" fill="#000000"/><polygon points="191.42857142857147,957.9285714285714 191.42857142857147,228.57142857142858 245.42857142857147,235.32142857142858 245.42857142857147,964.6785714285714" fill="url('#backgroundGradient')"/><polygon points="245.42857142857147,235.32142857142858 191.42857142857147,228.57142857142858 245.42857142857147,228.57142857142858 299.42857142857144,235.32142857142858" fill="rgba(43, 193, 21, 1)"/><polygon points="245.42857142857147,971.4285714285714 245.42857142857147,235.32142857142858 299.42857142857144,235.32142857142858 299.42857142857144,971.4285714285714" fill="#000000"/><polygon points="134.28571428571433,957.9285714285714 134.28571428571433,171.42857142857144 188.28571428571433,178.17857142857144 188.28571428571433,964.6785714285714" fill="url('#backgroundGradient')"/><polygon points="188.28571428571433,178.17857142857144 134.28571428571433,171.42857142857144 188.28571428571433,171.42857142857144 242.28571428571433,178.17857142857144" fill="rgba(44, 192, 22, 1)"/><polygon points="188.28571428571433,971.4285714285714 188.28571428571433,178.17857142857144 242.28571428571433,178.17857142857144 242.28571428571433,971.4285714285714" fill="#000000"/><polygon points="77.1428571428572,957.9285714285714 77.1428571428572,457.14285714285717 131.1428571428572,463.89285714285717 131.1428571428572,964.6785714285714" fill="url('#backgroundGradient')"/><polygon points="131.1428571428572,463.89285714285717 77.1428571428572,457.14285714285717 131.1428571428572,457.14285714285717 185.1428571428572,463.89285714285717" fill="rgba(42, 187, 43, 1)"/><polygon points="131.1428571428572,971.4285714285714 131.1428571428572,463.89285714285717 185.1428571428572,463.89285714285717 185.1428571428572,971.4285714285714" fill="#000000"/></svg></svg>