<svg xmlns="http://www.w3.org/2000/svg" viewBox="0 0 1000 1000" style="background-color: rgb(255, 255, 255); width: 1000px; height: 1000px;"><svg viewBox="0 0 1000 1000" class="undefined" style="width: 1000px; height: 1000px;">
        <defs>
            <linearGradient id="backgroundGradient" gradientTransform="rotate(90)">
                <stop offset="0%" stop-color="rgba(243, 198, 119, 1)"/>
                <stop offset="100%" stop-color="rgba(14, 10, 63, 1)"/>

            </linearGradient>
        </defs>
    <polygon points="848,946.8181818181819 848,363.6363636363637 883,381.1363636363637 883,964.3181818181819" fill="url('#backgroundGradient')"/><polygon points="883,381.1363636363637 848,363.6363636363637 883,363.6363636363637 918,381.1363636363637" fill="rgba(243, 186, 114, 1)"/><polygon points="883,981.8181818181819 883,381.1363636363637 918,381.1363636363637 918,981.8181818181819" fill="#ffffff"/><polygon points="811.6363636363636,946.8181818181819 811.6363636363636,290.90909090909093 846.6363636363636,308.40909090909093 846.6363636363636,964.3181818181819" fill="url('#backgroundGradient')"/><polygon points="846.6363636363636,308.40909090909093 811.6363636363636,290.90909090909093 846.6363636363636,290.90909090909093 881.6363636363636,308.40909090909093" fill="rgba(243, 195, 118, 1)"/><polygon points="846.6363636363636,981.8181818181819 846.6363636363636,308.40909090909093 881.6363636363636,308.40909090909093 881.6363636363636,981.8181818181819" fill="#ffffff"/><polygon points="775.2727272727273,946.8181818181819 775.2727272727273,218.1818181818182 810.2727272727273,235.6818181818182 810.2727272727273,964.3181818181819" fill="url('#backgroundGradient')"/><polygon points="810.2727272727273,235.6818181818182 775.2727272727273,218.1818181818182 810.2727272727273,218.1818181818182 845.2727272727273,235.6818181818182" fill="rgba(243, 198, 119, 1)"/><polygon points="810.2727272727273,981.8181818181819 810.2727272727273,235.6818181818182 845.2727272727273,235.6818181818182 845.2727272727273,981.8181818181819" fill="#ffffff"/><polygon points="738.9090909090909,946.8181818181819 738.9090909090909,363.6363636363637 773.9090909090909,381.1363636363637 773.9090909090909,964.3181818181819" fill="url('#backgroundGradient')"/><polygon points="773.9090909090909,381.1363636363637 738.9090909090909,363.6363636363637 773.9090909090909,363.6363636363637 808.9090909090909,381.1363636363637" fill="rgba(243, 186, 114, 1)"/><polygon points="773.9090909090909,981.8181818181819 773.9090909090909,381.1363636363637 808.9090909090909,381.1363636363637 808.9090909090909,981.8181818181819" fill="#ffffff"/><polygon points="702.5454545454545,946.8181818181819 702.5454545454545,727.2727272727274 737.5454545454545,744.7727272727274 737.5454545454545,964.3181818181819" fill="url('#backgroundGradient')"/><polygon points="737.5454545454545,744.7727272727274 702.5454545454545,727.2727272727274 737.5454545454545,727.2727272727274 772.5454545454545,744.7727272727274" fill="rgba(246, 132, 95, 1)"/><polygon points="737.5454545454545,981.8181818181819 737.5454545454545,744.7727272727274 772.5454545454545,744.7727272727274 772.5454545454545,981.8181818181819" fill="#ffffff"/><polygon points="666.1818181818181,946.8181818181819 666.1818181818181,254.54545454545456 701.1818181818181,272.04545454545456 701.1818181818181,964.3181818181819" fill="url('#backgroundGradient')"/><polygon points="701.1818181818181,272.04545454545456 666.1818181818181,254.54545454545456 701.1818181818181,254.54545454545456 736.1818181818181,272.04545454545456" fill="rgba(243, 198, 119, 1)"/><polygon points="701.1818181818181,981.8181818181819 701.1818181818181,272.04545454545456 736.1818181818181,272.04545454545456 736.1818181818181,981.8181818181819" fill="#ffffff"/><polygon points="629.8181818181818,946.8181818181819 629.8181818181818,327.2727272727273 664.8181818181818,344.7727272727273 664.8181818181818,964.3181818181819" fill="url('#backgroundGradient')"/><polygon points="664.8181818181818,344.7727272727273 629.8181818181818,327.2727272727273 664.8181818181818,327.2727272727273 699.8181818181818,344.7727272727273" fill="rgba(243, 190, 116, 1)"/><polygon points="664.8181818181818,981.8181818181819 664.8181818181818,344.7727272727273 699.8181818181818,344.7727272727273 699.8181818181818,981.8181818181819" fill="#ffffff"/><polygon points="593.4545454545454,946.8181818181819 593.4545454545454,327.2727272727273 628.4545454545454,344.7727272727273 628.4545454545454,964.3181818181819" fill="url('#backgroundGradient')"/><polygon points="628.4545454545454,344.7727272727273 593.4545454545454,327.2727272727273 628.4545454545454,327.2727272727273 663.4545454545454,344.7727272727273" fill="rgba(243, 190, 116, 1)"/><polygon points="628.4545454545454,981.8181818181819 628.4545454545454,344.7727272727273 663.4545454545454,344.7727272727273 663.4545454545454,981.8181818181819" fill="#ffffff"/><polygon points="557.090909090909,946.8181818181819 557.090909090909,581.8181818181819 592.090909090909,599.3181818181819 592.090909090909,964.3181818181819" fill="url('#backgroundGradient')"/><polygon points="592.090909090909,599.3181818181819 557.090909090909,581.8181818181819 592.090909090909,581.8181818181819 627.090909090909,599.3181818181819" fill="rgba(245, 151, 102, 1)"/><polygon points="592.090909090909,981.8181818181819 592.090909090909,599.3181818181819 627.090909090909,599.3181818181819 627.090909090909,981.8181818181819" fill="#ffffff"/><polygon points="520.7272727272726,946.8181818181819 520.7272727272726,363.6363636363637 555.7272727272726,381.1363636363637 555.7272727272726,964.3181818181819" fill="url('#backgroundGradient')"/><polygon points="555.7272727272726,381.1363636363637 520.7272727272726,363.6363636363637 555.7272727272726,363.6363636363637 590.7272727272726,381.1363636363637" fill="rgba(243, 186, 114, 1)"/><polygon points="555.7272727272726,981.8181818181819 555.7272727272726,381.1363636363637 590.7272727272726,381.1363636363637 590.7272727272726,981.8181818181819" fill="#ffffff"/><polygon points="484.36363636363626,946.8181818181819 484.36363636363626,363.6363636363637 519.3636363636363,381.1363636363637 519.3636363636363,964.3181818181819" fill="url('#backgroundGradient')"/><polygon points="519.3636363636363,381.1363636363637 484.36363636363626,363.6363636363637 519.3636363636363,363.6363636363637 554.3636363636363,381.1363636363637" fill="rgba(243, 186, 114, 1)"/><polygon points="519.3636363636363,981.8181818181819 519.3636363636363,381.1363636363637 554.3636363636363,381.1363636363637 554.3636363636363,981.8181818181819" fill="#ffffff"/><polygon points="447.9999999999999,946.8181818181819 447.9999999999999,254.54545454545456 482.9999999999999,272.04545454545456 482.9999999999999,964.3181818181819" fill="url('#backgroundGradient')"/><polygon points="482.9999999999999,272.04545454545456 447.9999999999999,254.54545454545456 482.9999999999999,254.54545454545456 517.9999999999999,272.04545454545456" fill="rgba(243, 198, 119, 1)"/><polygon points="482.9999999999999,981.8181818181819 482.9999999999999,272.04545454545456 517.9999999999999,272.04545454545456 517.9999999999999,981.8181818181819" fill="#ffffff"/><polygon points="411.6363636363635,946.8181818181819 411.6363636363635,363.6363636363637 446.6363636363635,381.1363636363637 446.6363636363635,964.3181818181819" fill="url('#backgroundGradient')"/><polygon points="446.6363636363635,381.1363636363637 411.6363636363635,363.6363636363637 446.6363636363635,363.6363636363637 481.6363636363635,381.1363636363637" fill="rgba(243, 186, 114, 1)"/><polygon points="446.6363636363635,981.8181818181819 446.6363636363635,381.1363636363637 481.6363636363635,381.1363636363637 481.6363636363635,981.8181818181819" fill="#ffffff"/><polygon points="375.27272727272714,946.8181818181819 375.27272727272714,400.00000000000006 410.27272727272714,417.50000000000006 410.27272727272714,964.3181818181819" fill="url('#backgroundGradient')"/><polygon points="410.27272727272714,417.50000000000006 375.27272727272714,400.00000000000006 410.27272727272714,400.00000000000006 445.27272727272714,417.50000000000006" fill="rgba(243, 180, 112, 1)"/><polygon points="410.27272727272714,981.8181818181819 410.27272727272714,417.50000000000006 445.27272727272714,417.50000000000006 445.27272727272714,981.8181818181819" fill="#ffffff"/><polygon points="338.90909090909076,946.8181818181819 338.90909090909076,290.90909090909093 373.90909090909076,308.40909090909093 373.90909090909076,964.3181818181819" fill="url('#backgroundGradient')"/><polygon points="373.90909090909076,308.40909090909093 338.90909090909076,290.90909090909093 373.90909090909076,290.90909090909093 408.90909090909076,308.40909090909093" fill="rgba(243, 195, 118, 1)"/><polygon points="373.90909090909076,981.8181818181819 373.90909090909076,308.40909090909093 408.90909090909076,308.40909090909093 408.90909090909076,981.8181818181819" fill="#ffffff"/><polygon points="302.5454545454544,946.8181818181819 302.5454545454544,581.8181818181819 337.5454545454544,599.3181818181819 337.5454545454544,964.3181818181819" fill="url('#backgroundGradient')"/><polygon points="337.5454545454544,599.3181818181819 302.5454545454544,581.8181818181819 337.5454545454544,581.8181818181819 372.5454545454544,599.3181818181819" fill="rgba(245, 151, 102, 1)"/><polygon points="337.5454545454544,981.8181818181819 337.5454545454544,599.3181818181819 372.5454545454544,599.3181818181819 372.5454545454544,981.8181818181819" fill="#ffffff"/><polygon points="266.181818181818,946.8181818181819 266.181818181818,363.6363636363637 301.181818181818,381.1363636363637 301.181818181818,964.3181818181819" fill="url('#backgroundGradient')"/><polygon points="301.181818181818,381.1363636363637 266.181818181818,363.6363636363637 301.181818181818,363.6363636363637 336.181818181818,381.1363636363637" fill="rgba(243, 186, 114, 1)"/><polygon points="301.181818181818,981.8181818181819 301.181818181818,381.1363636363637 336.181818181818,381.1363636363637 336.181818181818,981.8181818181819" fill="#ffffff"/><polygon points="229.81818181818164,946.8181818181819 229.81818181818164,327.2727272727273 264.81818181818164,344.7727272727273 264.81818181818164,964.3181818181819" fill="url('#backgroundGradient')"/><polygon points="264.81818181818164,344.7727272727273 229.81818181818164,327.2727272727273 264.81818181818164,327.2727272727273 299.81818181818164,344.7727272727273" fill="rgba(243, 190, 116, 1)"/><polygon points="264.81818181818164,981.8181818181819 264.81818181818164,344.7727272727273 299.81818181818164,344.7727272727273 299.81818181818164,981.8181818181819" fill="#ffffff"/><polygon points="193.45454545454527,946.8181818181819 193.45454545454527,145.45454545454547 228.45454545454527,162.95454545454547 228.45454545454527,964.3181818181819" fill="url('#backgroundGradient')"/><polygon points="228.45454545454527,162.95454545454547 193.45454545454527,145.45454545454547 228.45454545454527,145.45454545454547 263.45454545454527,162.95454545454547" fill="rgba(243, 198, 119, 1)"/><polygon points="228.45454545454527,981.8181818181819 228.45454545454527,162.95454545454547 263.45454545454527,162.95454545454547 263.45454545454527,981.8181818181819" fill="#ffffff"/><polygon points="157.0909090909089,946.8181818181819 157.0909090909089,327.2727272727273 192.0909090909089,344.7727272727273 192.0909090909089,964.3181818181819" fill="url('#backgroundGradient')"/><polygon points="192.0909090909089,344.7727272727273 157.0909090909089,327.2727272727273 192.0909090909089,327.2727272727273 227.0909090909089,344.7727272727273" fill="rgba(243, 190, 116, 1)"/><polygon points="192.0909090909089,981.8181818181819 192.0909090909089,344.7727272727273 227.0909090909089,344.7727272727273 227.0909090909089,981.8181818181819" fill="#ffffff"/><polygon points="120.72727272727252,946.8181818181819 120.72727272727252,400.00000000000006 155.72727272727252,417.50000000000006 155.72727272727252,964.3181818181819" fill="url('#backgroundGradient')"/><polygon points="155.72727272727252,417.50000000000006 120.72727272727252,400.00000000000006 155.72727272727252,400.00000000000006 190.72727272727252,417.50000000000006" fill="rgba(243, 180, 112, 1)"/><polygon points="155.72727272727252,981.8181818181819 155.72727272727252,417.50000000000006 190.72727272727252,417.50000000000006 190.72727272727252,981.8181818181819" fill="#ffffff"/><polygon points="84.36363636363615,946.8181818181819 84.36363636363615,545.4545454545455 119.36363636363615,562.9545454545455 119.36363636363615,964.3181818181819" fill="url('#backgroundGradient')"/><polygon points="119.36363636363615,562.9545454545455 84.36363636363615,545.4545454545455 119.36363636363615,545.4545454545455 154.36363636363615,562.9545454545455" fill="rgba(245, 156, 104, 1)"/><polygon points="119.36363636363615,981.8181818181819 119.36363636363615,562.9545454545455 154.36363636363615,562.9545454545455 154.36363636363615,981.8181818181819" fill="#ffffff"/></svg></svg>