<svg xmlns="http://www.w3.org/2000/svg" viewBox="0 0 1000 1000" style="background-color: rgb(0, 0, 0);"><svg viewBox="0 0 1000 1000" class="undefined">
        <defs>
            <linearGradient id="backgroundGradient" gradientTransform="rotate(90)">
                <stop offset="0%" stop-color="rgba(129, 247, 229, 1)"/>
                <stop offset="100%" stop-color="rgba(222, 198, 228, 1)"/>

            </linearGradient>
        </defs>
    <polygon points="882.5,957.1428571428571 882.5,462.8571428571429 927.5,477.8571428571429 927.5,972.1428571428571" fill="url('#backgroundGradient')"/><polygon points="927.5,477.8571428571429 882.5,462.8571428571429 927.5,462.8571428571429 972.5,477.8571428571429" fill="rgba(138, 247, 235, 1)"/><polygon points="927.5,987.1428571428571 927.5,477.8571428571429 972.5,477.8571428571429 972.5,987.1428571428571" fill="#000000"/><polygon points="856.7857142857143,957.1428571428571 856.7857142857143,771.4285714285714 901.7857142857143,786.4285714285714 901.7857142857143,972.1428571428571" fill="url('#backgroundGradient')"/><polygon points="901.7857142857143,786.4285714285714 856.7857142857143,771.4285714285714 901.7857142857143,771.4285714285714 946.7857142857143,786.4285714285714" fill="rgba(156, 248, 244, 1)"/><polygon points="901.7857142857143,987.1428571428571 901.7857142857143,786.4285714285714 946.7857142857143,786.4285714285714 946.7857142857143,987.1428571428571" fill="#000000"/><polygon points="831.0714285714287,957.1428571428571 831.0714285714287,771.4285714285714 876.0714285714287,786.4285714285714 876.0714285714287,972.1428571428571" fill="url('#backgroundGradient')"/><polygon points="876.0714285714287,786.4285714285714 831.0714285714287,771.4285714285714 876.0714285714287,771.4285714285714 921.0714285714287,786.4285714285714" fill="rgba(156, 248, 244, 1)"/><polygon points="876.0714285714287,987.1428571428571 876.0714285714287,786.4285714285714 921.0714285714287,786.4285714285714 921.0714285714287,987.1428571428571" fill="#000000"/><polygon points="805.357142857143,957.1428571428571 805.357142857143,231.42857142857144 850.357142857143,246.42857142857144 850.357142857143,972.1428571428571" fill="url('#backgroundGradient')"/><polygon points="850.357142857143,246.42857142857144 805.357142857143,231.42857142857144 850.357142857143,231.42857142857144 895.357142857143,246.42857142857144" fill="rgba(129, 247, 229, 1)"/><polygon points="850.357142857143,987.1428571428571 850.357142857143,246.42857142857144 895.357142857143,246.42857142857144 895.357142857143,987.1428571428571" fill="#000000"/><polygon points="779.6428571428573,957.1428571428571 779.6428571428573,848.5714285714286 824.6428571428573,863.5714285714286 824.6428571428573,972.1428571428571" fill="url('#backgroundGradient')"/><polygon points="824.6428571428573,863.5714285714286 779.6428571428573,848.5714285714286 824.6428571428573,848.5714285714286 869.6428571428573,863.5714285714286" fill="rgba(160, 248, 246, 1)"/><polygon points="824.6428571428573,987.1428571428571 824.6428571428573,863.5714285714286 869.6428571428573,863.5714285714286 869.6428571428573,987.1428571428571" fill="#000000"/><polygon points="753.9285714285717,957.1428571428571 753.9285714285717,565.7142857142858 798.9285714285717,580.7142857142858 798.9285714285717,972.1428571428571" fill="url('#backgroundGradient')"/><polygon points="798.9285714285717,580.7142857142858 753.9285714285717,565.7142857142858 798.9285714285717,565.7142857142858 843.9285714285717,580.7142857142858" fill="rgba(144, 247, 237, 1)"/><polygon points="798.9285714285717,987.1428571428571 798.9285714285717,580.7142857142858 843.9285714285717,580.7142857142858 843.9285714285717,987.1428571428571" fill="#000000"/><polygon points="728.214285714286,957.1428571428571 728.214285714286,514.2857142857143 773.214285714286,529.2857142857143 773.214285714286,972.1428571428571" fill="url('#backgroundGradient')"/><polygon points="773.214285714286,529.2857142857143 728.214285714286,514.2857142857143 773.214285714286,514.2857142857143 818.214285714286,529.2857142857143" fill="rgba(142, 247, 236, 1)"/><polygon points="773.214285714286,987.1428571428571 773.214285714286,529.2857142857143 818.214285714286,529.2857142857143 818.214285714286,987.1428571428571" fill="#000000"/><polygon points="702.5000000000003,957.1428571428571 702.5000000000003,745.7142857142858 747.5000000000003,760.7142857142858 747.5000000000003,972.1428571428571" fill="url('#backgroundGradient')"/><polygon points="747.5000000000003,760.7142857142858 702.5000000000003,745.7142857142858 747.5000000000003,745.7142857142858 792.5000000000003,760.7142857142858" fill="rgba(154, 248, 243, 1)"/><polygon points="747.5000000000003,987.1428571428571 747.5000000000003,760.7142857142858 792.5000000000003,760.7142857142858 792.5000000000003,987.1428571428571" fill="#000000"/><polygon points="676.7857142857147,957.1428571428571 676.7857142857147,797.1428571428572 721.7857142857147,812.1428571428572 721.7857142857147,972.1428571428571" fill="url('#backgroundGradient')"/><polygon points="721.7857142857147,812.1428571428572 676.7857142857147,797.1428571428572 721.7857142857147,797.1428571428572 766.7857142857147,812.1428571428572" fill="rgba(156, 248, 244, 1)"/><polygon points="721.7857142857147,987.1428571428571 721.7857142857147,812.1428571428572 766.7857142857147,812.1428571428572 766.7857142857147,987.1428571428571" fill="#000000"/><polygon points="651.071428571429,957.1428571428571 651.071428571429,822.8571428571429 696.071428571429,837.8571428571429 696.071428571429,972.1428571428571" fill="url('#backgroundGradient')"/><polygon points="696.071428571429,837.8571428571429 651.071428571429,822.8571428571429 696.071428571429,822.8571428571429 741.071428571429,837.8571428571429" fill="rgba(158, 248, 245, 1)"/><polygon points="696.071428571429,987.1428571428571 696.071428571429,837.8571428571429 741.071428571429,837.8571428571429 741.071428571429,987.1428571428571" fill="#000000"/><polygon points="625.3571428571433,957.1428571428571 625.3571428571433,257.14285714285717 670.3571428571433,272.14285714285717 670.3571428571433,972.1428571428571" fill="url('#backgroundGradient')"/><polygon points="670.3571428571433,272.14285714285717 625.3571428571433,257.14285714285717 670.3571428571433,257.14285714285717 715.3571428571433,272.14285714285717" fill="rgba(129, 247, 229, 1)"/><polygon points="670.3571428571433,987.1428571428571 670.3571428571433,272.14285714285717 715.3571428571433,272.14285714285717 715.3571428571433,987.1428571428571" fill="#000000"/><polygon points="599.6428571428577,957.1428571428571 599.6428571428577,360 644.6428571428577,375 644.6428571428577,972.1428571428571" fill="url('#backgroundGradient')"/><polygon points="644.6428571428577,375 599.6428571428577,360 644.6428571428577,360 689.6428571428577,375" fill="rgba(133, 247, 231, 1)"/><polygon points="644.6428571428577,987.1428571428571 644.6428571428577,375 689.6428571428577,375 689.6428571428577,987.1428571428571" fill="#000000"/><polygon points="573.928571428572,957.1428571428571 573.928571428572,308.57142857142856 618.928571428572,323.57142857142856 618.928571428572,972.1428571428571" fill="url('#backgroundGradient')"/><polygon points="618.928571428572,323.57142857142856 573.928571428572,308.57142857142856 618.928571428572,308.57142857142856 663.928571428572,323.57142857142856" fill="rgba(132, 247, 230, 1)"/><polygon points="618.928571428572,987.1428571428571 618.928571428572,323.57142857142856 663.928571428572,323.57142857142856 663.928571428572,987.1428571428571" fill="#000000"/><polygon points="548.2142857142863,957.1428571428571 548.2142857142863,848.5714285714286 593.2142857142863,863.5714285714286 593.2142857142863,972.1428571428571" fill="url('#backgroundGradient')"/><polygon points="593.2142857142863,863.5714285714286 548.2142857142863,848.5714285714286 593.2142857142863,848.5714285714286 638.2142857142863,863.5714285714286" fill="rgba(160, 248, 246, 1)"/><polygon points="593.2142857142863,987.1428571428571 593.2142857142863,863.5714285714286 638.2142857142863,863.5714285714286 638.2142857142863,987.1428571428571" fill="#000000"/><polygon points="522.5000000000007,957.1428571428571 522.5000000000007,745.7142857142858 567.5000000000007,760.7142857142858 567.5000000000007,972.1428571428571" fill="url('#backgroundGradient')"/><polygon points="567.5000000000007,760.7142857142858 522.5000000000007,745.7142857142858 567.5000000000007,745.7142857142858 612.5000000000007,760.7142857142858" fill="rgba(154, 248, 243, 1)"/><polygon points="567.5000000000007,987.1428571428571 567.5000000000007,760.7142857142858 612.5000000000007,760.7142857142858 612.5000000000007,987.1428571428571" fill="#000000"/><polygon points="496.785714285715,957.1428571428571 496.785714285715,231.42857142857144 541.785714285715,246.42857142857144 541.785714285715,972.1428571428571" fill="url('#backgroundGradient')"/><polygon points="541.785714285715,246.42857142857144 496.785714285715,231.42857142857144 541.785714285715,231.42857142857144 586.785714285715,246.42857142857144" fill="rgba(129, 247, 229, 1)"/><polygon points="541.785714285715,987.1428571428571 541.785714285715,246.42857142857144 586.785714285715,246.42857142857144 586.785714285715,987.1428571428571" fill="#000000"/><polygon points="471.0714285714293,957.1428571428571 471.0714285714293,745.7142857142858 516.0714285714294,760.7142857142858 516.0714285714294,972.1428571428571" fill="url('#backgroundGradient')"/><polygon points="516.0714285714294,760.7142857142858 471.07142857142935,745.7142857142858 516.0714285714294,745.7142857142858 561.0714285714294,760.7142857142858" fill="rgba(154, 248, 243, 1)"/><polygon points="516.0714285714294,987.1428571428571 516.0714285714294,760.7142857142858 561.0714285714294,760.7142857142858 561.0714285714294,987.1428571428571" fill="#000000"/><polygon points="445.3571428571436,957.1428571428571 445.3571428571436,334.2857142857143 490.3571428571436,349.2857142857143 490.3571428571436,972.1428571428571" fill="url('#backgroundGradient')"/><polygon points="490.3571428571436,349.2857142857143 445.3571428571436,334.2857142857143 490.3571428571436,334.2857142857143 535.3571428571436,349.2857142857143" fill="rgba(133, 247, 231, 1)"/><polygon points="490.3571428571436,987.1428571428571 490.3571428571436,349.2857142857143 535.3571428571436,349.2857142857143 535.3571428571436,987.1428571428571" fill="#000000"/><polygon points="419.64285714285785,957.1428571428571 419.64285714285785,668.5714285714286 464.64285714285785,683.5714285714286 464.64285714285785,972.1428571428571" fill="url('#backgroundGradient')"/><polygon points="464.64285714285785,683.5714285714286 419.64285714285785,668.5714285714286 464.64285714285785,668.5714285714286 509.64285714285785,683.5714285714286" fill="rgba(151, 248, 241, 1)"/><polygon points="464.64285714285785,987.1428571428571 464.64285714285785,683.5714285714286 509.64285714285785,683.5714285714286 509.64285714285785,987.1428571428571" fill="#000000"/><polygon points="393.9285714285721,957.1428571428571 393.9285714285721,205.71428571428572 438.9285714285721,220.71428571428572 438.9285714285721,972.1428571428571" fill="url('#backgroundGradient')"/><polygon points="438.9285714285721,220.71428571428572 393.9285714285721,205.71428571428572 438.9285714285721,205.71428571428572 483.9285714285721,220.71428571428572" fill="rgba(129, 247, 229, 1)"/><polygon points="438.9285714285721,987.1428571428571 438.9285714285721,220.71428571428572 483.9285714285721,220.71428571428572 483.9285714285721,987.1428571428571" fill="#000000"/><polygon points="368.2142857142864,957.1428571428571 368.2142857142864,282.8571428571429 413.2142857142864,297.8571428571429 413.2142857142864,972.1428571428571" fill="url('#backgroundGradient')"/><polygon points="413.2142857142864,297.8571428571429 368.2142857142864,282.8571428571429 413.2142857142864,282.8571428571429 458.2142857142864,297.8571428571429" fill="rgba(130, 247, 229, 1)"/><polygon points="413.2142857142864,987.1428571428571 413.2142857142864,297.8571428571429 458.2142857142864,297.8571428571429 458.2142857142864,987.1428571428571" fill="#000000"/><polygon points="342.5000000000007,957.1428571428571 342.5000000000007,720 387.5000000000007,735 387.5000000000007,972.1428571428571" fill="url('#backgroundGradient')"/><polygon points="387.5000000000007,735 342.5000000000007,720 387.5000000000007,720 432.5000000000007,735" fill="rgba(152, 248, 241, 1)"/><polygon points="387.5000000000007,987.1428571428571 387.5000000000007,735 432.5000000000007,735 432.5000000000007,987.1428571428571" fill="#000000"/><polygon points="316.78571428571496,957.1428571428571 316.78571428571496,308.57142857142856 361.78571428571496,323.57142857142856 361.78571428571496,972.1428571428571" fill="url('#backgroundGradient')"/><polygon points="361.78571428571496,323.57142857142856 316.78571428571496,308.57142857142856 361.78571428571496,308.57142857142856 406.78571428571496,323.57142857142856" fill="rgba(132, 247, 230, 1)"/><polygon points="361.78571428571496,987.1428571428571 361.78571428571496,323.57142857142856 406.78571428571496,323.57142857142856 406.78571428571496,987.1428571428571" fill="#000000"/><polygon points="291.07142857142924,957.1428571428571 291.07142857142924,231.42857142857144 336.07142857142924,246.42857142857144 336.07142857142924,972.1428571428571" fill="url('#backgroundGradient')"/><polygon points="336.07142857142924,246.42857142857144 291.07142857142924,231.42857142857144 336.07142857142924,231.42857142857144 381.07142857142924,246.42857142857144" fill="rgba(129, 247, 229, 1)"/><polygon points="336.07142857142924,987.1428571428571 336.07142857142924,246.42857142857144 381.07142857142924,246.42857142857144 381.07142857142924,987.1428571428571" fill="#000000"/><polygon points="265.3571428571435,957.1428571428571 265.3571428571435,565.7142857142858 310.3571428571435,580.7142857142858 310.3571428571435,972.1428571428571" fill="url('#backgroundGradient')"/><polygon points="310.3571428571435,580.7142857142858 265.3571428571435,565.7142857142858 310.3571428571435,565.7142857142858 355.3571428571435,580.7142857142858" fill="rgba(144, 247, 237, 1)"/><polygon points="310.3571428571435,987.1428571428571 310.3571428571435,580.7142857142858 355.3571428571435,580.7142857142858 355.3571428571435,987.1428571428571" fill="#000000"/><polygon points="239.6428571428578,957.1428571428571 239.6428571428578,797.1428571428572 284.6428571428578,812.1428571428572 284.6428571428578,972.1428571428571" fill="url('#backgroundGradient')"/><polygon points="284.6428571428578,812.1428571428572 239.6428571428578,797.1428571428572 284.6428571428578,797.1428571428572 329.6428571428578,812.1428571428572" fill="rgba(156, 248, 244, 1)"/><polygon points="284.6428571428578,987.1428571428571 284.6428571428578,812.1428571428572 329.6428571428578,812.1428571428572 329.6428571428578,987.1428571428571" fill="#000000"/><polygon points="213.92857142857207,957.1428571428571 213.92857142857207,617.1428571428571 258.92857142857207,632.1428571428571 258.92857142857207,972.1428571428571" fill="url('#backgroundGradient')"/><polygon points="258.92857142857207,632.1428571428571 213.92857142857207,617.1428571428571 258.92857142857207,617.1428571428571 303.92857142857207,632.1428571428571" fill="rgba(147, 247, 239, 1)"/><polygon points="258.92857142857207,987.1428571428571 258.92857142857207,632.1428571428571 303.92857142857207,632.1428571428571 303.92857142857207,987.1428571428571" fill="#000000"/><polygon points="188.21428571428635,957.1428571428571 188.21428571428635,591.4285714285714 233.21428571428635,606.4285714285714 233.21428571428635,972.1428571428571" fill="url('#backgroundGradient')"/><polygon points="233.21428571428635,606.4285714285714 188.21428571428635,591.4285714285714 233.21428571428635,591.4285714285714 278.21428571428635,606.4285714285714" fill="rgba(145, 247, 238, 1)"/><polygon points="233.21428571428635,987.1428571428571 233.21428571428635,606.4285714285714 278.21428571428635,606.4285714285714 278.21428571428635,987.1428571428571" fill="#000000"/><polygon points="162.50000000000063,957.1428571428571 162.50000000000063,462.8571428571429 207.50000000000063,477.8571428571429 207.50000000000063,972.1428571428571" fill="url('#backgroundGradient')"/><polygon points="207.50000000000063,477.8571428571429 162.50000000000063,462.8571428571429 207.50000000000063,462.8571428571429 252.50000000000063,477.8571428571429" fill="rgba(138, 247, 235, 1)"/><polygon points="207.50000000000063,987.1428571428571 207.50000000000063,477.8571428571429 252.50000000000063,477.8571428571429 252.50000000000063,987.1428571428571" fill="#000000"/><polygon points="136.7857142857149,957.1428571428571 136.7857142857149,334.2857142857143 181.7857142857149,349.2857142857143 181.7857142857149,972.1428571428571" fill="url('#backgroundGradient')"/><polygon points="181.7857142857149,349.2857142857143 136.7857142857149,334.2857142857143 181.7857142857149,334.2857142857143 226.7857142857149,349.2857142857143" fill="rgba(133, 247, 231, 1)"/><polygon points="181.7857142857149,987.1428571428571 181.7857142857149,349.2857142857143 226.7857142857149,349.2857142857143 226.7857142857149,987.1428571428571" fill="#000000"/><polygon points="111.07142857142918,957.1428571428571 111.07142857142918,308.57142857142856 156.07142857142918,323.57142857142856 156.07142857142918,972.1428571428571" fill="url('#backgroundGradient')"/><polygon points="156.07142857142918,323.57142857142856 111.07142857142918,308.57142857142856 156.07142857142918,308.57142857142856 201.07142857142918,323.57142857142856" fill="rgba(132, 247, 230, 1)"/><polygon points="156.07142857142918,987.1428571428571 156.07142857142918,323.57142857142856 201.07142857142918,323.57142857142856 201.07142857142918,987.1428571428571" fill="#000000"/><polygon points="85.35714285714346,957.1428571428571 85.35714285714346,231.42857142857144 130.35714285714346,246.42857142857144 130.35714285714346,972.1428571428571" fill="url('#backgroundGradient')"/><polygon points="130.35714285714346,246.42857142857144 85.35714285714346,231.42857142857144 130.35714285714346,231.42857142857144 175.35714285714346,246.42857142857144" fill="rgba(129, 247, 229, 1)"/><polygon points="130.35714285714346,987.1428571428571 130.35714285714346,246.42857142857144 175.35714285714346,246.42857142857144 175.35714285714346,987.1428571428571" fill="#000000"/><polygon points="59.642857142857736,957.1428571428571 59.642857142857736,282.8571428571429 104.64285714285774,297.8571428571429 104.64285714285774,972.1428571428571" fill="url('#backgroundGradient')"/><polygon points="104.64285714285774,297.8571428571429 59.642857142857736,282.8571428571429 104.64285714285774,282.8571428571429 149.64285714285774,297.8571428571429" fill="rgba(130, 247, 229, 1)"/><polygon points="104.64285714285774,987.1428571428571 104.64285714285774,297.8571428571429 149.64285714285774,297.8571428571429 149.64285714285774,987.1428571428571" fill="#000000"/><polygon points="33.92857142857202,957.1428571428571 33.92857142857202,745.7142857142858 78.92857142857201,760.7142857142858 78.92857142857201,972.1428571428571" fill="url('#backgroundGradient')"/><polygon points="78.92857142857201,760.7142857142858 33.92857142857201,745.7142857142858 78.92857142857201,745.7142857142858 123.92857142857201,760.7142857142858" fill="rgba(154, 248, 243, 1)"/><polygon points="78.92857142857201,987.1428571428571 78.92857142857201,760.7142857142858 123.92857142857201,760.7142857142858 123.92857142857201,987.1428571428571" fill="#000000"/></svg></svg>