<svg xmlns="http://www.w3.org/2000/svg" viewBox="0 0 1000 1000" style="background-color: rgb(0, 0, 0); width: 1000px; height: 1000px;"><svg viewBox="0 0 1000 1000" class="undefined" style="width: 1000px; height: 1000px;">
        <defs>
            <linearGradient id="backgroundGradient" gradientTransform="rotate(90)">
                <stop offset="0%" stop-color="rgba(249, 87, 56, 1)"/>
                <stop offset="100%" stop-color="rgba(12, 64, 121, 1)"/>

            </linearGradient>
        </defs>
    <polygon points="823.5,911.142857142857 823.5,257.14285714285717 909.5,269.42857142857144 909.5,923.4285714285713" fill="url('#backgroundGradient')"/><polygon points="909.5,269.42857142857144 823.5,257.14285714285717 909.5,257.14285714285717 995.5,269.42857142857144" fill="rgba(249, 87, 56, 1)"/><polygon points="909.5,935.7142857142857 909.5,269.42857142857144 995.5,269.42857142857144 995.5,935.7142857142857" fill="#000000"/><polygon points="694.9285714285714,911.142857142857 694.9285714285714,385.7142857142858 780.9285714285714,398.00000000000006 780.9285714285714,923.4285714285713" fill="url('#backgroundGradient')"/><polygon points="780.9285714285714,398.00000000000006 694.9285714285714,385.7142857142858 780.9285714285714,385.7142857142858 866.9285714285714,398.00000000000006" fill="rgba(247, 96, 58, 1)"/><polygon points="780.9285714285714,935.7142857142857 780.9285714285714,398.00000000000006 866.9285714285714,398.00000000000006 866.9285714285714,935.7142857142857" fill="#000000"/><polygon points="566.3571428571429,911.142857142857 566.3571428571429,642.8571428571429 652.3571428571429,655.1428571428572 652.3571428571429,923.4285714285713" fill="url('#backgroundGradient')"/><polygon points="652.3571428571429,655.1428571428572 566.3571428571429,642.8571428571429 652.3571428571429,642.8571428571429 738.3571428571429,655.1428571428572" fill="rgba(243, 118, 65, 1)"/><polygon points="652.3571428571429,935.7142857142857 652.3571428571429,655.1428571428572 738.3571428571429,655.1428571428572 738.3571428571429,935.7142857142857" fill="#000000"/><polygon points="437.78571428571433,911.142857142857 437.78571428571433,257.14285714285717 523.7857142857143,269.42857142857144 523.7857142857143,923.4285714285713" fill="url('#backgroundGradient')"/><polygon points="523.7857142857143,269.42857142857144 437.78571428571433,257.14285714285717 523.7857142857143,257.14285714285717 609.7857142857143,269.42857142857144" fill="rgba(249, 87, 56, 1)"/><polygon points="523.7857142857143,935.7142857142857 523.7857142857143,269.42857142857144 609.7857142857143,269.42857142857144 609.7857142857143,935.7142857142857" fill="#000000"/><polygon points="309.2142857142858,911.142857142857 309.2142857142858,385.7142857142858 395.2142857142858,398.00000000000006 395.2142857142858,923.4285714285713" fill="url('#backgroundGradient')"/><polygon points="395.2142857142858,398.00000000000006 309.2142857142858,385.7142857142858 395.2142857142858,385.7142857142858 481.2142857142858,398.00000000000006" fill="rgba(247, 96, 58, 1)"/><polygon points="395.2142857142858,935.7142857142857 395.2142857142858,398.00000000000006 481.2142857142858,398.00000000000006 481.2142857142858,935.7142857142857" fill="#000000"/><polygon points="180.6428571428572,911.142857142857 180.6428571428572,642.8571428571429 266.6428571428572,655.1428571428572 266.6428571428572,923.4285714285713" fill="url('#backgroundGradient')"/><polygon points="266.6428571428572,655.1428571428572 180.64285714285722,642.8571428571429 266.6428571428572,642.8571428571429 352.6428571428572,655.1428571428572" fill="rgba(243, 118, 65, 1)"/><polygon points="266.6428571428572,935.7142857142857 266.6428571428572,655.1428571428572 352.6428571428572,655.1428571428572 352.6428571428572,935.7142857142857" fill="#000000"/><polygon points="52.07142857142861,911.142857142857 52.07142857142861,257.14285714285717 138.0714285714286,269.42857142857144 138.0714285714286,923.4285714285713" fill="url('#backgroundGradient')"/><polygon points="138.0714285714286,269.42857142857144 52.07142857142861,257.14285714285717 138.0714285714286,257.14285714285717 224.0714285714286,269.42857142857144" fill="rgba(249, 87, 56, 1)"/><polygon points="138.0714285714286,935.7142857142857 138.0714285714286,269.42857142857144 224.0714285714286,269.42857142857144 224.0714285714286,935.7142857142857" fill="#000000"/></svg></svg>