<svg xmlns="http://www.w3.org/2000/svg" viewBox="0 0 1000 1000" style="background-color: rgb(255, 255, 255); width: 1000px; height: 1000px;"><svg viewBox="0 0 1000 1000" class="undefined" style="width: 1000px; height: 1000px;">
        <defs>
            <linearGradient id="backgroundGradient" gradientTransform="rotate(90)">
                <stop offset="0%" stop-color="rgba(243, 198, 119, 1)"/>
                <stop offset="100%" stop-color="rgba(14, 10, 63, 1)"/>

            </linearGradient>
        </defs>
    <polygon points="831,977.3888888888889 831,400 877,405.75 877,983.1388888888889" fill="url('#backgroundGradient')"/><polygon points="877,405.75 831,400 877,400 923,405.75" fill="rgba(243, 180, 112, 1)"/><polygon points="877,988.8888888888889 877,405.75 923,405.75 923,988.8888888888889" fill="#ffffff"/><polygon points="808.7777777777778,977.3888888888889 808.7777777777778,244.44444444444443 854.7777777777778,250.19444444444443 854.7777777777778,983.1388888888889" fill="url('#backgroundGradient')"/><polygon points="854.7777777777778,250.19444444444443 808.7777777777778,244.44444444444443 854.7777777777778,244.44444444444443 900.7777777777778,250.19444444444443" fill="rgba(243, 198, 119, 1)"/><polygon points="854.7777777777778,988.8888888888889 854.7777777777778,250.19444444444443 900.7777777777778,250.19444444444443 900.7777777777778,988.8888888888889" fill="#ffffff"/><polygon points="786.5555555555557,977.3888888888889 786.5555555555557,666.6666666666666 832.5555555555557,672.4166666666666 832.5555555555557,983.1388888888889" fill="url('#backgroundGradient')"/><polygon points="832.5555555555557,672.4166666666666 786.5555555555557,666.6666666666666 832.5555555555557,666.6666666666666 878.5555555555557,672.4166666666666" fill="rgba(246, 142, 99, 1)"/><polygon points="832.5555555555557,988.8888888888889 832.5555555555557,672.4166666666666 878.5555555555557,672.4166666666666 878.5555555555557,988.8888888888889" fill="#ffffff"/><polygon points="764.3333333333335,977.3888888888889 764.3333333333335,377.77777777777777 810.3333333333335,383.52777777777777 810.3333333333335,983.1388888888889" fill="url('#backgroundGradient')"/><polygon points="810.3333333333335,383.52777777777777 764.3333333333335,377.77777777777777 810.3333333333335,377.77777777777777 856.3333333333335,383.52777777777777" fill="rgba(243, 180, 112, 1)"/><polygon points="810.3333333333335,988.8888888888889 810.3333333333335,383.52777777777777 856.3333333333335,383.52777777777777 856.3333333333335,988.8888888888889" fill="#ffffff"/><polygon points="742.1111111111113,977.3888888888889 742.1111111111113,755.5555555555555 788.1111111111113,761.3055555555555 788.1111111111113,983.1388888888889" fill="url('#backgroundGradient')"/><polygon points="788.1111111111113,761.3055555555555 742.1111111111113,755.5555555555555 788.1111111111113,755.5555555555555 834.1111111111113,761.3055555555555" fill="rgba(247, 127, 94, 1)"/><polygon points="788.1111111111113,988.8888888888889 788.1111111111113,761.3055555555555 834.1111111111113,761.3055555555555 834.1111111111113,988.8888888888889" fill="#ffffff"/><polygon points="719.8888888888891,977.3888888888889 719.8888888888891,244.44444444444443 765.8888888888891,250.19444444444443 765.8888888888891,983.1388888888889" fill="url('#backgroundGradient')"/><polygon points="765.8888888888891,250.19444444444443 719.8888888888891,244.44444444444443 765.8888888888891,244.44444444444443 811.8888888888891,250.19444444444443" fill="rgba(243, 198, 119, 1)"/><polygon points="765.8888888888891,988.8888888888889 765.8888888888891,250.19444444444443 811.8888888888891,250.19444444444443 811.8888888888891,988.8888888888889" fill="#ffffff"/><polygon points="697.666666666667,977.3888888888889 697.666666666667,511.1111111111111 743.666666666667,516.8611111111111 743.666666666667,983.1388888888889" fill="url('#backgroundGradient')"/><polygon points="743.666666666667,516.8611111111111 697.666666666667,511.1111111111111 743.666666666667,511.1111111111111 789.666666666667,516.8611111111111" fill="rgba(244, 161, 105, 1)"/><polygon points="743.666666666667,988.8888888888889 743.666666666667,516.8611111111111 789.666666666667,516.8611111111111 789.666666666667,988.8888888888889" fill="#ffffff"/><polygon points="675.4444444444448,977.3888888888889 675.4444444444448,577.7777777777777 721.4444444444448,583.5277777777777 721.4444444444448,983.1388888888889" fill="url('#backgroundGradient')"/><polygon points="721.4444444444448,583.5277777777777 675.4444444444448,577.7777777777777 721.4444444444448,577.7777777777777 767.4444444444448,583.5277777777777" fill="rgba(245, 151, 102, 1)"/><polygon points="721.4444444444448,988.8888888888889 721.4444444444448,583.5277777777777 767.4444444444448,583.5277777777777 767.4444444444448,988.8888888888889" fill="#ffffff"/><polygon points="653.2222222222226,977.3888888888889 653.2222222222226,288.88888888888886 699.2222222222226,294.63888888888886 699.2222222222226,983.1388888888889" fill="url('#backgroundGradient')"/><polygon points="699.2222222222226,294.63888888888886 653.2222222222226,288.88888888888886 699.2222222222226,288.88888888888886 745.2222222222226,294.63888888888886" fill="rgba(243, 195, 118, 1)"/><polygon points="699.2222222222226,988.8888888888889 699.2222222222226,294.63888888888886 745.2222222222226,294.63888888888886 745.2222222222226,988.8888888888889" fill="#ffffff"/><polygon points="631.0000000000005,977.3888888888889 631.0000000000005,444.44444444444446 677.0000000000005,450.19444444444446 677.0000000000005,983.1388888888889" fill="url('#backgroundGradient')"/><polygon points="677.0000000000005,450.19444444444446 631.0000000000005,444.44444444444446 677.0000000000005,444.44444444444446 723.0000000000005,450.19444444444446" fill="rgba(244, 171, 109, 1)"/><polygon points="677.0000000000005,988.8888888888889 677.0000000000005,450.19444444444446 723.0000000000005,450.19444444444446 723.0000000000005,988.8888888888889" fill="#ffffff"/><polygon points="608.7777777777783,977.3888888888889 608.7777777777783,444.44444444444446 654.7777777777783,450.19444444444446 654.7777777777783,983.1388888888889" fill="url('#backgroundGradient')"/><polygon points="654.7777777777783,450.19444444444446 608.7777777777783,444.44444444444446 654.7777777777783,444.44444444444446 700.7777777777783,450.19444444444446" fill="rgba(244, 171, 109, 1)"/><polygon points="654.7777777777783,988.8888888888889 654.7777777777783,450.19444444444446 700.7777777777783,450.19444444444446 700.7777777777783,988.8888888888889" fill="#ffffff"/><polygon points="586.5555555555561,977.3888888888889 586.5555555555561,311.1111111111111 632.5555555555561,316.8611111111111 632.5555555555561,983.1388888888889" fill="url('#backgroundGradient')"/><polygon points="632.5555555555561,316.8611111111111 586.5555555555561,311.1111111111111 632.5555555555561,311.1111111111111 678.5555555555561,316.8611111111111" fill="rgba(243, 190, 116, 1)"/><polygon points="632.5555555555561,988.8888888888889 632.5555555555561,316.8611111111111 678.5555555555561,316.8611111111111 678.5555555555561,988.8888888888889" fill="#ffffff"/><polygon points="564.3333333333339,977.3888888888889 564.3333333333339,555.5555555555555 610.3333333333339,561.3055555555555 610.3333333333339,983.1388888888889" fill="url('#backgroundGradient')"/><polygon points="610.3333333333339,561.3055555555555 564.3333333333339,555.5555555555555 610.3333333333339,555.5555555555555 656.3333333333339,561.3055555555555" fill="rgba(245, 156, 104, 1)"/><polygon points="610.3333333333339,988.8888888888889 610.3333333333339,561.3055555555555 656.3333333333339,561.3055555555555 656.3333333333339,988.8888888888889" fill="#ffffff"/><polygon points="542.1111111111118,977.3888888888889 542.1111111111118,577.7777777777777 588.1111111111118,583.5277777777777 588.1111111111118,983.1388888888889" fill="url('#backgroundGradient')"/><polygon points="588.1111111111118,583.5277777777777 542.1111111111118,577.7777777777777 588.1111111111118,577.7777777777777 634.1111111111118,583.5277777777777" fill="rgba(245, 151, 102, 1)"/><polygon points="588.1111111111118,988.8888888888889 588.1111111111118,583.5277777777777 634.1111111111118,583.5277777777777 634.1111111111118,988.8888888888889" fill="#ffffff"/><polygon points="519.8888888888896,977.3888888888889 519.8888888888896,288.88888888888886 565.8888888888896,294.63888888888886 565.8888888888896,983.1388888888889" fill="url('#backgroundGradient')"/><polygon points="565.8888888888896,294.63888888888886 519.8888888888896,288.88888888888886 565.8888888888896,288.88888888888886 611.8888888888896,294.63888888888886" fill="rgba(243, 195, 118, 1)"/><polygon points="565.8888888888896,988.8888888888889 565.8888888888896,294.63888888888886 611.8888888888896,294.63888888888886 611.8888888888896,988.8888888888889" fill="#ffffff"/><polygon points="497.6666666666674,977.3888888888889 497.6666666666674,400 543.6666666666674,405.75 543.6666666666674,983.1388888888889" fill="url('#backgroundGradient')"/><polygon points="543.6666666666674,405.75 497.6666666666674,400 543.6666666666674,400 589.6666666666674,405.75" fill="rgba(243, 180, 112, 1)"/><polygon points="543.6666666666674,988.8888888888889 543.6666666666674,405.75 589.6666666666674,405.75 589.6666666666674,988.8888888888889" fill="#ffffff"/><polygon points="475.4444444444452,977.3888888888889 475.4444444444452,600 521.4444444444453,605.75 521.4444444444453,983.1388888888889" fill="url('#backgroundGradient')"/><polygon points="521.4444444444453,605.75 475.44444444444525,600 521.4444444444453,600 567.4444444444453,605.75" fill="rgba(245, 151, 102, 1)"/><polygon points="521.4444444444453,988.8888888888889 521.4444444444453,605.75 567.4444444444453,605.75 567.4444444444453,988.8888888888889" fill="#ffffff"/><polygon points="453.22222222222297,977.3888888888889 453.22222222222297,244.44444444444443 499.22222222222297,250.19444444444443 499.22222222222297,983.1388888888889" fill="url('#backgroundGradient')"/><polygon points="499.22222222222297,250.19444444444443 453.22222222222297,244.44444444444443 499.22222222222297,244.44444444444443 545.222222222223,250.19444444444443" fill="rgba(243, 198, 119, 1)"/><polygon points="499.22222222222297,988.8888888888889 499.22222222222297,250.19444444444443 545.222222222223,250.19444444444443 545.222222222223,988.8888888888889" fill="#ffffff"/><polygon points="431.00000000000074,977.3888888888889 431.00000000000074,466.66666666666663 477.00000000000074,472.41666666666663 477.00000000000074,983.1388888888889" fill="url('#backgroundGradient')"/><polygon points="477.00000000000074,472.41666666666663 431.00000000000074,466.66666666666663 477.00000000000074,466.66666666666663 523.0000000000007,472.41666666666663" fill="rgba(244, 171, 109, 1)"/><polygon points="477.00000000000074,988.8888888888889 477.00000000000074,472.41666666666663 523.0000000000007,472.41666666666663 523.0000000000007,988.8888888888889" fill="#ffffff"/><polygon points="408.7777777777785,977.3888888888889 408.7777777777785,266.66666666666663 454.7777777777785,272.41666666666663 454.7777777777785,983.1388888888889" fill="url('#backgroundGradient')"/><polygon points="454.7777777777785,272.41666666666663 408.7777777777785,266.66666666666663 454.7777777777785,266.66666666666663 500.7777777777785,272.41666666666663" fill="rgba(243, 198, 119, 1)"/><polygon points="454.7777777777785,988.8888888888889 454.7777777777785,272.41666666666663 500.7777777777785,272.41666666666663 500.7777777777785,988.8888888888889" fill="#ffffff"/><polygon points="386.5555555555563,977.3888888888889 386.5555555555563,466.66666666666663 432.5555555555563,472.41666666666663 432.5555555555563,983.1388888888889" fill="url('#backgroundGradient')"/><polygon points="432.5555555555563,472.41666666666663 386.5555555555563,466.66666666666663 432.5555555555563,466.66666666666663 478.5555555555563,472.41666666666663" fill="rgba(244, 171, 109, 1)"/><polygon points="432.5555555555563,988.8888888888889 432.5555555555563,472.41666666666663 478.5555555555563,472.41666666666663 478.5555555555563,988.8888888888889" fill="#ffffff"/><polygon points="364.33333333333405,977.3888888888889 364.33333333333405,644.4444444444445 410.33333333333405,650.1944444444445 410.33333333333405,983.1388888888889" fill="url('#backgroundGradient')"/><polygon points="410.33333333333405,650.1944444444445 364.33333333333405,644.4444444444445 410.33333333333405,644.4444444444445 456.33333333333405,650.1944444444445" fill="rgba(246, 142, 99, 1)"/><polygon points="410.33333333333405,988.8888888888889 410.33333333333405,650.1944444444445 456.33333333333405,650.1944444444445 456.33333333333405,988.8888888888889" fill="#ffffff"/><polygon points="342.1111111111118,977.3888888888889 342.1111111111118,222.22222222222223 388.1111111111118,227.97222222222223 388.1111111111118,983.1388888888889" fill="url('#backgroundGradient')"/><polygon points="388.1111111111118,227.97222222222223 342.1111111111118,222.22222222222223 388.1111111111118,222.22222222222223 434.1111111111118,227.97222222222223" fill="rgba(243, 198, 119, 1)"/><polygon points="388.1111111111118,988.8888888888889 388.1111111111118,227.97222222222223 434.1111111111118,227.97222222222223 434.1111111111118,988.8888888888889" fill="#ffffff"/><polygon points="319.8888888888896,977.3888888888889 319.8888888888896,177.77777777777777 365.8888888888896,183.52777777777777 365.8888888888896,983.1388888888889" fill="url('#backgroundGradient')"/><polygon points="365.8888888888896,183.52777777777777 319.8888888888896,177.77777777777777 365.8888888888896,177.77777777777777 411.8888888888896,183.52777777777777" fill="rgba(243, 198, 119, 1)"/><polygon points="365.8888888888896,988.8888888888889 365.8888888888896,183.52777777777777 411.8888888888896,183.52777777777777 411.8888888888896,988.8888888888889" fill="#ffffff"/><polygon points="297.66666666666737,977.3888888888889 297.66666666666737,222.22222222222223 343.66666666666737,227.97222222222223 343.66666666666737,983.1388888888889" fill="url('#backgroundGradient')"/><polygon points="343.66666666666737,227.97222222222223 297.66666666666737,222.22222222222223 343.66666666666737,222.22222222222223 389.66666666666737,227.97222222222223" fill="rgba(243, 198, 119, 1)"/><polygon points="343.66666666666737,988.8888888888889 343.66666666666737,227.97222222222223 389.66666666666737,227.97222222222223 389.66666666666737,988.8888888888889" fill="#ffffff"/><polygon points="275.44444444444514,977.3888888888889 275.44444444444514,755.5555555555555 321.44444444444514,761.3055555555555 321.44444444444514,983.1388888888889" fill="url('#backgroundGradient')"/><polygon points="321.44444444444514,761.3055555555555 275.44444444444514,755.5555555555555 321.44444444444514,755.5555555555555 367.44444444444514,761.3055555555555" fill="rgba(247, 127, 94, 1)"/><polygon points="321.44444444444514,988.8888888888889 321.44444444444514,761.3055555555555 367.44444444444514,761.3055555555555 367.44444444444514,988.8888888888889" fill="#ffffff"/><polygon points="253.2222222222229,977.3888888888889 253.2222222222229,688.8888888888889 299.2222222222229,694.6388888888889 299.2222222222229,983.1388888888889" fill="url('#backgroundGradient')"/><polygon points="299.2222222222229,694.6388888888889 253.2222222222229,688.8888888888889 299.2222222222229,688.8888888888889 345.2222222222229,694.6388888888889" fill="rgba(246, 137, 97, 1)"/><polygon points="299.2222222222229,988.8888888888889 299.2222222222229,694.6388888888889 345.2222222222229,694.6388888888889 345.2222222222229,988.8888888888889" fill="#ffffff"/><polygon points="231.00000000000068,977.3888888888889 231.00000000000068,466.66666666666663 277.0000000000007,472.41666666666663 277.0000000000007,983.1388888888889" fill="url('#backgroundGradient')"/><polygon points="277.0000000000007,472.41666666666663 231.00000000000068,466.66666666666663 277.0000000000007,466.66666666666663 323.0000000000007,472.41666666666663" fill="rgba(244, 171, 109, 1)"/><polygon points="277.0000000000007,988.8888888888889 277.0000000000007,472.41666666666663 323.0000000000007,472.41666666666663 323.0000000000007,988.8888888888889" fill="#ffffff"/><polygon points="208.77777777777845,977.3888888888889 208.77777777777845,311.1111111111111 254.77777777777845,316.8611111111111 254.77777777777845,983.1388888888889" fill="url('#backgroundGradient')"/><polygon points="254.77777777777845,316.8611111111111 208.77777777777845,311.1111111111111 254.77777777777845,311.1111111111111 300.77777777777845,316.8611111111111" fill="rgba(243, 190, 116, 1)"/><polygon points="254.77777777777845,988.8888888888889 254.77777777777845,316.8611111111111 300.77777777777845,316.8611111111111 300.77777777777845,988.8888888888889" fill="#ffffff"/><polygon points="186.55555555555623,977.3888888888889 186.55555555555623,355.55555555555554 232.55555555555623,361.30555555555554 232.55555555555623,983.1388888888889" fill="url('#backgroundGradient')"/><polygon points="232.55555555555623,361.30555555555554 186.55555555555623,355.55555555555554 232.55555555555623,355.55555555555554 278.5555555555562,361.30555555555554" fill="rgba(243, 186, 114, 1)"/><polygon points="232.55555555555623,988.8888888888889 232.55555555555623,361.30555555555554 278.5555555555562,361.30555555555554 278.5555555555562,988.8888888888889" fill="#ffffff"/><polygon points="164.333333333334,977.3888888888889 164.333333333334,311.1111111111111 210.333333333334,316.8611111111111 210.333333333334,983.1388888888889" fill="url('#backgroundGradient')"/><polygon points="210.333333333334,316.8611111111111 164.333333333334,311.1111111111111 210.333333333334,311.1111111111111 256.333333333334,316.8611111111111" fill="rgba(243, 190, 116, 1)"/><polygon points="210.333333333334,988.8888888888889 210.333333333334,316.8611111111111 256.333333333334,316.8611111111111 256.333333333334,988.8888888888889" fill="#ffffff"/><polygon points="142.11111111111177,977.3888888888889 142.11111111111177,577.7777777777777 188.11111111111177,583.5277777777777 188.11111111111177,983.1388888888889" fill="url('#backgroundGradient')"/><polygon points="188.11111111111177,583.5277777777777 142.11111111111177,577.7777777777777 188.11111111111177,577.7777777777777 234.11111111111177,583.5277777777777" fill="rgba(245, 151, 102, 1)"/><polygon points="188.11111111111177,988.8888888888889 188.11111111111177,583.5277777777777 234.11111111111177,583.5277777777777 234.11111111111177,988.8888888888889" fill="#ffffff"/><polygon points="119.88888888888954,977.3888888888889 119.88888888888954,555.5555555555555 165.88888888888954,561.3055555555555 165.88888888888954,983.1388888888889" fill="url('#backgroundGradient')"/><polygon points="165.88888888888954,561.3055555555555 119.88888888888954,555.5555555555555 165.88888888888954,555.5555555555555 211.88888888888954,561.3055555555555" fill="rgba(245, 156, 104, 1)"/><polygon points="165.88888888888954,988.8888888888889 165.88888888888954,561.3055555555555 211.88888888888954,561.3055555555555 211.88888888888954,988.8888888888889" fill="#ffffff"/><polygon points="97.66666666666731,977.3888888888889 97.66666666666731,711.1111111111111 143.6666666666673,716.8611111111111 143.6666666666673,983.1388888888889" fill="url('#backgroundGradient')"/><polygon points="143.6666666666673,716.8611111111111 97.66666666666731,711.1111111111111 143.6666666666673,711.1111111111111 189.6666666666673,716.8611111111111" fill="rgba(246, 132, 95, 1)"/><polygon points="143.6666666666673,988.8888888888889 143.6666666666673,716.8611111111111 189.6666666666673,716.8611111111111 189.6666666666673,988.8888888888889" fill="#ffffff"/></svg></svg>