<svg xmlns="http://www.w3.org/2000/svg" viewBox="0 0 1000 1000" style="background-color: rgb(0, 0, 0);"><svg viewBox="0 0 1000 1000" class="undefined">
        <defs>
            <linearGradient id="backgroundGradient" gradientTransform="rotate(90)">
                <stop offset="0%" stop-color="rgba(255, 186, 8, 1)"/>
                <stop offset="100%" stop-color="rgba(108, 4, 15, 1)"/>

            </linearGradient>
        </defs>
    <polygon points="892.5,969.7954545454545 892.5,531.8181818181818 931.5,536.6931818181818 931.5,974.6704545454545" fill="url('#backgroundGradient')"/><polygon points="931.5,536.6931818181818 892.5,531.8181818181818 931.5,531.8181818181818 970.5,536.6931818181818" fill="rgba(249, 160, 7, 1)"/><polygon points="931.5,979.5454545454545 931.5,536.6931818181818 970.5,536.6931818181818 970.5,979.5454545454545" fill="#000000"/><polygon points="851.5909090909091,969.7954545454545 851.5909090909091,204.54545454545453 890.5909090909091,209.42045454545453 890.5909090909091,974.6704545454545" fill="url('#backgroundGradient')"/><polygon points="890.5909090909091,209.42045454545453 851.5909090909091,204.54545454545453 890.5909090909091,204.54545454545453 929.5909090909091,209.42045454545453" fill="rgba(253, 175, 8, 1)"/><polygon points="890.5909090909091,979.5454545454545 890.5909090909091,209.42045454545453 929.5909090909091,209.42045454545453 929.5909090909091,979.5454545454545" fill="#000000"/><polygon points="810.6818181818182,969.7954545454545 810.6818181818182,777.2727272727273 849.6818181818182,782.1477272727273 849.6818181818182,974.6704545454545" fill="url('#backgroundGradient')"/><polygon points="849.6818181818182,782.1477272727273 810.6818181818182,777.2727272727273 849.6818181818182,777.2727272727273 888.6818181818182,782.1477272727273" fill="rgba(246, 147, 6, 1)"/><polygon points="849.6818181818182,979.5454545454545 849.6818181818182,782.1477272727273 888.6818181818182,782.1477272727273 888.6818181818182,979.5454545454545" fill="#000000"/><polygon points="769.7727272727274,969.7954545454545 769.7727272727274,613.6363636363636 808.7727272727274,618.5113636363636 808.7727272727274,974.6704545454545" fill="url('#backgroundGradient')"/><polygon points="808.7727272727274,618.5113636363636 769.7727272727274,613.6363636363636 808.7727272727274,613.6363636363636 847.7727272727274,618.5113636363636" fill="rgba(248, 156, 7, 1)"/><polygon points="808.7727272727274,979.5454545454545 808.7727272727274,618.5113636363636 847.7727272727274,618.5113636363636 847.7727272727274,979.5454545454545" fill="#000000"/><polygon points="728.8636363636365,969.7954545454545 728.8636363636365,368.18181818181813 767.8636363636365,373.05681818181813 767.8636363636365,974.6704545454545" fill="url('#backgroundGradient')"/><polygon points="767.8636363636365,373.05681818181813 728.8636363636365,368.18181818181813 767.8636363636365,368.18181818181813 806.8636363636365,373.05681818181813" fill="rgba(251, 166, 7, 1)"/><polygon points="767.8636363636365,979.5454545454545 767.8636363636365,373.05681818181813 806.8636363636365,373.05681818181813 806.8636363636365,979.5454545454545" fill="#000000"/><polygon points="687.9545454545456,969.7954545454545 687.9545454545456,818.1818181818181 726.9545454545456,823.0568181818181 726.9545454545456,974.6704545454545" fill="url('#backgroundGradient')"/><polygon points="726.9545454545456,823.0568181818181 687.9545454545456,818.1818181818181 726.9545454545456,818.1818181818181 765.9545454545456,823.0568181818181" fill="rgba(245, 145, 6, 1)"/><polygon points="726.9545454545456,979.5454545454545 726.9545454545456,823.0568181818181 765.9545454545456,823.0568181818181 765.9545454545456,979.5454545454545" fill="#000000"/><polygon points="647.0454545454547,969.7954545454545 647.0454545454547,736.3636363636363 686.0454545454547,741.2386363636363 686.0454545454547,974.6704545454545" fill="url('#backgroundGradient')"/><polygon points="686.0454545454547,741.2386363636363 647.0454545454547,736.3636363636363 686.0454545454547,736.3636363636363 725.0454545454547,741.2386363636363" fill="rgba(246, 149, 6, 1)"/><polygon points="686.0454545454547,979.5454545454545 686.0454545454547,741.2386363636363 725.0454545454547,741.2386363636363 725.0454545454547,979.5454545454545" fill="#000000"/><polygon points="606.1363636363639,969.7954545454545 606.1363636363639,736.3636363636363 645.1363636363639,741.2386363636363 645.1363636363639,974.6704545454545" fill="url('#backgroundGradient')"/><polygon points="645.1363636363639,741.2386363636363 606.1363636363639,736.3636363636363 645.1363636363639,736.3636363636363 684.1363636363639,741.2386363636363" fill="rgba(246, 149, 6, 1)"/><polygon points="645.1363636363639,979.5454545454545 645.1363636363639,741.2386363636363 684.1363636363639,741.2386363636363 684.1363636363639,979.5454545454545" fill="#000000"/><polygon points="565.227272727273,969.7954545454545 565.227272727273,695.4545454545454 604.227272727273,700.3295454545454 604.227272727273,974.6704545454545" fill="url('#backgroundGradient')"/><polygon points="604.227272727273,700.3295454545454 565.227272727273,695.4545454545454 604.227272727273,695.4545454545454 643.227272727273,700.3295454545454" fill="rgba(247, 152, 7, 1)"/><polygon points="604.227272727273,979.5454545454545 604.227272727273,700.3295454545454 643.227272727273,700.3295454545454 643.227272727273,979.5454545454545" fill="#000000"/><polygon points="524.3181818181821,969.7954545454545 524.3181818181821,450 563.3181818181821,454.875 563.3181818181821,974.6704545454545" fill="url('#backgroundGradient')"/><polygon points="563.3181818181821,454.875 524.3181818181821,450 563.3181818181821,450 602.3181818181821,454.875" fill="rgba(250, 163, 7, 1)"/><polygon points="563.3181818181821,979.5454545454545 563.3181818181821,454.875 602.3181818181821,454.875 602.3181818181821,979.5454545454545" fill="#000000"/><polygon points="483.4090909090912,969.7954545454545 483.4090909090912,695.4545454545454 522.4090909090912,700.3295454545454 522.4090909090912,974.6704545454545" fill="url('#backgroundGradient')"/><polygon points="522.4090909090912,700.3295454545454 483.4090909090912,695.4545454545454 522.4090909090912,695.4545454545454 561.4090909090912,700.3295454545454" fill="rgba(247, 152, 7, 1)"/><polygon points="522.4090909090912,979.5454545454545 522.4090909090912,700.3295454545454 561.4090909090912,700.3295454545454 561.4090909090912,979.5454545454545" fill="#000000"/><polygon points="442.50000000000034,969.7954545454545 442.50000000000034,409.09090909090907 481.50000000000034,413.96590909090907 481.50000000000034,974.6704545454545" fill="url('#backgroundGradient')"/><polygon points="481.50000000000034,413.96590909090907 442.50000000000034,409.09090909090907 481.50000000000034,409.09090909090907 520.5000000000003,413.96590909090907" fill="rgba(250, 165, 7, 1)"/><polygon points="481.50000000000034,979.5454545454545 481.50000000000034,413.96590909090907 520.5000000000003,413.96590909090907 520.5000000000003,979.5454545454545" fill="#000000"/><polygon points="401.59090909090946,969.7954545454545 401.59090909090946,613.6363636363636 440.59090909090946,618.5113636363636 440.59090909090946,974.6704545454545" fill="url('#backgroundGradient')"/><polygon points="440.59090909090946,618.5113636363636 401.59090909090946,613.6363636363636 440.59090909090946,613.6363636363636 479.59090909090946,618.5113636363636" fill="rgba(248, 156, 7, 1)"/><polygon points="440.59090909090946,979.5454545454545 440.59090909090946,618.5113636363636 479.59090909090946,618.5113636363636 479.59090909090946,979.5454545454545" fill="#000000"/><polygon points="360.6818181818186,969.7954545454545 360.6818181818186,163.63636363636363 399.6818181818186,168.51136363636363 399.6818181818186,974.6704545454545" fill="url('#backgroundGradient')"/><polygon points="399.6818181818186,168.51136363636363 360.6818181818186,163.63636363636363 399.6818181818186,163.63636363636363 438.6818181818186,168.51136363636363" fill="rgba(253, 178, 8, 1)"/><polygon points="399.6818181818186,979.5454545454545 399.6818181818186,168.51136363636363 438.6818181818186,168.51136363636363 438.6818181818186,979.5454545454545" fill="#000000"/><polygon points="319.7727272727277,969.7954545454545 319.7727272727277,409.09090909090907 358.7727272727277,413.96590909090907 358.7727272727277,974.6704545454545" fill="url('#backgroundGradient')"/><polygon points="358.7727272727277,413.96590909090907 319.7727272727277,409.09090909090907 358.7727272727277,409.09090909090907 397.7727272727277,413.96590909090907" fill="rgba(250, 165, 7, 1)"/><polygon points="358.7727272727277,979.5454545454545 358.7727272727277,413.96590909090907 397.7727272727277,413.96590909090907 397.7727272727277,979.5454545454545" fill="#000000"/><polygon points="278.86363636363683,969.7954545454545 278.86363636363683,736.3636363636363 317.86363636363683,741.2386363636363 317.86363636363683,974.6704545454545" fill="url('#backgroundGradient')"/><polygon points="317.86363636363683,741.2386363636363 278.86363636363683,736.3636363636363 317.86363636363683,736.3636363636363 356.86363636363683,741.2386363636363" fill="rgba(246, 149, 6, 1)"/><polygon points="317.86363636363683,979.5454545454545 317.86363636363683,741.2386363636363 356.86363636363683,741.2386363636363 356.86363636363683,979.5454545454545" fill="#000000"/><polygon points="237.95454545454595,969.7954545454545 237.95454545454595,368.18181818181813 276.95454545454595,373.05681818181813 276.95454545454595,974.6704545454545" fill="url('#backgroundGradient')"/><polygon points="276.95454545454595,373.05681818181813 237.95454545454595,368.18181818181813 276.95454545454595,368.18181818181813 315.95454545454595,373.05681818181813" fill="rgba(251, 166, 7, 1)"/><polygon points="276.95454545454595,979.5454545454545 276.95454545454595,373.05681818181813 315.95454545454595,373.05681818181813 315.95454545454595,979.5454545454545" fill="#000000"/><polygon points="197.04545454545504,969.7954545454545 197.04545454545504,490.9090909090909 236.04545454545504,495.7840909090909 236.04545454545504,974.6704545454545" fill="url('#backgroundGradient')"/><polygon points="236.04545454545504,495.7840909090909 197.04545454545504,490.9090909090909 236.04545454545504,490.9090909090909 275.0454545454551,495.7840909090909" fill="rgba(250, 162, 7, 1)"/><polygon points="236.04545454545504,979.5454545454545 236.04545454545504,495.7840909090909 275.0454545454551,495.7840909090909 275.0454545454551,979.5454545454545" fill="#000000"/><polygon points="156.13636363636414,969.7954545454545 156.13636363636414,368.18181818181813 195.13636363636414,373.05681818181813 195.13636363636414,974.6704545454545" fill="url('#backgroundGradient')"/><polygon points="195.13636363636414,373.05681818181813 156.13636363636414,368.18181818181813 195.13636363636414,368.18181818181813 234.13636363636414,373.05681818181813" fill="rgba(251, 166, 7, 1)"/><polygon points="195.13636363636414,979.5454545454545 195.13636363636414,373.05681818181813 234.13636363636414,373.05681818181813 234.13636363636414,979.5454545454545" fill="#000000"/><polygon points="115.22727272727323,969.7954545454545 115.22727272727323,286.3636363636364 154.22727272727323,291.2386363636364 154.22727272727323,974.6704545454545" fill="url('#backgroundGradient')"/><polygon points="154.22727272727323,291.2386363636364 115.22727272727323,286.3636363636364 154.22727272727323,286.3636363636364 193.22727272727323,291.2386363636364" fill="rgba(252, 171, 7, 1)"/><polygon points="154.22727272727323,979.5454545454545 154.22727272727323,291.2386363636364 193.22727272727323,291.2386363636364 193.22727272727323,979.5454545454545" fill="#000000"/><polygon points="74.31818181818232,969.7954545454545 74.31818181818232,613.6363636363636 113.31818181818232,618.5113636363636 113.31818181818232,974.6704545454545" fill="url('#backgroundGradient')"/><polygon points="113.31818181818232,618.5113636363636 74.31818181818232,613.6363636363636 113.31818181818232,613.6363636363636 152.31818181818232,618.5113636363636" fill="rgba(248, 156, 7, 1)"/><polygon points="113.31818181818232,979.5454545454545 113.31818181818232,618.5113636363636 152.31818181818232,618.5113636363636 152.31818181818232,979.5454545454545" fill="#000000"/><polygon points="33.40909090909142,969.7954545454545 33.40909090909142,531.8181818181818 72.40909090909142,536.6931818181818 72.40909090909142,974.6704545454545" fill="url('#backgroundGradient')"/><polygon points="72.40909090909142,536.6931818181818 33.40909090909142,531.8181818181818 72.40909090909142,531.8181818181818 111.40909090909142,536.6931818181818" fill="rgba(249, 160, 7, 1)"/><polygon points="72.40909090909142,979.5454545454545 72.40909090909142,536.6931818181818 111.40909090909142,536.6931818181818 111.40909090909142,979.5454545454545" fill="#000000"/></svg></svg>