<svg xmlns="http://www.w3.org/2000/svg" viewBox="0 0 1000 1000" style="background-color: rgb(0, 0, 0); width: 1000px; height: 1000px;"><svg viewBox="0 0 1000 1000" class="undefined" style="width: 1000px; height: 1000px;">
        <defs>
            <linearGradient id="backgroundGradient" gradientTransform="rotate(90)">
                <stop offset="0%" stop-color="rgba(255, 186, 8, 1)"/>
                <stop offset="100%" stop-color="rgba(107, 4, 15, 1)"/>

            </linearGradient>
        </defs>
    <polygon points="846,972.6153846153846 846,400 882,406 882,978.6153846153846" fill="url('#backgroundGradient')"/><polygon points="882,406 846,400 882,400 918,406" fill="rgba(251, 166, 7, 1)"/><polygon points="882,984.6153846153846 882,406 918,406 918,984.6153846153846" fill="#000000"/><polygon points="815.2307692307693,972.6153846153846 815.2307692307693,215.3846153846154 851.2307692307693,221.3846153846154 851.2307692307693,978.6153846153846" fill="url('#backgroundGradient')"/><polygon points="851.2307692307693,221.3846153846154 815.2307692307693,215.3846153846154 851.2307692307693,215.3846153846154 887.2307692307693,221.3846153846154" fill="rgba(252, 175, 7, 1)"/><polygon points="851.2307692307693,984.6153846153846 851.2307692307693,221.3846153846154 887.2307692307693,221.3846153846154 887.2307692307693,984.6153846153846" fill="#000000"/><polygon points="784.4615384615386,972.6153846153846 784.4615384615386,707.6923076923077 820.4615384615386,713.6923076923077 820.4615384615386,978.6153846153846" fill="url('#backgroundGradient')"/><polygon points="820.4615384615386,713.6923076923077 784.4615384615386,707.6923076923077 820.4615384615386,707.6923076923077 856.4615384615386,713.6923076923077" fill="rgba(246, 150, 7, 1)"/><polygon points="820.4615384615386,984.6153846153846 820.4615384615386,713.6923076923077 856.4615384615386,713.6923076923077 856.4615384615386,984.6153846153846" fill="#000000"/><polygon points="753.6923076923078,972.6153846153846 753.6923076923078,276.9230769230769 789.6923076923078,282.9230769230769 789.6923076923078,978.6153846153846" fill="url('#backgroundGradient')"/><polygon points="789.6923076923078,282.9230769230769 753.6923076923078,276.9230769230769 789.6923076923078,276.9230769230769 825.6923076923078,282.9230769230769" fill="rgba(252, 171, 7, 1)"/><polygon points="789.6923076923078,984.6153846153846 789.6923076923078,282.9230769230769 825.6923076923078,282.9230769230769 825.6923076923078,984.6153846153846" fill="#000000"/><polygon points="722.9230769230771,972.6153846153846 722.9230769230771,615.3846153846154 758.9230769230771,621.3846153846154 758.9230769230771,978.6153846153846" fill="url('#backgroundGradient')"/><polygon points="758.9230769230771,621.3846153846154 722.9230769230771,615.3846153846154 758.9230769230771,615.3846153846154 794.9230769230771,621.3846153846154" fill="rgba(247, 155, 7, 1)"/><polygon points="758.9230769230771,984.6153846153846 758.9230769230771,621.3846153846154 794.9230769230771,621.3846153846154 794.9230769230771,984.6153846153846" fill="#000000"/><polygon points="692.1538461538464,972.6153846153846 692.1538461538464,276.9230769230769 728.1538461538464,282.9230769230769 728.1538461538464,978.6153846153846" fill="url('#backgroundGradient')"/><polygon points="728.1538461538464,282.9230769230769 692.1538461538464,276.9230769230769 728.1538461538464,276.9230769230769 764.1538461538464,282.9230769230769" fill="rgba(252, 171, 7, 1)"/><polygon points="728.1538461538464,984.6153846153846 728.1538461538464,282.9230769230769 764.1538461538464,282.9230769230769 764.1538461538464,984.6153846153846" fill="#000000"/><polygon points="661.3846153846157,972.6153846153846 661.3846153846157,492.3076923076923 697.3846153846157,498.3076923076923 697.3846153846157,978.6153846153846" fill="url('#backgroundGradient')"/><polygon points="697.3846153846157,498.3076923076923 661.3846153846157,492.3076923076923 697.3846153846157,492.3076923076923 733.3846153846157,498.3076923076923" fill="rgba(249, 161, 7, 1)"/><polygon points="697.3846153846157,984.6153846153846 697.3846153846157,498.3076923076923 733.3846153846157,498.3076923076923 733.3846153846157,984.6153846153846" fill="#000000"/><polygon points="630.615384615385,972.6153846153846 630.615384615385,707.6923076923077 666.615384615385,713.6923076923077 666.615384615385,978.6153846153846" fill="url('#backgroundGradient')"/><polygon points="666.615384615385,713.6923076923077 630.615384615385,707.6923076923077 666.615384615385,707.6923076923077 702.615384615385,713.6923076923077" fill="rgba(246, 150, 7, 1)"/><polygon points="666.615384615385,984.6153846153846 666.615384615385,713.6923076923077 702.615384615385,713.6923076923077 702.615384615385,984.6153846153846" fill="#000000"/><polygon points="599.8461538461543,972.6153846153846 599.8461538461543,646.1538461538462 635.8461538461543,652.1538461538462 635.8461538461543,978.6153846153846" fill="url('#backgroundGradient')"/><polygon points="635.8461538461543,652.1538461538462 599.8461538461543,646.1538461538462 635.8461538461543,646.1538461538462 671.8461538461543,652.1538461538462" fill="rgba(247, 154, 6, 1)"/><polygon points="635.8461538461543,984.6153846153846 635.8461538461543,652.1538461538462 671.8461538461543,652.1538461538462 671.8461538461543,984.6153846153846" fill="#000000"/><polygon points="569.0769230769235,972.6153846153846 569.0769230769235,338.46153846153845 605.0769230769235,344.46153846153845 605.0769230769235,978.6153846153846" fill="url('#backgroundGradient')"/><polygon points="605.0769230769235,344.46153846153845 569.0769230769235,338.46153846153845 605.0769230769235,338.46153846153845 641.0769230769235,344.46153846153845" fill="rgba(251, 168, 8, 1)"/><polygon points="605.0769230769235,984.6153846153846 605.0769230769235,344.46153846153845 641.0769230769235,344.46153846153845 641.0769230769235,984.6153846153846" fill="#000000"/><polygon points="538.3076923076928,972.6153846153846 538.3076923076928,461.53846153846155 574.3076923076928,467.53846153846155 574.3076923076928,978.6153846153846" fill="url('#backgroundGradient')"/><polygon points="574.3076923076928,467.53846153846155 538.3076923076928,461.53846153846155 574.3076923076928,461.53846153846155 610.3076923076928,467.53846153846155" fill="rgba(250, 164, 8, 1)"/><polygon points="574.3076923076928,984.6153846153846 574.3076923076928,467.53846153846155 610.3076923076928,467.53846153846155 610.3076923076928,984.6153846153846" fill="#000000"/><polygon points="507.5384615384621,972.6153846153846 507.5384615384621,338.46153846153845 543.5384615384621,344.46153846153845 543.5384615384621,978.6153846153846" fill="url('#backgroundGradient')"/><polygon points="543.5384615384621,344.46153846153845 507.5384615384621,338.46153846153845 543.5384615384621,338.46153846153845 579.5384615384621,344.46153846153845" fill="rgba(251, 168, 8, 1)"/><polygon points="543.5384615384621,984.6153846153846 543.5384615384621,344.46153846153845 579.5384615384621,344.46153846153845 579.5384615384621,984.6153846153846" fill="#000000"/><polygon points="476.76923076923134,972.6153846153846 476.76923076923134,430.7692307692308 512.7692307692314,436.7692307692308 512.7692307692314,978.6153846153846" fill="url('#backgroundGradient')"/><polygon points="512.7692307692314,436.7692307692308 476.7692307692314,430.7692307692308 512.7692307692314,430.7692307692308 548.7692307692314,436.7692307692308" fill="rgba(250, 164, 7, 1)"/><polygon points="512.7692307692314,984.6153846153846 512.7692307692314,436.7692307692308 548.7692307692314,436.7692307692308 548.7692307692314,984.6153846153846" fill="#000000"/><polygon points="446.00000000000057,972.6153846153846 446.00000000000057,276.9230769230769 482.00000000000057,282.9230769230769 482.00000000000057,978.6153846153846" fill="url('#backgroundGradient')"/><polygon points="482.00000000000057,282.9230769230769 446.00000000000057,276.9230769230769 482.00000000000057,276.9230769230769 518.0000000000006,282.9230769230769" fill="rgba(252, 171, 7, 1)"/><polygon points="482.00000000000057,984.6153846153846 482.00000000000057,282.9230769230769 518.0000000000006,282.9230769230769 518.0000000000006,984.6153846153846" fill="#000000"/><polygon points="415.2307692307698,972.6153846153846 415.2307692307698,615.3846153846154 451.2307692307698,621.3846153846154 451.2307692307698,978.6153846153846" fill="url('#backgroundGradient')"/><polygon points="451.2307692307698,621.3846153846154 415.2307692307698,615.3846153846154 451.2307692307698,615.3846153846154 487.2307692307698,621.3846153846154" fill="rgba(247, 155, 7, 1)"/><polygon points="451.2307692307698,984.6153846153846 451.2307692307698,621.3846153846154 487.2307692307698,621.3846153846154 487.2307692307698,984.6153846153846" fill="#000000"/><polygon points="384.461538461539,972.6153846153846 384.461538461539,492.3076923076923 420.461538461539,498.3076923076923 420.461538461539,978.6153846153846" fill="url('#backgroundGradient')"/><polygon points="420.461538461539,498.3076923076923 384.461538461539,492.3076923076923 420.461538461539,492.3076923076923 456.461538461539,498.3076923076923" fill="rgba(249, 161, 7, 1)"/><polygon points="420.461538461539,984.6153846153846 420.461538461539,498.3076923076923 456.461538461539,498.3076923076923 456.461538461539,984.6153846153846" fill="#000000"/><polygon points="353.69230769230825,972.6153846153846 353.69230769230825,584.6153846153846 389.69230769230825,590.6153846153846 389.69230769230825,978.6153846153846" fill="url('#backgroundGradient')"/><polygon points="389.69230769230825,590.6153846153846 353.69230769230825,584.6153846153846 389.69230769230825,584.6153846153846 425.69230769230825,590.6153846153846" fill="rgba(249, 158, 6, 1)"/><polygon points="389.69230769230825,984.6153846153846 389.69230769230825,590.6153846153846 425.69230769230825,590.6153846153846 425.69230769230825,984.6153846153846" fill="#000000"/><polygon points="322.9230769230775,972.6153846153846 322.9230769230775,646.1538461538462 358.9230769230775,652.1538461538462 358.9230769230775,978.6153846153846" fill="url('#backgroundGradient')"/><polygon points="358.9230769230775,652.1538461538462 322.9230769230775,646.1538461538462 358.9230769230775,646.1538461538462 394.9230769230775,652.1538461538462" fill="rgba(247, 154, 6, 1)"/><polygon points="358.9230769230775,984.6153846153846 358.9230769230775,652.1538461538462 394.9230769230775,652.1538461538462 394.9230769230775,984.6153846153846" fill="#000000"/><polygon points="292.1538461538467,972.6153846153846 292.1538461538467,430.7692307692308 328.1538461538467,436.7692307692308 328.1538461538467,978.6153846153846" fill="url('#backgroundGradient')"/><polygon points="328.1538461538467,436.7692307692308 292.1538461538467,430.7692307692308 328.1538461538467,430.7692307692308 364.1538461538467,436.7692307692308" fill="rgba(250, 164, 7, 1)"/><polygon points="328.1538461538467,984.6153846153846 328.1538461538467,436.7692307692308 364.1538461538467,436.7692307692308 364.1538461538467,984.6153846153846" fill="#000000"/><polygon points="261.3846153846159,972.6153846153846 261.3846153846159,400 297.3846153846159,406 297.3846153846159,978.6153846153846" fill="url('#backgroundGradient')"/><polygon points="297.3846153846159,406 261.3846153846159,400 297.3846153846159,400 333.3846153846159,406" fill="rgba(251, 166, 7, 1)"/><polygon points="297.3846153846159,984.6153846153846 297.3846153846159,406 333.3846153846159,406 333.3846153846159,984.6153846153846" fill="#000000"/><polygon points="230.61538461538515,972.6153846153846 230.61538461538515,338.46153846153845 266.61538461538515,344.46153846153845 266.61538461538515,978.6153846153846" fill="url('#backgroundGradient')"/><polygon points="266.61538461538515,344.46153846153845 230.61538461538515,338.46153846153845 266.61538461538515,338.46153846153845 302.61538461538515,344.46153846153845" fill="rgba(251, 168, 8, 1)"/><polygon points="266.61538461538515,984.6153846153846 266.61538461538515,344.46153846153845 302.61538461538515,344.46153846153845 302.61538461538515,984.6153846153846" fill="#000000"/><polygon points="199.84615384615438,972.6153846153846 199.84615384615438,615.3846153846154 235.84615384615438,621.3846153846154 235.84615384615438,978.6153846153846" fill="url('#backgroundGradient')"/><polygon points="235.84615384615438,621.3846153846154 199.84615384615438,615.3846153846154 235.84615384615438,615.3846153846154 271.8461538461544,621.3846153846154" fill="rgba(247, 155, 7, 1)"/><polygon points="235.84615384615438,984.6153846153846 235.84615384615438,621.3846153846154 271.8461538461544,621.3846153846154 271.8461538461544,984.6153846153846" fill="#000000"/><polygon points="169.0769230769236,972.6153846153846 169.0769230769236,461.53846153846155 205.0769230769236,467.53846153846155 205.0769230769236,978.6153846153846" fill="url('#backgroundGradient')"/><polygon points="205.0769230769236,467.53846153846155 169.0769230769236,461.53846153846155 205.0769230769236,461.53846153846155 241.0769230769236,467.53846153846155" fill="rgba(250, 164, 8, 1)"/><polygon points="205.0769230769236,984.6153846153846 205.0769230769236,467.53846153846155 241.0769230769236,467.53846153846155 241.0769230769236,984.6153846153846" fill="#000000"/><polygon points="138.30769230769283,972.6153846153846 138.30769230769283,676.9230769230769 174.30769230769283,682.9230769230769 174.30769230769283,978.6153846153846" fill="url('#backgroundGradient')"/><polygon points="174.30769230769283,682.9230769230769 138.30769230769283,676.9230769230769 174.30769230769283,676.9230769230769 210.30769230769283,682.9230769230769" fill="rgba(247, 152, 7, 1)"/><polygon points="174.30769230769283,984.6153846153846 174.30769230769283,682.9230769230769 210.30769230769283,682.9230769230769 210.30769230769283,984.6153846153846" fill="#000000"/><polygon points="107.53846153846206,972.6153846153846 107.53846153846206,584.6153846153846 143.53846153846206,590.6153846153846 143.53846153846206,978.6153846153846" fill="url('#backgroundGradient')"/><polygon points="143.53846153846206,590.6153846153846 107.53846153846206,584.6153846153846 143.53846153846206,584.6153846153846 179.53846153846206,590.6153846153846" fill="rgba(249, 158, 6, 1)"/><polygon points="143.53846153846206,984.6153846153846 143.53846153846206,590.6153846153846 179.53846153846206,590.6153846153846 179.53846153846206,984.6153846153846" fill="#000000"/></svg></svg>