<svg xmlns="http://www.w3.org/2000/svg" viewBox="0 0 1000 1000" style="background-color: rgb(0, 0, 0); width: 1000px; height: 1000px;"><svg viewBox="0 0 1000 1000" class="undefined" style="width: 1000px; height: 1000px;">
        <defs>
            <linearGradient id="backgroundGradient" gradientTransform="rotate(90)">
                <stop offset="0%" stop-color="rgba(255, 255, 255, 1)"/>
                <stop offset="100%" stop-color="rgba(1, 1, 1, 1)"/>

            </linearGradient>
        </defs>
    <polygon points="794.5,897.5238095238096 794.5,571.4285714285714 862.5,594.0952380952381 862.5,920.1904761904763" fill="url('#backgroundGradient')"/><polygon points="862.5,594.0952380952381 794.5,571.4285714285714 862.5,571.4285714285714 930.5,594.0952380952381" fill="rgba(219, 219, 219, 1)"/><polygon points="862.5,942.8571428571429 862.5,594.0952380952381 930.5,594.0952380952381 930.5,942.8571428571429" fill="#000000"/><polygon points="680.2142857142857,897.5238095238096 680.2142857142857,342.8571428571429 748.2142857142857,365.5238095238096 748.2142857142857,920.1904761904763" fill="url('#backgroundGradient')"/><polygon points="748.2142857142857,365.5238095238096 680.2142857142857,342.8571428571429 748.2142857142857,342.8571428571429 816.2142857142857,365.5238095238096" fill="rgba(245, 245, 245, 1)"/><polygon points="748.2142857142857,942.8571428571429 748.2142857142857,365.5238095238096 816.2142857142857,365.5238095238096 816.2142857142857,942.8571428571429" fill="#000000"/><polygon points="565.9285714285713,897.5238095238096 565.9285714285713,228.57142857142858 633.9285714285713,251.23809523809524 633.9285714285713,920.1904761904763" fill="url('#backgroundGradient')"/><polygon points="633.9285714285713,251.23809523809524 565.9285714285713,228.57142857142858 633.9285714285713,228.57142857142858 701.9285714285713,251.23809523809524" fill="rgba(255, 255, 255, 1)"/><polygon points="633.9285714285713,942.8571428571429 633.9285714285713,251.23809523809524 701.9285714285713,251.23809523809524 701.9285714285713,942.8571428571429" fill="#000000"/><polygon points="451.64285714285705,897.5238095238096 451.64285714285705,342.8571428571429 519.6428571428571,365.5238095238096 519.6428571428571,920.1904761904763" fill="url('#backgroundGradient')"/><polygon points="519.6428571428571,365.5238095238096 451.6428571428571,342.8571428571429 519.6428571428571,342.8571428571429 587.6428571428571,365.5238095238096" fill="rgba(245, 245, 245, 1)"/><polygon points="519.6428571428571,942.8571428571429 519.6428571428571,365.5238095238096 587.6428571428571,365.5238095238096 587.6428571428571,942.8571428571429" fill="#000000"/><polygon points="337.3571428571428,897.5238095238096 337.3571428571428,457.14285714285717 405.3571428571428,479.80952380952385 405.3571428571428,920.1904761904763" fill="url('#backgroundGradient')"/><polygon points="405.3571428571428,479.80952380952385 337.3571428571428,457.14285714285717 405.3571428571428,457.14285714285717 473.3571428571428,479.80952380952385" fill="rgba(234, 234, 234, 1)"/><polygon points="405.3571428571428,942.8571428571429 405.3571428571428,479.80952380952385 473.3571428571428,479.80952380952385 473.3571428571428,942.8571428571429" fill="#000000"/><polygon points="223.0714285714285,897.5238095238096 223.0714285714285,228.57142857142858 291.0714285714285,251.23809523809524 291.0714285714285,920.1904761904763" fill="url('#backgroundGradient')"/><polygon points="291.0714285714285,251.23809523809524 223.0714285714285,228.57142857142858 291.0714285714285,228.57142857142858 359.0714285714285,251.23809523809524" fill="rgba(255, 255, 255, 1)"/><polygon points="291.0714285714285,942.8571428571429 291.0714285714285,251.23809523809524 359.0714285714285,251.23809523809524 359.0714285714285,942.8571428571429" fill="#000000"/><polygon points="108.78571428571422,897.5238095238096 108.78571428571422,342.8571428571429 176.78571428571422,365.5238095238096 176.78571428571422,920.1904761904763" fill="url('#backgroundGradient')"/><polygon points="176.78571428571422,365.5238095238096 108.78571428571422,342.8571428571429 176.78571428571422,342.8571428571429 244.78571428571422,365.5238095238096" fill="rgba(245, 245, 245, 1)"/><polygon points="176.78571428571422,942.8571428571429 176.78571428571422,365.5238095238096 244.78571428571422,365.5238095238096 244.78571428571422,942.8571428571429" fill="#000000"/></svg></svg>