<svg xmlns="http://www.w3.org/2000/svg" viewBox="0 0 1000 1000" style="background-color: rgb(53, 48, 54); width: 1000px; height: 1000px;"><svg viewBox="0 0 1000 1000" class="undefined" style="width: 1000px; height: 1000px;">
        <defs>
            <linearGradient id="backgroundGradient" gradientTransform="rotate(90)">
                <stop offset="0%" stop-color="rgba(129, 247, 229, 1)"/>
                <stop offset="100%" stop-color="rgba(221, 197, 227, 1)"/>

            </linearGradient>
        </defs>
    <polygon points="912.5,971.2857142857143 912.5,274.2857142857143 957.5,281.7857142857143 957.5,978.7857142857143" fill="url('#backgroundGradient')"/><polygon points="957.5,281.7857142857143 912.5,274.2857142857143 957.5,274.2857142857143 1002.5,281.7857142857143" fill="rgba(130, 247, 229, 1)"/><polygon points="957.5,986.2857142857143 957.5,281.7857142857143 1002.5,281.7857142857143 1002.5,986.2857142857143" fill="#353036"/><polygon points="885.0714285714286,971.2857142857143 885.0714285714286,850.2857142857142 930.0714285714286,857.7857142857142 930.0714285714286,978.7857142857143" fill="url('#backgroundGradient')"/><polygon points="930.0714285714286,857.7857142857142 885.0714285714286,850.2857142857142 930.0714285714286,850.2857142857142 975.0714285714286,857.7857142857142" fill="rgba(159, 247, 245, 1)"/><polygon points="930.0714285714286,986.2857142857143 930.0714285714286,857.7857142857142 975.0714285714286,857.7857142857142 975.0714285714286,986.2857142857143" fill="#353036"/><polygon points="857.6428571428571,971.2857142857143 857.6428571428571,356.57142857142856 902.6428571428571,364.07142857142856 902.6428571428571,978.7857142857143" fill="url('#backgroundGradient')"/><polygon points="902.6428571428571,364.07142857142856 857.6428571428571,356.57142857142856 902.6428571428571,356.57142857142856 947.6428571428571,364.07142857142856" fill="rgba(133, 247, 231, 1)"/><polygon points="902.6428571428571,986.2857142857143 902.6428571428571,364.07142857142856 947.6428571428571,364.07142857142856 947.6428571428571,986.2857142857143" fill="#353036"/><polygon points="830.2142857142857,971.2857142857143 830.2142857142857,768 875.2142857142857,775.5 875.2142857142857,978.7857142857143" fill="url('#backgroundGradient')"/><polygon points="875.2142857142857,775.5 830.2142857142857,768 875.2142857142857,768 920.2142857142857,775.5" fill="rgba(155, 247, 243, 1)"/><polygon points="875.2142857142857,986.2857142857143 875.2142857142857,775.5 920.2142857142857,775.5 920.2142857142857,986.2857142857143" fill="#353036"/><polygon points="802.7857142857142,971.2857142857143 802.7857142857142,822.8571428571428 847.7857142857142,830.3571428571428 847.7857142857142,978.7857142857143" fill="url('#backgroundGradient')"/><polygon points="847.7857142857142,830.3571428571428 802.7857142857142,822.8571428571428 847.7857142857142,822.8571428571428 892.7857142857142,830.3571428571428" fill="rgba(158, 248, 245, 1)"/><polygon points="847.7857142857142,986.2857142857143 847.7857142857142,830.3571428571428 892.7857142857142,830.3571428571428 892.7857142857142,986.2857142857143" fill="#353036"/><polygon points="775.3571428571428,971.2857142857143 775.3571428571428,521.1428571428571 820.3571428571428,528.6428571428571 820.3571428571428,978.7857142857143" fill="url('#backgroundGradient')"/><polygon points="820.3571428571428,528.6428571428571 775.3571428571428,521.1428571428571 820.3571428571428,521.1428571428571 865.3571428571428,528.6428571428571" fill="rgba(142, 247, 236, 1)"/><polygon points="820.3571428571428,986.2857142857143 820.3571428571428,528.6428571428571 865.3571428571428,528.6428571428571 865.3571428571428,986.2857142857143" fill="#353036"/><polygon points="747.9285714285713,971.2857142857143 747.9285714285713,438.85714285714283 792.9285714285713,446.35714285714283 792.9285714285713,978.7857142857143" fill="url('#backgroundGradient')"/><polygon points="792.9285714285713,446.35714285714283 747.9285714285713,438.85714285714283 792.9285714285713,438.85714285714283 837.9285714285713,446.35714285714283" fill="rgba(138, 247, 234, 1)"/><polygon points="792.9285714285713,986.2857142857143 792.9285714285713,446.35714285714283 837.9285714285713,446.35714285714283 837.9285714285713,986.2857142857143" fill="#353036"/><polygon points="720.4999999999999,971.2857142857143 720.4999999999999,576 765.4999999999999,583.5 765.4999999999999,978.7857142857143" fill="url('#backgroundGradient')"/><polygon points="765.4999999999999,583.5 720.4999999999999,576 765.4999999999999,576 810.4999999999999,583.5" fill="rgba(145, 247, 238, 1)"/><polygon points="765.4999999999999,986.2857142857143 765.4999999999999,583.5 810.4999999999999,583.5 810.4999999999999,986.2857142857143" fill="#353036"/><polygon points="693.0714285714284,971.2857142857143 693.0714285714284,356.57142857142856 738.0714285714284,364.07142857142856 738.0714285714284,978.7857142857143" fill="url('#backgroundGradient')"/><polygon points="738.0714285714284,364.07142857142856 693.0714285714284,356.57142857142856 738.0714285714284,356.57142857142856 783.0714285714284,364.07142857142856" fill="rgba(133, 247, 231, 1)"/><polygon points="738.0714285714284,986.2857142857143 738.0714285714284,364.07142857142856 783.0714285714284,364.07142857142856 783.0714285714284,986.2857142857143" fill="#353036"/><polygon points="665.642857142857,971.2857142857143 665.642857142857,576 710.642857142857,583.5 710.642857142857,978.7857142857143" fill="url('#backgroundGradient')"/><polygon points="710.642857142857,583.5 665.642857142857,576 710.642857142857,576 755.642857142857,583.5" fill="rgba(145, 247, 238, 1)"/><polygon points="710.642857142857,986.2857142857143 710.642857142857,583.5 755.642857142857,583.5 755.642857142857,986.2857142857143" fill="#353036"/><polygon points="638.2142857142856,971.2857142857143 638.2142857142856,356.57142857142856 683.2142857142856,364.07142857142856 683.2142857142856,978.7857142857143" fill="url('#backgroundGradient')"/><polygon points="683.2142857142856,364.07142857142856 638.2142857142856,356.57142857142856 683.2142857142856,356.57142857142856 728.2142857142856,364.07142857142856" fill="rgba(133, 247, 231, 1)"/><polygon points="683.2142857142856,986.2857142857143 683.2142857142856,364.07142857142856 728.2142857142856,364.07142857142856 728.2142857142856,986.2857142857143" fill="#353036"/><polygon points="610.7857142857141,971.2857142857143 610.7857142857141,740.5714285714286 655.7857142857141,748.0714285714286 655.7857142857141,978.7857142857143" fill="url('#backgroundGradient')"/><polygon points="655.7857142857141,748.0714285714286 610.7857142857141,740.5714285714286 655.7857142857141,740.5714285714286 700.7857142857141,748.0714285714286" fill="rgba(154, 247, 243, 1)"/><polygon points="655.7857142857141,986.2857142857143 655.7857142857141,748.0714285714286 700.7857142857141,748.0714285714286 700.7857142857141,986.2857142857143" fill="#353036"/><polygon points="583.3571428571427,971.2857142857143 583.3571428571427,768 628.3571428571427,775.5 628.3571428571427,978.7857142857143" fill="url('#backgroundGradient')"/><polygon points="628.3571428571427,775.5 583.3571428571427,768 628.3571428571427,768 673.3571428571427,775.5" fill="rgba(155, 247, 243, 1)"/><polygon points="628.3571428571427,986.2857142857143 628.3571428571427,775.5 673.3571428571427,775.5 673.3571428571427,986.2857142857143" fill="#353036"/><polygon points="555.9285714285712,971.2857142857143 555.9285714285712,301.7142857142857 600.9285714285712,309.2142857142857 600.9285714285712,978.7857142857143" fill="url('#backgroundGradient')"/><polygon points="600.9285714285712,309.2142857142857 555.9285714285712,301.7142857142857 600.9285714285712,301.7142857142857 645.9285714285712,309.2142857142857" fill="rgba(131, 247, 230, 1)"/><polygon points="600.9285714285712,986.2857142857143 600.9285714285712,309.2142857142857 645.9285714285712,309.2142857142857 645.9285714285712,986.2857142857143" fill="#353036"/><polygon points="528.4999999999998,971.2857142857143 528.4999999999998,768 573.4999999999998,775.5 573.4999999999998,978.7857142857143" fill="url('#backgroundGradient')"/><polygon points="573.4999999999998,775.5 528.4999999999998,768 573.4999999999998,768 618.4999999999998,775.5" fill="rgba(155, 247, 243, 1)"/><polygon points="573.4999999999998,986.2857142857143 573.4999999999998,775.5 618.4999999999998,775.5 618.4999999999998,986.2857142857143" fill="#353036"/><polygon points="501.0714285714283,971.2857142857143 501.0714285714283,384 546.0714285714283,391.5 546.0714285714283,978.7857142857143" fill="url('#backgroundGradient')"/><polygon points="546.0714285714283,391.5 501.0714285714283,384 546.0714285714283,384 591.0714285714283,391.5" fill="rgba(135, 247, 232, 1)"/><polygon points="546.0714285714283,986.2857142857143 546.0714285714283,391.5 591.0714285714283,391.5 591.0714285714283,986.2857142857143" fill="#353036"/><polygon points="473.6428571428569,971.2857142857143 473.6428571428569,905.1428571428571 518.6428571428569,912.6428571428571 518.6428571428569,978.7857142857143" fill="url('#backgroundGradient')"/><polygon points="518.6428571428569,912.6428571428571 473.6428571428569,905.1428571428571 518.6428571428569,905.1428571428571 563.6428571428569,912.6428571428571" fill="rgba(162, 247, 247, 1)"/><polygon points="518.6428571428569,986.2857142857143 518.6428571428569,912.6428571428571 563.6428571428569,912.6428571428571 563.6428571428569,986.2857142857143" fill="#353036"/><polygon points="446.21428571428544,971.2857142857143 446.21428571428544,850.2857142857142 491.21428571428544,857.7857142857142 491.21428571428544,978.7857142857143" fill="url('#backgroundGradient')"/><polygon points="491.21428571428544,857.7857142857142 446.21428571428544,850.2857142857142 491.21428571428544,850.2857142857142 536.2142857142854,857.7857142857142" fill="rgba(159, 247, 245, 1)"/><polygon points="491.21428571428544,986.2857142857143 491.21428571428544,857.7857142857142 536.2142857142854,857.7857142857142 536.2142857142854,986.2857142857143" fill="#353036"/><polygon points="418.785714285714,971.2857142857143 418.785714285714,685.7142857142857 463.785714285714,693.2142857142857 463.785714285714,978.7857142857143" fill="url('#backgroundGradient')"/><polygon points="463.785714285714,693.2142857142857 418.785714285714,685.7142857142857 463.785714285714,685.7142857142857 508.785714285714,693.2142857142857" fill="rgba(151, 247, 241, 1)"/><polygon points="463.785714285714,986.2857142857143 463.785714285714,693.2142857142857 508.785714285714,693.2142857142857 508.785714285714,986.2857142857143" fill="#353036"/><polygon points="391.35714285714255,971.2857142857143 391.35714285714255,192 436.35714285714255,199.5 436.35714285714255,978.7857142857143" fill="url('#backgroundGradient')"/><polygon points="436.35714285714255,199.5 391.35714285714255,192 436.35714285714255,192 481.35714285714255,199.5" fill="rgba(129, 247, 229, 1)"/><polygon points="436.35714285714255,986.2857142857143 436.35714285714255,199.5 481.35714285714255,199.5 481.35714285714255,986.2857142857143" fill="#353036"/><polygon points="363.9285714285711,971.2857142857143 363.9285714285711,768 408.9285714285711,775.5 408.9285714285711,978.7857142857143" fill="url('#backgroundGradient')"/><polygon points="408.9285714285711,775.5 363.9285714285711,768 408.9285714285711,768 453.9285714285711,775.5" fill="rgba(155, 247, 243, 1)"/><polygon points="408.9285714285711,986.2857142857143 408.9285714285711,775.5 453.9285714285711,775.5 453.9285714285711,986.2857142857143" fill="#353036"/><polygon points="336.49999999999966,971.2857142857143 336.49999999999966,219.42857142857142 381.49999999999966,226.92857142857142 381.49999999999966,978.7857142857143" fill="url('#backgroundGradient')"/><polygon points="381.49999999999966,226.92857142857142 336.49999999999966,219.42857142857142 381.49999999999966,219.42857142857142 426.49999999999966,226.92857142857142" fill="rgba(129, 247, 229, 1)"/><polygon points="381.49999999999966,986.2857142857143 381.49999999999966,226.92857142857142 426.49999999999966,226.92857142857142 426.49999999999966,986.2857142857143" fill="#353036"/><polygon points="309.0714285714282,971.2857142857143 309.0714285714282,192 354.0714285714282,199.5 354.0714285714282,978.7857142857143" fill="url('#backgroundGradient')"/><polygon points="354.0714285714282,199.5 309.0714285714282,192 354.0714285714282,192 399.0714285714282,199.5" fill="rgba(129, 247, 229, 1)"/><polygon points="354.0714285714282,986.2857142857143 354.0714285714282,199.5 399.0714285714282,199.5 399.0714285714282,986.2857142857143" fill="#353036"/><polygon points="281.64285714285677,971.2857142857143 281.64285714285677,576 326.64285714285677,583.5 326.64285714285677,978.7857142857143" fill="url('#backgroundGradient')"/><polygon points="326.64285714285677,583.5 281.64285714285677,576 326.64285714285677,576 371.64285714285677,583.5" fill="rgba(145, 247, 238, 1)"/><polygon points="326.64285714285677,986.2857142857143 326.64285714285677,583.5 371.64285714285677,583.5 371.64285714285677,986.2857142857143" fill="#353036"/><polygon points="254.21428571428532,971.2857142857143 254.21428571428532,713.1428571428571 299.2142857142853,720.6428571428571 299.2142857142853,978.7857142857143" fill="url('#backgroundGradient')"/><polygon points="299.2142857142853,720.6428571428571 254.21428571428532,713.1428571428571 299.2142857142853,713.1428571428571 344.2142857142853,720.6428571428571" fill="rgba(152, 247, 241, 1)"/><polygon points="299.2142857142853,986.2857142857143 299.2142857142853,720.6428571428571 344.2142857142853,720.6428571428571 344.2142857142853,986.2857142857143" fill="#353036"/><polygon points="226.7857142857139,971.2857142857143 226.7857142857139,576 271.7857142857139,583.5 271.7857142857139,978.7857142857143" fill="url('#backgroundGradient')"/><polygon points="271.7857142857139,583.5 226.78571428571388,576 271.7857142857139,576 316.7857142857139,583.5" fill="rgba(145, 247, 238, 1)"/><polygon points="271.7857142857139,986.2857142857143 271.7857142857139,583.5 316.7857142857139,583.5 316.7857142857139,986.2857142857143" fill="#353036"/><polygon points="199.3571428571425,971.2857142857143 199.3571428571425,576 244.3571428571425,583.5 244.3571428571425,978.7857142857143" fill="url('#backgroundGradient')"/><polygon points="244.3571428571425,583.5 199.3571428571425,576 244.3571428571425,576 289.3571428571425,583.5" fill="rgba(145, 247, 238, 1)"/><polygon points="244.3571428571425,986.2857142857143 244.3571428571425,583.5 289.3571428571425,583.5 289.3571428571425,986.2857142857143" fill="#353036"/><polygon points="171.92857142857108,971.2857142857143 171.92857142857108,576 216.92857142857108,583.5 216.92857142857108,978.7857142857143" fill="url('#backgroundGradient')"/><polygon points="216.92857142857108,583.5 171.92857142857108,576 216.92857142857108,576 261.9285714285711,583.5" fill="rgba(145, 247, 238, 1)"/><polygon points="216.92857142857108,986.2857142857143 216.92857142857108,583.5 261.9285714285711,583.5 261.9285714285711,986.2857142857143" fill="#353036"/><polygon points="144.49999999999966,971.2857142857143 144.49999999999966,493.71428571428567 189.49999999999966,501.21428571428567 189.49999999999966,978.7857142857143" fill="url('#backgroundGradient')"/><polygon points="189.49999999999966,501.21428571428567 144.49999999999966,493.71428571428567 189.49999999999966,493.71428571428567 234.49999999999966,501.21428571428567" fill="rgba(140, 247, 235, 1)"/><polygon points="189.49999999999966,986.2857142857143 189.49999999999966,501.21428571428567 234.49999999999966,501.21428571428567 234.49999999999966,986.2857142857143" fill="#353036"/><polygon points="117.07142857142824,971.2857142857143 117.07142857142824,493.71428571428567 162.07142857142824,501.21428571428567 162.07142857142824,978.7857142857143" fill="url('#backgroundGradient')"/><polygon points="162.07142857142824,501.21428571428567 117.07142857142824,493.71428571428567 162.07142857142824,493.71428571428567 207.07142857142824,501.21428571428567" fill="rgba(140, 247, 235, 1)"/><polygon points="162.07142857142824,986.2857142857143 162.07142857142824,501.21428571428567 207.07142857142824,501.21428571428567 207.07142857142824,986.2857142857143" fill="#353036"/><polygon points="89.64285714285681,971.2857142857143 89.64285714285681,795.4285714285713 134.64285714285683,802.9285714285713 134.64285714285683,978.7857142857143" fill="url('#backgroundGradient')"/><polygon points="134.64285714285683,802.9285714285713 89.64285714285683,795.4285714285713 134.64285714285683,795.4285714285713 179.64285714285683,802.9285714285713" fill="rgba(155, 247, 243, 1)"/><polygon points="134.64285714285683,986.2857142857143 134.64285714285683,802.9285714285713 179.64285714285683,802.9285714285713 179.64285714285683,986.2857142857143" fill="#353036"/><polygon points="62.21428571428538,971.2857142857143 62.21428571428538,877.7142857142857 107.21428571428538,885.2142857142857 107.21428571428538,978.7857142857143" fill="url('#backgroundGradient')"/><polygon points="107.21428571428538,885.2142857142857 62.21428571428538,877.7142857142857 107.21428571428538,877.7142857142857 152.21428571428538,885.2142857142857" fill="rgba(161, 248, 246, 1)"/><polygon points="107.21428571428538,986.2857142857143 107.21428571428538,885.2142857142857 152.21428571428538,885.2142857142857 152.21428571428538,986.2857142857143" fill="#353036"/><polygon points="34.78571428571395,971.2857142857143 34.78571428571395,411.4285714285714 79.78571428571395,418.9285714285714 79.78571428571395,978.7857142857143" fill="url('#backgroundGradient')"/><polygon points="79.78571428571395,418.9285714285714 34.78571428571395,411.4285714285714 79.78571428571395,411.4285714285714 124.78571428571395,418.9285714285714" fill="rgba(137, 247, 233, 1)"/><polygon points="79.78571428571395,986.2857142857143 79.78571428571395,418.9285714285714 124.78571428571395,418.9285714285714 124.78571428571395,986.2857142857143" fill="#353036"/><polygon points="7.357142857142524,971.2857142857143 7.357142857142524,246.85714285714283 52.35714285714252,254.35714285714283 52.35714285714252,978.7857142857143" fill="url('#backgroundGradient')"/><polygon points="52.35714285714252,254.35714285714283 7.35714285714252,246.85714285714283 52.35714285714252,246.85714285714283 97.35714285714252,254.35714285714283" fill="rgba(129, 247, 229, 1)"/><polygon points="52.35714285714252,986.2857142857143 52.35714285714252,254.35714285714283 97.35714285714252,254.35714285714283 97.35714285714252,986.2857142857143" fill="#353036"/></svg></svg>