<svg xmlns="http://www.w3.org/2000/svg" viewBox="0 0 1000 1000" style="background-color: rgb(0, 0, 0); width: 1000px; height: 1000px;"><svg viewBox="0 0 1000 1000" class="undefined" style="width: 1000px; height: 1000px;">
        <defs>
            <linearGradient id="backgroundGradient" gradientTransform="rotate(90)">
                <stop offset="0%" stop-color="rgba(254, 185, 8, 1)"/>
                <stop offset="100%" stop-color="rgba(107, 3, 14, 1)"/>

            </linearGradient>
        </defs>
    <polygon points="914,968.2823529411766 914,847.0588235294117 958,855.8588235294117 958,977.0823529411765" fill="url('#backgroundGradient')"/><polygon points="958,855.8588235294117 914,847.0588235294117 958,847.0588235294117 1002,855.8588235294117" fill="rgba(245, 144, 6, 1)"/><polygon points="958,985.8823529411765 958,855.8588235294117 1002,855.8588235294117 1002,985.8823529411765" fill="#000000"/><polygon points="885.7647058823529,968.2823529411766 885.7647058823529,367.05882352941177 929.7647058823529,375.8588235294118 929.7647058823529,977.0823529411765" fill="url('#backgroundGradient')"/><polygon points="929.7647058823529,375.8588235294118 885.7647058823529,367.05882352941177 929.7647058823529,367.05882352941177 973.7647058823529,375.8588235294118" fill="rgba(250, 166, 7, 1)"/><polygon points="929.7647058823529,985.8823529411765 929.7647058823529,375.8588235294118 973.7647058823529,375.8588235294118 973.7647058823529,985.8823529411765" fill="#000000"/><polygon points="857.5294117647059,968.2823529411766 857.5294117647059,847.0588235294117 901.5294117647059,855.8588235294117 901.5294117647059,977.0823529411765" fill="url('#backgroundGradient')"/><polygon points="901.5294117647059,855.8588235294117 857.5294117647059,847.0588235294117 901.5294117647059,847.0588235294117 945.5294117647059,855.8588235294117" fill="rgba(245, 144, 6, 1)"/><polygon points="901.5294117647059,985.8823529411765 901.5294117647059,855.8588235294117 945.5294117647059,855.8588235294117 945.5294117647059,985.8823529411765" fill="#000000"/><polygon points="829.2941176470588,968.2823529411766 829.2941176470588,225.88235294117646 873.2941176470588,234.68235294117648 873.2941176470588,977.0823529411765" fill="url('#backgroundGradient')"/><polygon points="873.2941176470588,234.68235294117648 829.2941176470588,225.88235294117646 873.2941176470588,225.88235294117646 917.2941176470588,234.68235294117648" fill="rgba(252, 174, 7, 1)"/><polygon points="873.2941176470588,985.8823529411765 873.2941176470588,234.68235294117648 917.2941176470588,234.68235294117648 917.2941176470588,985.8823529411765" fill="#000000"/><polygon points="801.0588235294117,968.2823529411766 801.0588235294117,225.88235294117646 845.0588235294117,234.68235294117648 845.0588235294117,977.0823529411765" fill="url('#backgroundGradient')"/><polygon points="845.0588235294117,234.68235294117648 801.0588235294117,225.88235294117646 845.0588235294117,225.88235294117646 889.0588235294117,234.68235294117648" fill="rgba(252, 174, 7, 1)"/><polygon points="845.0588235294117,985.8823529411765 845.0588235294117,234.68235294117648 889.0588235294117,234.68235294117648 889.0588235294117,985.8823529411765" fill="#000000"/><polygon points="772.8235294117646,968.2823529411766 772.8235294117646,903.5294117647059 816.8235294117646,912.3294117647058 816.8235294117646,977.0823529411765" fill="url('#backgroundGradient')"/><polygon points="816.8235294117646,912.3294117647058 772.8235294117646,903.5294117647059 816.8235294117646,903.5294117647059 860.8235294117646,912.3294117647058" fill="rgba(244, 141, 6, 1)"/><polygon points="816.8235294117646,985.8823529411765 816.8235294117646,912.3294117647058 860.8235294117646,912.3294117647058 860.8235294117646,985.8823529411765" fill="#000000"/><polygon points="744.5882352941176,968.2823529411766 744.5882352941176,451.7647058823529 788.5882352941176,460.56470588235294 788.5882352941176,977.0823529411765" fill="url('#backgroundGradient')"/><polygon points="788.5882352941176,460.56470588235294 744.5882352941176,451.7647058823529 788.5882352941176,451.7647058823529 832.5882352941176,460.56470588235294" fill="rgba(250, 163, 7, 1)"/><polygon points="788.5882352941176,985.8823529411765 788.5882352941176,460.56470588235294 832.5882352941176,460.56470588235294 832.5882352941176,985.8823529411765" fill="#000000"/><polygon points="716.3529411764705,968.2823529411766 716.3529411764705,762.3529411764706 760.3529411764705,771.1529411764706 760.3529411764705,977.0823529411765" fill="url('#backgroundGradient')"/><polygon points="760.3529411764705,771.1529411764706 716.3529411764705,762.3529411764706 760.3529411764705,762.3529411764706 804.3529411764705,771.1529411764706" fill="rgba(246, 149, 6, 1)"/><polygon points="760.3529411764705,985.8823529411765 760.3529411764705,771.1529411764706 804.3529411764705,771.1529411764706 804.3529411764705,985.8823529411765" fill="#000000"/><polygon points="688.1176470588234,968.2823529411766 688.1176470588234,423.52941176470586 732.1176470588234,432.32941176470587 732.1176470588234,977.0823529411765" fill="url('#backgroundGradient')"/><polygon points="732.1176470588234,432.32941176470587 688.1176470588234,423.52941176470586 732.1176470588234,423.52941176470586 776.1176470588234,432.32941176470587" fill="rgba(250, 165, 7, 1)"/><polygon points="732.1176470588234,985.8823529411765 732.1176470588234,432.32941176470587 776.1176470588234,432.32941176470587 776.1176470588234,985.8823529411765" fill="#000000"/><polygon points="659.8823529411764,968.2823529411766 659.8823529411764,762.3529411764706 703.8823529411764,771.1529411764706 703.8823529411764,977.0823529411765" fill="url('#backgroundGradient')"/><polygon points="703.8823529411764,771.1529411764706 659.8823529411764,762.3529411764706 703.8823529411764,762.3529411764706 747.8823529411764,771.1529411764706" fill="rgba(246, 149, 6, 1)"/><polygon points="703.8823529411764,985.8823529411765 703.8823529411764,771.1529411764706 747.8823529411764,771.1529411764706 747.8823529411764,985.8823529411765" fill="#000000"/><polygon points="631.6470588235293,968.2823529411766 631.6470588235293,762.3529411764706 675.6470588235293,771.1529411764706 675.6470588235293,977.0823529411765" fill="url('#backgroundGradient')"/><polygon points="675.6470588235293,771.1529411764706 631.6470588235293,762.3529411764706 675.6470588235293,762.3529411764706 719.6470588235293,771.1529411764706" fill="rgba(246, 149, 6, 1)"/><polygon points="675.6470588235293,985.8823529411765 675.6470588235293,771.1529411764706 719.6470588235293,771.1529411764706 719.6470588235293,985.8823529411765" fill="#000000"/><polygon points="603.4117647058822,968.2823529411766 603.4117647058822,818.8235294117646 647.4117647058822,827.6235294117646 647.4117647058822,977.0823529411765" fill="url('#backgroundGradient')"/><polygon points="647.4117647058822,827.6235294117646 603.4117647058822,818.8235294117646 647.4117647058822,818.8235294117646 691.4117647058822,827.6235294117646" fill="rgba(245, 146, 6, 1)"/><polygon points="647.4117647058822,985.8823529411765 647.4117647058822,827.6235294117646 691.4117647058822,827.6235294117646 691.4117647058822,985.8823529411765" fill="#000000"/><polygon points="575.1764705882351,968.2823529411766 575.1764705882351,254.11764705882354 619.1764705882351,262.91764705882355 619.1764705882351,977.0823529411765" fill="url('#backgroundGradient')"/><polygon points="619.1764705882351,262.91764705882355 575.1764705882351,254.11764705882354 619.1764705882351,254.11764705882354 663.1764705882351,262.91764705882355" fill="rgba(252, 173, 7, 1)"/><polygon points="619.1764705882351,985.8823529411765 619.1764705882351,262.91764705882355 663.1764705882351,262.91764705882355 663.1764705882351,985.8823529411765" fill="#000000"/><polygon points="546.9411764705881,968.2823529411766 546.9411764705881,790.5882352941176 590.9411764705881,799.3882352941175 590.9411764705881,977.0823529411765" fill="url('#backgroundGradient')"/><polygon points="590.9411764705881,799.3882352941175 546.9411764705881,790.5882352941176 590.9411764705881,790.5882352941176 634.9411764705881,799.3882352941175" fill="rgba(245, 147, 6, 1)"/><polygon points="590.9411764705881,985.8823529411765 590.9411764705881,799.3882352941175 634.9411764705881,799.3882352941175 634.9411764705881,985.8823529411765" fill="#000000"/><polygon points="518.705882352941,968.2823529411766 518.705882352941,875.2941176470588 562.705882352941,884.0941176470587 562.705882352941,977.0823529411765" fill="url('#backgroundGradient')"/><polygon points="562.705882352941,884.0941176470587 518.705882352941,875.2941176470588 562.705882352941,875.2941176470588 606.705882352941,884.0941176470587" fill="rgba(244, 142, 6, 1)"/><polygon points="562.705882352941,985.8823529411765 562.705882352941,884.0941176470587 606.705882352941,884.0941176470587 606.705882352941,985.8823529411765" fill="#000000"/><polygon points="490.4705882352939,968.2823529411766 490.4705882352939,367.05882352941177 534.4705882352939,375.8588235294118 534.4705882352939,977.0823529411765" fill="url('#backgroundGradient')"/><polygon points="534.4705882352939,375.8588235294118 490.4705882352939,367.05882352941177 534.4705882352939,367.05882352941177 578.4705882352939,375.8588235294118" fill="rgba(250, 166, 7, 1)"/><polygon points="534.4705882352939,985.8823529411765 534.4705882352939,375.8588235294118 578.4705882352939,375.8588235294118 578.4705882352939,985.8823529411765" fill="#000000"/><polygon points="462.23529411764684,968.2823529411766 462.23529411764684,564.7058823529412 506.23529411764684,573.5058823529412 506.23529411764684,977.0823529411765" fill="url('#backgroundGradient')"/><polygon points="506.23529411764684,573.5058823529412 462.23529411764684,564.7058823529412 506.23529411764684,564.7058823529412 550.2352941176468,573.5058823529412" fill="rgba(249, 158, 7, 1)"/><polygon points="506.23529411764684,985.8823529411765 506.23529411764684,573.5058823529412 550.2352941176468,573.5058823529412 550.2352941176468,985.8823529411765" fill="#000000"/><polygon points="433.9999999999998,968.2823529411766 433.9999999999998,508.2352941176471 477.9999999999998,517.035294117647 477.9999999999998,977.0823529411765" fill="url('#backgroundGradient')"/><polygon points="477.9999999999998,517.035294117647 433.9999999999998,508.235294117647 477.9999999999998,508.235294117647 521.9999999999998,517.035294117647" fill="rgba(249, 160, 6, 1)"/><polygon points="477.9999999999998,985.8823529411765 477.9999999999998,517.035294117647 521.9999999999998,517.035294117647 521.9999999999998,985.8823529411765" fill="#000000"/><polygon points="405.7647058823527,968.2823529411766 405.7647058823527,762.3529411764706 449.7647058823527,771.1529411764706 449.7647058823527,977.0823529411765" fill="url('#backgroundGradient')"/><polygon points="449.7647058823527,771.1529411764706 405.7647058823527,762.3529411764706 449.7647058823527,762.3529411764706 493.7647058823527,771.1529411764706" fill="rgba(246, 149, 6, 1)"/><polygon points="449.7647058823527,985.8823529411765 449.7647058823527,771.1529411764706 493.7647058823527,771.1529411764706 493.7647058823527,985.8823529411765" fill="#000000"/><polygon points="377.5294117647056,968.2823529411766 377.5294117647056,367.05882352941177 421.5294117647056,375.8588235294118 421.5294117647056,977.0823529411765" fill="url('#backgroundGradient')"/><polygon points="421.5294117647056,375.8588235294118 377.5294117647056,367.05882352941177 421.5294117647056,367.05882352941177 465.5294117647056,375.8588235294118" fill="rgba(250, 166, 7, 1)"/><polygon points="421.5294117647056,985.8823529411765 421.5294117647056,375.8588235294118 465.5294117647056,375.8588235294118 465.5294117647056,985.8823529411765" fill="#000000"/><polygon points="349.29411764705856,968.2823529411766 349.29411764705856,367.05882352941177 393.29411764705856,375.8588235294118 393.29411764705856,977.0823529411765" fill="url('#backgroundGradient')"/><polygon points="393.29411764705856,375.8588235294118 349.29411764705856,367.05882352941177 393.29411764705856,367.05882352941177 437.29411764705856,375.8588235294118" fill="rgba(250, 166, 7, 1)"/><polygon points="393.29411764705856,985.8823529411765 393.29411764705856,375.8588235294118 437.29411764705856,375.8588235294118 437.29411764705856,985.8823529411765" fill="#000000"/><polygon points="321.0588235294115,968.2823529411766 321.0588235294115,621.1764705882352 365.0588235294115,629.9764705882352 365.0588235294115,977.0823529411765" fill="url('#backgroundGradient')"/><polygon points="365.0588235294115,629.9764705882352 321.0588235294115,621.1764705882352 365.0588235294115,621.1764705882352 409.0588235294115,629.9764705882352" fill="rgba(248, 155, 6, 1)"/><polygon points="365.0588235294115,985.8823529411765 365.0588235294115,629.9764705882352 409.0588235294115,629.9764705882352 409.0588235294115,985.8823529411765" fill="#000000"/><polygon points="292.8235294117644,968.2823529411766 292.8235294117644,705.8823529411765 336.8235294117644,714.6823529411764 336.8235294117644,977.0823529411765" fill="url('#backgroundGradient')"/><polygon points="336.8235294117644,714.6823529411764 292.8235294117644,705.8823529411765 336.8235294117644,705.8823529411765 380.8235294117644,714.6823529411764" fill="rgba(246, 150, 6, 1)"/><polygon points="336.8235294117644,985.8823529411765 336.8235294117644,714.6823529411764 380.8235294117644,714.6823529411764 380.8235294117644,985.8823529411765" fill="#000000"/><polygon points="264.58823529411734,968.2823529411766 264.58823529411734,423.52941176470586 308.58823529411734,432.32941176470587 308.58823529411734,977.0823529411765" fill="url('#backgroundGradient')"/><polygon points="308.58823529411734,432.32941176470587 264.58823529411734,423.52941176470586 308.58823529411734,423.52941176470586 352.58823529411734,432.32941176470587" fill="rgba(250, 165, 7, 1)"/><polygon points="308.58823529411734,985.8823529411765 308.58823529411734,432.32941176470587 352.58823529411734,432.32941176470587 352.58823529411734,985.8823529411765" fill="#000000"/><polygon points="236.35294117647027,968.2823529411766 236.35294117647027,762.3529411764706 280.35294117647027,771.1529411764706 280.35294117647027,977.0823529411765" fill="url('#backgroundGradient')"/><polygon points="280.35294117647027,771.1529411764706 236.35294117647027,762.3529411764706 280.35294117647027,762.3529411764706 324.35294117647027,771.1529411764706" fill="rgba(246, 149, 6, 1)"/><polygon points="280.35294117647027,985.8823529411765 280.35294117647027,771.1529411764706 324.35294117647027,771.1529411764706 324.35294117647027,985.8823529411765" fill="#000000"/><polygon points="208.1176470588232,968.2823529411766 208.1176470588232,677.6470588235294 252.1176470588232,686.4470588235293 252.1176470588232,977.0823529411765" fill="url('#backgroundGradient')"/><polygon points="252.1176470588232,686.4470588235293 208.1176470588232,677.6470588235294 252.1176470588232,677.6470588235294 296.1176470588232,686.4470588235293" fill="rgba(247, 152, 6, 1)"/><polygon points="252.1176470588232,985.8823529411765 252.1176470588232,686.4470588235293 296.1176470588232,686.4470588235293 296.1176470588232,985.8823529411765" fill="#000000"/><polygon points="179.88235294117612,968.2823529411766 179.88235294117612,310.5882352941176 223.88235294117612,319.38823529411764 223.88235294117612,977.0823529411765" fill="url('#backgroundGradient')"/><polygon points="223.88235294117612,319.38823529411764 179.88235294117612,310.5882352941176 223.88235294117612,310.5882352941176 267.8823529411761,319.38823529411764" fill="rgba(251, 169, 7, 1)"/><polygon points="223.88235294117612,985.8823529411765 223.88235294117612,319.38823529411764 267.8823529411761,319.38823529411764 267.8823529411761,985.8823529411765" fill="#000000"/><polygon points="151.64705882352905,968.2823529411766 151.64705882352905,790.5882352941176 195.64705882352905,799.3882352941175 195.64705882352905,977.0823529411765" fill="url('#backgroundGradient')"/><polygon points="195.64705882352905,799.3882352941175 151.64705882352905,790.5882352941176 195.64705882352905,790.5882352941176 239.64705882352905,799.3882352941175" fill="rgba(245, 147, 6, 1)"/><polygon points="195.64705882352905,985.8823529411765 195.64705882352905,799.3882352941175 239.64705882352905,799.3882352941175 239.64705882352905,985.8823529411765" fill="#000000"/><polygon points="123.41176470588198,968.2823529411766 123.41176470588198,536.4705882352941 167.41176470588198,545.2705882352941 167.41176470588198,977.0823529411765" fill="url('#backgroundGradient')"/><polygon points="167.41176470588198,545.2705882352941 123.41176470588198,536.4705882352941 167.41176470588198,536.4705882352941 211.41176470588198,545.2705882352941" fill="rgba(249, 158, 7, 1)"/><polygon points="167.41176470588198,985.8823529411765 167.41176470588198,545.2705882352941 211.41176470588198,545.2705882352941 211.41176470588198,985.8823529411765" fill="#000000"/><polygon points="95.17647058823492,968.2823529411766 95.17647058823492,367.05882352941177 139.1764705882349,375.8588235294118 139.1764705882349,977.0823529411765" fill="url('#backgroundGradient')"/><polygon points="139.1764705882349,375.8588235294118 95.1764705882349,367.05882352941177 139.1764705882349,367.05882352941177 183.1764705882349,375.8588235294118" fill="rgba(250, 166, 7, 1)"/><polygon points="139.1764705882349,985.8823529411765 139.1764705882349,375.8588235294118 183.1764705882349,375.8588235294118 183.1764705882349,985.8823529411765" fill="#000000"/><polygon points="66.94117647058786,968.2823529411766 66.94117647058786,847.0588235294117 110.94117647058786,855.8588235294117 110.94117647058786,977.0823529411765" fill="url('#backgroundGradient')"/><polygon points="110.94117647058786,855.8588235294117 66.94117647058786,847.0588235294117 110.94117647058786,847.0588235294117 154.94117647058786,855.8588235294117" fill="rgba(245, 144, 6, 1)"/><polygon points="110.94117647058786,985.8823529411765 110.94117647058786,855.8588235294117 154.94117647058786,855.8588235294117 154.94117647058786,985.8823529411765" fill="#000000"/><polygon points="38.705882352940804,968.2823529411766 38.705882352940804,451.7647058823529 82.7058823529408,460.56470588235294 82.7058823529408,977.0823529411765" fill="url('#backgroundGradient')"/><polygon points="82.7058823529408,460.56470588235294 38.705882352940804,451.7647058823529 82.7058823529408,451.7647058823529 126.7058823529408,460.56470588235294" fill="rgba(250, 163, 7, 1)"/><polygon points="82.7058823529408,985.8823529411765 82.7058823529408,460.56470588235294 126.7058823529408,460.56470588235294 126.7058823529408,985.8823529411765" fill="#000000"/><polygon points="10.470588235293746,968.2823529411766 10.470588235293746,480 54.47058823529375,488.8 54.47058823529375,977.0823529411765" fill="url('#backgroundGradient')"/><polygon points="54.47058823529375,488.8 10.470588235293746,480 54.47058823529375,480 98.47058823529375,488.8" fill="rgba(249, 162, 7, 1)"/><polygon points="54.47058823529375,985.8823529411765 54.47058823529375,488.8 98.47058823529375,488.8 98.47058823529375,985.8823529411765" fill="#000000"/></svg></svg>