<svg xmlns="http://www.w3.org/2000/svg" viewBox="0 0 1000 1000" style="background-color: rgb(0, 0, 0); width: 1000px; height: 1000px;"><svg viewBox="0 0 1000 1000" class="undefined" style="width: 1000px; height: 1000px;">
        <defs>
            <linearGradient id="backgroundGradient" gradientTransform="rotate(90)">
                <stop offset="0%" stop-color="rgba(0, 245, 212, 1)"/>
                <stop offset="100%" stop-color="rgba(156, 92, 227, 1)"/>

            </linearGradient>
        </defs>
    <polygon points="931,961.3333333333333 931,600 957,604.3333333333334 957,965.6666666666666" fill="url('#backgroundGradient')"/><polygon points="957,604.3333333333334 931,600 957,600 983,604.3333333333334" fill="rgba(0, 221, 227, 1)"/><polygon points="957,970 957,604.3333333333334 983,604.3333333333334 983,970" fill="#000000"/><polygon points="871,961.3333333333333 871,420 897,424.3333333333333 897,965.6666666666666" fill="url('#backgroundGradient')"/><polygon points="897,424.3333333333333 871,420 897,420 923,424.3333333333333" fill="rgba(0, 233, 219, 1)"/><polygon points="897,970 897,424.3333333333333 923,424.3333333333333 923,970" fill="#000000"/><polygon points="811,961.3333333333333 811,480 837,484.3333333333333 837,965.6666666666666" fill="url('#backgroundGradient')"/><polygon points="837,484.3333333333333 811,480 837,480 863,484.3333333333333" fill="rgba(0, 228, 222, 1)"/><polygon points="837,970 837,484.3333333333333 863,484.3333333333333 863,970" fill="#000000"/><polygon points="751,961.3333333333333 751,720 777,724.3333333333334 777,965.6666666666666" fill="url('#backgroundGradient')"/><polygon points="777,724.3333333333334 751,720 777,720 803,724.3333333333334" fill="rgba(0, 211, 233, 1)"/><polygon points="777,970 777,724.3333333333334 803,724.3333333333334 803,970" fill="#000000"/><polygon points="691,961.3333333333333 691,660 717,664.3333333333334 717,965.6666666666666" fill="url('#backgroundGradient')"/><polygon points="717,664.3333333333334 691,660 717,660 743,664.3333333333334" fill="rgba(0, 216, 230, 1)"/><polygon points="717,970 717,664.3333333333334 743,664.3333333333334 743,970" fill="#000000"/><polygon points="631,961.3333333333333 631,420 657,424.3333333333333 657,965.6666666666666" fill="url('#backgroundGradient')"/><polygon points="657,424.3333333333333 631,420 657,420 683,424.3333333333333" fill="rgba(0, 233, 219, 1)"/><polygon points="657,970 657,424.3333333333333 683,424.3333333333333 683,970" fill="#000000"/><polygon points="571,961.3333333333333 571,360 597,364.3333333333333 597,965.6666666666666" fill="url('#backgroundGradient')"/><polygon points="597,364.3333333333333 571,360 597,360 623,364.3333333333333" fill="rgba(0, 238, 216, 1)"/><polygon points="597,970 597,364.3333333333333 623,364.3333333333333 623,970" fill="#000000"/><polygon points="511,961.3333333333333 511,540 537,544.3333333333334 537,965.6666666666666" fill="url('#backgroundGradient')"/><polygon points="537,544.3333333333334 511,540 537,540 563,544.3333333333334" fill="rgba(0, 223, 225, 1)"/><polygon points="537,970 537,544.3333333333334 563,544.3333333333334 563,970" fill="#000000"/><polygon points="451,961.3333333333333 451,480 477,484.3333333333333 477,965.6666666666666" fill="url('#backgroundGradient')"/><polygon points="477,484.3333333333333 451,480 477,480 503,484.3333333333333" fill="rgba(0, 228, 222, 1)"/><polygon points="477,970 477,484.3333333333333 503,484.3333333333333 503,970" fill="#000000"/><polygon points="391,961.3333333333333 391,300 417,304.3333333333333 417,965.6666666666666" fill="url('#backgroundGradient')"/><polygon points="417,304.3333333333333 391,300 417,300 443,304.3333333333333" fill="rgba(0, 244, 213, 1)"/><polygon points="417,970 417,304.3333333333333 443,304.3333333333333 443,970" fill="#000000"/><polygon points="331,961.3333333333333 331,780 357,784.3333333333334 357,965.6666666666666" fill="url('#backgroundGradient')"/><polygon points="357,784.3333333333334 331,780 357,780 383,784.3333333333334" fill="rgba(0, 205, 236, 1)"/><polygon points="357,970 357,784.3333333333334 383,784.3333333333334 383,970" fill="#000000"/><polygon points="271,961.3333333333333 271,300 297,304.3333333333333 297,965.6666666666666" fill="url('#backgroundGradient')"/><polygon points="297,304.3333333333333 271,300 297,300 323,304.3333333333333" fill="rgba(0, 244, 213, 1)"/><polygon points="297,970 297,304.3333333333333 323,304.3333333333333 323,970" fill="#000000"/><polygon points="211,961.3333333333333 211,420 237,424.3333333333333 237,965.6666666666666" fill="url('#backgroundGradient')"/><polygon points="237,424.3333333333333 211,420 237,420 263,424.3333333333333" fill="rgba(0, 233, 219, 1)"/><polygon points="237,970 237,424.3333333333333 263,424.3333333333333 263,970" fill="#000000"/><polygon points="151,961.3333333333333 151,660 177,664.3333333333334 177,965.6666666666666" fill="url('#backgroundGradient')"/><polygon points="177,664.3333333333334 151,660 177,660 203,664.3333333333334" fill="rgba(0, 216, 230, 1)"/><polygon points="177,970 177,664.3333333333334 203,664.3333333333334 203,970" fill="#000000"/><polygon points="91,961.3333333333333 91,540 117,544.3333333333334 117,965.6666666666666" fill="url('#backgroundGradient')"/><polygon points="117,544.3333333333334 91,540 117,540 143,544.3333333333334" fill="rgba(0, 223, 225, 1)"/><polygon points="117,970 117,544.3333333333334 143,544.3333333333334 143,970" fill="#000000"/><polygon points="31,961.3333333333333 31,180 57,184.33333333333334 57,965.6666666666666" fill="url('#backgroundGradient')"/><polygon points="57,184.33333333333334 31,180 57,180 83,184.33333333333334" fill="rgba(0, 245, 212, 1)"/><polygon points="57,970 57,184.33333333333334 83,184.33333333333334 83,970" fill="#000000"/></svg></svg>