<svg xmlns="http://www.w3.org/2000/svg" viewBox="0 0 1000 1000" style="background-color: rgb(255, 255, 255); width: 1000px; height: 1000px;"><svg viewBox="0 0 1000 1000" class="undefined" style="width: 1000px; height: 1000px;">
        <defs>
            <linearGradient id="backgroundGradient" gradientTransform="rotate(90)">
                <stop offset="0%" stop-color="rgba(243, 198, 119, 1)"/>
                <stop offset="100%" stop-color="rgba(14, 10, 63, 1)"/>

            </linearGradient>
        </defs>
    <polygon points="892.5,959 892.5,630 929.5,639.25 929.5,968.25" fill="url('#backgroundGradient')"/><polygon points="929.5,639.25 892.5,630 929.5,630 966.5,639.25" fill="rgba(245, 147, 100, 1)"/><polygon points="929.5,977.5 929.5,639.25 966.5,639.25 966.5,977.5" fill="#ffffff"/><polygon points="847.5,959 847.5,315 884.5,324.25 884.5,968.25" fill="url('#backgroundGradient')"/><polygon points="884.5,324.25 847.5,315 884.5,315 921.5,324.25" fill="rgba(243, 190, 116, 1)"/><polygon points="884.5,977.5 884.5,324.25 921.5,324.25 921.5,977.5" fill="#ffffff"/><polygon points="802.5,959 802.5,630 839.5,639.25 839.5,968.25" fill="url('#backgroundGradient')"/><polygon points="839.5,639.25 802.5,630 839.5,630 876.5,639.25" fill="rgba(245, 147, 100, 1)"/><polygon points="839.5,977.5 839.5,639.25 876.5,639.25 876.5,977.5" fill="#ffffff"/><polygon points="757.5,959 757.5,495 794.5,504.25 794.5,968.25" fill="url('#backgroundGradient')"/><polygon points="794.5,504.25 757.5,495 794.5,495 831.5,504.25" fill="rgba(244, 166, 107, 1)"/><polygon points="794.5,977.5 794.5,504.25 831.5,504.25 831.5,977.5" fill="#ffffff"/><polygon points="712.5,959 712.5,315 749.5,324.25 749.5,968.25" fill="url('#backgroundGradient')"/><polygon points="749.5,324.25 712.5,315 749.5,315 786.5,324.25" fill="rgba(243, 190, 116, 1)"/><polygon points="749.5,977.5 749.5,324.25 786.5,324.25 786.5,977.5" fill="#ffffff"/><polygon points="667.5,959 667.5,405 704.5,414.25 704.5,968.25" fill="url('#backgroundGradient')"/><polygon points="704.5,414.25 667.5,405 704.5,405 741.5,414.25" fill="rgba(244, 176, 111, 1)"/><polygon points="704.5,977.5 704.5,414.25 741.5,414.25 741.5,977.5" fill="#ffffff"/><polygon points="622.5,959 622.5,315 659.5,324.25 659.5,968.25" fill="url('#backgroundGradient')"/><polygon points="659.5,324.25 622.5,315 659.5,315 696.5,324.25" fill="rgba(243, 190, 116, 1)"/><polygon points="659.5,977.5 659.5,324.25 696.5,324.25 696.5,977.5" fill="#ffffff"/><polygon points="577.5,959 577.5,405 614.5,414.25 614.5,968.25" fill="url('#backgroundGradient')"/><polygon points="614.5,414.25 577.5,405 614.5,405 651.5,414.25" fill="rgba(244, 176, 111, 1)"/><polygon points="614.5,977.5 614.5,414.25 651.5,414.25 651.5,977.5" fill="#ffffff"/><polygon points="532.5,959 532.5,765 569.5,774.25 569.5,968.25" fill="url('#backgroundGradient')"/><polygon points="569.5,774.25 532.5,765 569.5,765 606.5,774.25" fill="rgba(247, 127, 94, 1)"/><polygon points="569.5,977.5 569.5,774.25 606.5,774.25 606.5,977.5" fill="#ffffff"/><polygon points="487.5,959 487.5,810 524.5,819.25 524.5,968.25" fill="url('#backgroundGradient')"/><polygon points="524.5,819.25 487.5,810 524.5,810 561.5,819.25" fill="rgba(247, 117, 90, 1)"/><polygon points="524.5,977.5 524.5,819.25 561.5,819.25 561.5,977.5" fill="#ffffff"/><polygon points="442.5,959 442.5,675 479.5,684.25 479.5,968.25" fill="url('#backgroundGradient')"/><polygon points="479.5,684.25 442.5,675 479.5,675 516.5,684.25" fill="rgba(246, 137, 97, 1)"/><polygon points="479.5,977.5 479.5,684.25 516.5,684.25 516.5,977.5" fill="#ffffff"/><polygon points="397.5,959 397.5,540 434.5,549.25 434.5,968.25" fill="url('#backgroundGradient')"/><polygon points="434.5,549.25 397.5,540 434.5,540 471.5,549.25" fill="rgba(245, 156, 104, 1)"/><polygon points="434.5,977.5 434.5,549.25 471.5,549.25 471.5,977.5" fill="#ffffff"/><polygon points="352.5,959 352.5,540 389.5,549.25 389.5,968.25" fill="url('#backgroundGradient')"/><polygon points="389.5,549.25 352.5,540 389.5,540 426.5,549.25" fill="rgba(245, 156, 104, 1)"/><polygon points="389.5,977.5 389.5,549.25 426.5,549.25 426.5,977.5" fill="#ffffff"/><polygon points="307.5,959 307.5,360 344.5,369.25 344.5,968.25" fill="url('#backgroundGradient')"/><polygon points="344.5,369.25 307.5,360 344.5,360 381.5,369.25" fill="rgba(243, 186, 114, 1)"/><polygon points="344.5,977.5 344.5,369.25 381.5,369.25 381.5,977.5" fill="#ffffff"/><polygon points="262.5,959 262.5,495 299.5,504.25 299.5,968.25" fill="url('#backgroundGradient')"/><polygon points="299.5,504.25 262.5,495 299.5,495 336.5,504.25" fill="rgba(244, 166, 107, 1)"/><polygon points="299.5,977.5 299.5,504.25 336.5,504.25 336.5,977.5" fill="#ffffff"/><polygon points="217.5,959 217.5,360 254.5,369.25 254.5,968.25" fill="url('#backgroundGradient')"/><polygon points="254.5,369.25 217.5,360 254.5,360 291.5,369.25" fill="rgba(243, 186, 114, 1)"/><polygon points="254.5,977.5 254.5,369.25 291.5,369.25 291.5,977.5" fill="#ffffff"/><polygon points="172.5,959 172.5,495 209.5,504.25 209.5,968.25" fill="url('#backgroundGradient')"/><polygon points="209.5,504.25 172.5,495 209.5,495 246.5,504.25" fill="rgba(244, 166, 107, 1)"/><polygon points="209.5,977.5 209.5,504.25 246.5,504.25 246.5,977.5" fill="#ffffff"/><polygon points="127.5,959 127.5,360 164.5,369.25 164.5,968.25" fill="url('#backgroundGradient')"/><polygon points="164.5,369.25 127.5,360 164.5,360 201.5,369.25" fill="rgba(243, 186, 114, 1)"/><polygon points="164.5,977.5 164.5,369.25 201.5,369.25 201.5,977.5" fill="#ffffff"/><polygon points="82.5,959 82.5,585 119.5,594.25 119.5,968.25" fill="url('#backgroundGradient')"/><polygon points="119.5,594.25 82.5,585 119.5,585 156.5,594.25" fill="rgba(245, 151, 102, 1)"/><polygon points="119.5,977.5 119.5,594.25 156.5,594.25 156.5,977.5" fill="#ffffff"/><polygon points="37.5,959 37.5,180 74.5,189.25 74.5,968.25" fill="url('#backgroundGradient')"/><polygon points="74.5,189.25 37.5,180 74.5,180 111.5,189.25" fill="rgba(243, 198, 119, 1)"/><polygon points="74.5,977.5 74.5,189.25 111.5,189.25 111.5,977.5" fill="#ffffff"/></svg></svg>