<svg xmlns="http://www.w3.org/2000/svg" viewBox="0 0 1000 1000" style="background-color: rgb(0, 0, 0); width: 1000px; height: 1000px;"><svg viewBox="0 0 1000 1000" class="undefined" style="width: 1000px; height: 1000px;">
        <defs>
            <linearGradient id="backgroundGradient" gradientTransform="rotate(90)">
                <stop offset="0%" stop-color="rgba(44, 192, 22, 1)"/>
                <stop offset="100%" stop-color="rgba(57, 94, 103, 1)"/>

            </linearGradient>
        </defs>
    <polygon points="861.5,948.8571428571429 861.5,257.14285714285717 918.5,266.64285714285717 918.5,958.3571428571429" fill="url('#backgroundGradient')"/><polygon points="918.5,266.64285714285717 861.5,257.14285714285717 918.5,257.14285714285717 975.5,266.64285714285717" fill="rgba(43, 192, 22, 1)"/><polygon points="918.5,967.8571428571429 918.5,266.64285714285717 975.5,266.64285714285717 975.5,967.8571428571429" fill="#000000"/><polygon points="797.2142857142857,948.8571428571429 797.2142857142857,642.8571428571429 854.2142857142857,652.3571428571429 854.2142857142857,958.3571428571429" fill="url('#backgroundGradient')"/><polygon points="854.2142857142857,652.3571428571429 797.2142857142857,642.8571428571429 854.2142857142857,642.8571428571429 911.2142857142857,652.3571428571429" fill="rgba(40, 181, 65, 1)"/><polygon points="854.2142857142857,967.8571428571429 854.2142857142857,652.3571428571429 911.2142857142857,652.3571428571429 911.2142857142857,967.8571428571429" fill="#000000"/><polygon points="732.9285714285713,948.8571428571429 732.9285714285713,578.5714285714287 789.9285714285713,588.0714285714287 789.9285714285713,958.3571428571429" fill="url('#backgroundGradient')"/><polygon points="789.9285714285713,588.0714285714287 732.9285714285713,578.5714285714287 789.9285714285713,578.5714285714287 846.9285714285713,588.0714285714287" fill="rgba(42, 183, 57, 1)"/><polygon points="789.9285714285713,967.8571428571429 789.9285714285713,588.0714285714287 846.9285714285713,588.0714285714287 846.9285714285713,967.8571428571429" fill="#000000"/><polygon points="668.642857142857,948.8571428571429 668.642857142857,192.8571428571429 725.642857142857,202.3571428571429 725.642857142857,958.3571428571429" fill="url('#backgroundGradient')"/><polygon points="725.642857142857,202.3571428571429 668.642857142857,192.8571428571429 725.642857142857,192.8571428571429 782.642857142857,202.3571428571429" fill="rgba(44, 192, 22, 1)"/><polygon points="725.642857142857,967.8571428571429 725.642857142857,202.3571428571429 782.642857142857,202.3571428571429 782.642857142857,967.8571428571429" fill="#000000"/><polygon points="604.3571428571427,948.8571428571429 604.3571428571427,771.4285714285716 661.3571428571427,780.9285714285716 661.3571428571427,958.3571428571429" fill="url('#backgroundGradient')"/><polygon points="661.3571428571427,780.9285714285716 604.3571428571427,771.4285714285716 661.3571428571427,771.4285714285716 718.3571428571427,780.9285714285716" fill="rgba(39, 177, 80, 1)"/><polygon points="661.3571428571427,967.8571428571429 661.3571428571427,780.9285714285716 718.3571428571427,780.9285714285716 718.3571428571427,967.8571428571429" fill="#000000"/><polygon points="540.0714285714283,948.8571428571429 540.0714285714283,192.8571428571429 597.0714285714283,202.3571428571429 597.0714285714283,958.3571428571429" fill="url('#backgroundGradient')"/><polygon points="597.0714285714283,202.3571428571429 540.0714285714283,192.8571428571429 597.0714285714283,192.8571428571429 654.0714285714283,202.3571428571429" fill="rgba(44, 192, 22, 1)"/><polygon points="597.0714285714283,967.8571428571429 597.0714285714283,202.3571428571429 654.0714285714283,202.3571428571429 654.0714285714283,967.8571428571429" fill="#000000"/><polygon points="475.78571428571405,948.8571428571429 475.78571428571405,514.2857142857143 532.785714285714,523.7857142857143 532.785714285714,958.3571428571429" fill="url('#backgroundGradient')"/><polygon points="532.785714285714,523.7857142857143 475.785714285714,514.2857142857143 532.785714285714,514.2857142857143 589.785714285714,523.7857142857143" fill="rgba(42, 185, 50, 1)"/><polygon points="532.785714285714,967.8571428571429 532.785714285714,523.7857142857143 589.785714285714,523.7857142857143 589.785714285714,967.8571428571429" fill="#000000"/><polygon points="411.4999999999998,948.8571428571429 411.4999999999998,514.2857142857143 468.4999999999998,523.7857142857143 468.4999999999998,958.3571428571429" fill="url('#backgroundGradient')"/><polygon points="468.4999999999998,523.7857142857143 411.4999999999998,514.2857142857143 468.4999999999998,514.2857142857143 525.4999999999998,523.7857142857143" fill="rgba(42, 185, 50, 1)"/><polygon points="468.4999999999998,967.8571428571429 468.4999999999998,523.7857142857143 525.4999999999998,523.7857142857143 525.4999999999998,967.8571428571429" fill="#000000"/><polygon points="347.2142857142855,948.8571428571429 347.2142857142855,257.14285714285717 404.2142857142855,266.64285714285717 404.2142857142855,958.3571428571429" fill="url('#backgroundGradient')"/><polygon points="404.2142857142855,266.64285714285717 347.2142857142855,257.14285714285717 404.2142857142855,257.14285714285717 461.2142857142855,266.64285714285717" fill="rgba(43, 192, 22, 1)"/><polygon points="404.2142857142855,967.8571428571429 404.2142857142855,266.64285714285717 461.2142857142855,266.64285714285717 461.2142857142855,967.8571428571429" fill="#000000"/><polygon points="282.9285714285712,948.8571428571429 282.9285714285712,321.42857142857144 339.9285714285712,330.92857142857144 339.9285714285712,958.3571428571429" fill="url('#backgroundGradient')"/><polygon points="339.9285714285712,330.92857142857144 282.9285714285712,321.42857142857144 339.9285714285712,321.42857142857144 396.9285714285712,330.92857142857144" fill="rgba(43, 191, 28, 1)"/><polygon points="339.9285714285712,967.8571428571429 339.9285714285712,330.92857142857144 396.9285714285712,330.92857142857144 396.9285714285712,967.8571428571429" fill="#000000"/><polygon points="218.64285714285694,948.8571428571429 218.64285714285694,450.00000000000006 275.64285714285694,459.50000000000006 275.64285714285694,958.3571428571429" fill="url('#backgroundGradient')"/><polygon points="275.64285714285694,459.50000000000006 218.64285714285694,450.00000000000006 275.64285714285694,450.00000000000006 332.64285714285694,459.50000000000006" fill="rgba(42, 187, 43, 1)"/><polygon points="275.64285714285694,967.8571428571429 275.64285714285694,459.50000000000006 332.64285714285694,459.50000000000006 332.64285714285694,967.8571428571429" fill="#000000"/><polygon points="154.35714285714266,948.8571428571429 154.35714285714266,578.5714285714287 211.35714285714266,588.0714285714287 211.35714285714266,958.3571428571429" fill="url('#backgroundGradient')"/><polygon points="211.35714285714266,588.0714285714287 154.35714285714266,578.5714285714287 211.35714285714266,578.5714285714287 268.35714285714266,588.0714285714287" fill="rgba(42, 183, 57, 1)"/><polygon points="211.35714285714266,967.8571428571429 211.35714285714266,588.0714285714287 268.35714285714266,588.0714285714287 268.35714285714266,967.8571428571429" fill="#000000"/><polygon points="90.07142857142837,948.8571428571429 90.07142857142837,514.2857142857143 147.07142857142838,523.7857142857143 147.07142857142838,958.3571428571429" fill="url('#backgroundGradient')"/><polygon points="147.07142857142838,523.7857142857143 90.07142857142838,514.2857142857143 147.07142857142838,514.2857142857143 204.07142857142838,523.7857142857143" fill="rgba(42, 185, 50, 1)"/><polygon points="147.07142857142838,967.8571428571429 147.07142857142838,523.7857142857143 204.07142857142838,523.7857142857143 204.07142857142838,967.8571428571429" fill="#000000"/><polygon points="25.78571428571408,948.8571428571429 25.78571428571408,192.8571428571429 82.78571428571408,202.3571428571429 82.78571428571408,958.3571428571429" fill="url('#backgroundGradient')"/><polygon points="82.78571428571408,202.3571428571429 25.78571428571408,192.8571428571429 82.78571428571408,192.8571428571429 139.78571428571408,202.3571428571429" fill="rgba(44, 192, 22, 1)"/><polygon points="82.78571428571408,967.8571428571429 82.78571428571408,202.3571428571429 139.78571428571408,202.3571428571429 139.78571428571408,967.8571428571429" fill="#000000"/></svg></svg>