<svg xmlns="http://www.w3.org/2000/svg" viewBox="0 0 1000 1000" style="background-color: rgb(0, 0, 0); width: 1000px; height: 1000px;"><svg viewBox="0 0 1000 1000" class="undefined" style="width: 1000px; height: 1000px;">
        <defs>
            <linearGradient id="backgroundGradient" gradientTransform="rotate(90)">
                <stop offset="0%" stop-color="rgba(255, 159, 28, 1)"/>
                <stop offset="100%" stop-color="rgba(6, 27, 44, 1)"/>

            </linearGradient>
        </defs>
    <polygon points="903,961.5 903,315 935,323 935,969.5" fill="url('#backgroundGradient')"/><polygon points="935,323 903,315 935,315 967,323" fill="rgba(253, 151, 30, 1)"/><polygon points="935,977.5 935,323 967,323 967,977.5" fill="#000000"/><polygon points="858,961.5 858,630 890,638 890,969.5" fill="url('#backgroundGradient')"/><polygon points="890,638 858,630 890,630 922,638" fill="rgba(243, 99, 40, 1)"/><polygon points="890,977.5 890,638 922,638 922,977.5" fill="#000000"/><polygon points="813,961.5 813,225 845,233 845,969.5" fill="url('#backgroundGradient')"/><polygon points="845,233 813,225 845,225 877,233" fill="rgba(255, 160, 27, 1)"/><polygon points="845,977.5 845,233 877,233 877,977.5" fill="#000000"/><polygon points="768,961.5 768,270 800,278 800,969.5" fill="url('#backgroundGradient')"/><polygon points="800,278 768,270 800,270 832,278" fill="rgba(254, 156, 29, 1)"/><polygon points="800,977.5 800,278 832,278 832,977.5" fill="#000000"/><polygon points="723,961.5 723,225 755,233 755,969.5" fill="url('#backgroundGradient')"/><polygon points="755,233 723,225 755,225 787,233" fill="rgba(255, 160, 27, 1)"/><polygon points="755,977.5 755,233 787,233 787,977.5" fill="#000000"/><polygon points="678,961.5 678,270 710,278 710,969.5" fill="url('#backgroundGradient')"/><polygon points="710,278 678,270 710,270 742,278" fill="rgba(254, 156, 29, 1)"/><polygon points="710,977.5 710,278 742,278 742,977.5" fill="#000000"/><polygon points="633,961.5 633,675 665,683 665,969.5" fill="url('#backgroundGradient')"/><polygon points="665,683 633,675 665,675 697,683" fill="rgba(242, 88, 43, 1)"/><polygon points="665,977.5 665,683 697,683 697,977.5" fill="#000000"/><polygon points="588,961.5 588,540 620,548 620,969.5" fill="url('#backgroundGradient')"/><polygon points="620,548 588,540 620,540 652,548" fill="rgba(246, 111, 38, 1)"/><polygon points="620,977.5 620,548 652,548 652,977.5" fill="#000000"/><polygon points="543,961.5 543,585 575,593 575,969.5" fill="url('#backgroundGradient')"/><polygon points="575,593 543,585 575,585 607,593" fill="rgba(246, 106, 38, 1)"/><polygon points="575,977.5 575,593 607,593 607,977.5" fill="#000000"/><polygon points="498,961.5 498,720 530,728 530,969.5" fill="url('#backgroundGradient')"/><polygon points="530,728 498,720 530,720 562,728" fill="rgba(240, 82, 44, 1)"/><polygon points="530,977.5 530,728 562,728 562,977.5" fill="#000000"/><polygon points="453,961.5 453,315 485,323 485,969.5" fill="url('#backgroundGradient')"/><polygon points="485,323 453,315 485,315 517,323" fill="rgba(253, 151, 30, 1)"/><polygon points="485,977.5 485,323 517,323 517,977.5" fill="#000000"/><polygon points="408,961.5 408,630 440,638 440,969.5" fill="url('#backgroundGradient')"/><polygon points="440,638 408,630 440,630 472,638" fill="rgba(243, 99, 40, 1)"/><polygon points="440,977.5 440,638 472,638 472,977.5" fill="#000000"/><polygon points="363,961.5 363,630 395,638 395,969.5" fill="url('#backgroundGradient')"/><polygon points="395,638 363,630 395,630 427,638" fill="rgba(243, 99, 40, 1)"/><polygon points="395,977.5 395,638 427,638 427,977.5" fill="#000000"/><polygon points="318,961.5 318,720 350,728 350,969.5" fill="url('#backgroundGradient')"/><polygon points="350,728 318,720 350,720 382,728" fill="rgba(240, 82, 44, 1)"/><polygon points="350,977.5 350,728 382,728 382,977.5" fill="#000000"/><polygon points="273,961.5 273,810 305,818 305,969.5" fill="url('#backgroundGradient')"/><polygon points="305,818 273,810 305,810 337,818" fill="rgba(237, 66, 47, 1)"/><polygon points="305,977.5 305,818 337,818 337,977.5" fill="#000000"/><polygon points="228,961.5 228,180 260,188 260,969.5" fill="url('#backgroundGradient')"/><polygon points="260,188 228,180 260,180 292,188" fill="rgba(255, 159, 28, 1)"/><polygon points="260,977.5 260,188 292,188 292,977.5" fill="#000000"/><polygon points="183,961.5 183,810 215,818 215,969.5" fill="url('#backgroundGradient')"/><polygon points="215,818 183,810 215,810 247,818" fill="rgba(237, 66, 47, 1)"/><polygon points="215,977.5 215,818 247,818 247,977.5" fill="#000000"/><polygon points="138,961.5 138,585 170,593 170,969.5" fill="url('#backgroundGradient')"/><polygon points="170,593 138,585 170,585 202,593" fill="rgba(246, 106, 38, 1)"/><polygon points="170,977.5 170,593 202,593 202,977.5" fill="#000000"/><polygon points="93,961.5 93,405 125,413 125,969.5" fill="url('#backgroundGradient')"/><polygon points="125,413 93,405 125,405 157,413" fill="rgba(250, 133, 33, 1)"/><polygon points="125,977.5 125,413 157,413 157,977.5" fill="#000000"/><polygon points="48,961.5 48,450 80,458 80,969.5" fill="url('#backgroundGradient')"/><polygon points="80,458 48,450 80,450 112,458" fill="rgba(249, 128, 35, 1)"/><polygon points="80,977.5 80,458 112,458 112,977.5" fill="#000000"/></svg></svg>