<svg xmlns="http://www.w3.org/2000/svg" viewBox="0 0 1000 1000" style="background-color: rgb(0, 0, 0); width: 1000px; height: 1000px;"><svg viewBox="0 0 1000 1000" class="undefined" style="width: 1000px; height: 1000px;">
        <defs>
            <linearGradient id="backgroundGradient" gradientTransform="rotate(90)">
                <stop offset="0%" stop-color="rgba(118, 129, 142, 1)"/>
                <stop offset="100%" stop-color="rgba(197, 173, 163, 1)"/>

            </linearGradient>
        </defs>
    <polygon points="891,937.5714285714286 891,728.5714285714286 932,749.0714285714286 932,958.0714285714286" fill="url('#backgroundGradient')"/><polygon points="932,749.0714285714286 891,728.5714285714286 932,728.5714285714286 973,749.0714285714286" fill="rgba(144, 117, 143, 1)"/><polygon points="932,978.5714285714286 932,749.0714285714286 973,749.0714285714286 973,978.5714285714286" fill="#000000"/><polygon points="848.1428571428571,937.5714285714286 848.1428571428571,514.2857142857142 889.1428571428571,534.7857142857142 889.1428571428571,958.0714285714286" fill="url('#backgroundGradient')"/><polygon points="889.1428571428571,534.7857142857142 848.1428571428571,514.2857142857142 889.1428571428571,514.2857142857142 930.1428571428571,534.7857142857142" fill="rgba(132, 122, 142, 1)"/><polygon points="889.1428571428571,978.5714285714286 889.1428571428571,534.7857142857142 930.1428571428571,534.7857142857142 930.1428571428571,978.5714285714286" fill="#000000"/><polygon points="805.2857142857142,937.5714285714286 805.2857142857142,728.5714285714286 846.2857142857142,749.0714285714286 846.2857142857142,958.0714285714286" fill="url('#backgroundGradient')"/><polygon points="846.2857142857142,749.0714285714286 805.2857142857142,728.5714285714286 846.2857142857142,728.5714285714286 887.2857142857142,749.0714285714286" fill="rgba(144, 117, 143, 1)"/><polygon points="846.2857142857142,978.5714285714286 846.2857142857142,749.0714285714286 887.2857142857142,749.0714285714286 887.2857142857142,978.5714285714286" fill="#000000"/><polygon points="762.4285714285713,937.5714285714286 762.4285714285713,600 803.4285714285713,620.5 803.4285714285713,958.0714285714286" fill="url('#backgroundGradient')"/><polygon points="803.4285714285713,620.5 762.4285714285713,600 803.4285714285713,600 844.4285714285713,620.5" fill="rgba(136, 120, 143, 1)"/><polygon points="803.4285714285713,978.5714285714286 803.4285714285713,620.5 844.4285714285713,620.5 844.4285714285713,978.5714285714286" fill="#000000"/><polygon points="719.5714285714284,937.5714285714286 719.5714285714284,642.8571428571428 760.5714285714284,663.3571428571428 760.5714285714284,958.0714285714286" fill="url('#backgroundGradient')"/><polygon points="760.5714285714284,663.3571428571428 719.5714285714284,642.8571428571428 760.5714285714284,642.8571428571428 801.5714285714284,663.3571428571428" fill="rgba(140, 119, 143, 1)"/><polygon points="760.5714285714284,978.5714285714286 760.5714285714284,663.3571428571428 801.5714285714284,663.3571428571428 801.5714285714284,978.5714285714286" fill="#000000"/><polygon points="676.7142857142856,937.5714285714286 676.7142857142856,642.8571428571428 717.7142857142856,663.3571428571428 717.7142857142856,958.0714285714286" fill="url('#backgroundGradient')"/><polygon points="717.7142857142856,663.3571428571428 676.7142857142856,642.8571428571428 717.7142857142856,642.8571428571428 758.7142857142856,663.3571428571428" fill="rgba(140, 119, 143, 1)"/><polygon points="717.7142857142856,978.5714285714286 717.7142857142856,663.3571428571428 758.7142857142856,663.3571428571428 758.7142857142856,978.5714285714286" fill="#000000"/><polygon points="633.8571428571427,937.5714285714286 633.8571428571427,600 674.8571428571427,620.5 674.8571428571427,958.0714285714286" fill="url('#backgroundGradient')"/><polygon points="674.8571428571427,620.5 633.8571428571427,600 674.8571428571427,600 715.8571428571427,620.5" fill="rgba(136, 120, 143, 1)"/><polygon points="674.8571428571427,978.5714285714286 674.8571428571427,620.5 715.8571428571427,620.5 715.8571428571427,978.5714285714286" fill="#000000"/><polygon points="590.9999999999998,937.5714285714286 590.9999999999998,771.4285714285713 631.9999999999998,791.9285714285713 631.9999999999998,958.0714285714286" fill="url('#backgroundGradient')"/><polygon points="631.9999999999998,791.9285714285713 590.9999999999998,771.4285714285713 631.9999999999998,771.4285714285713 672.9999999999998,791.9285714285713" fill="rgba(148, 115, 143, 1)"/><polygon points="631.9999999999998,978.5714285714286 631.9999999999998,791.9285714285713 672.9999999999998,791.9285714285713 672.9999999999998,978.5714285714286" fill="#000000"/><polygon points="548.1428571428569,937.5714285714286 548.1428571428569,557.1428571428571 589.1428571428569,577.6428571428571 589.1428571428569,958.0714285714286" fill="url('#backgroundGradient')"/><polygon points="589.1428571428569,577.6428571428571 548.1428571428569,557.1428571428571 589.1428571428569,557.1428571428571 630.1428571428569,577.6428571428571" fill="rgba(135, 122, 143, 1)"/><polygon points="589.1428571428569,978.5714285714286 589.1428571428569,577.6428571428571 630.1428571428569,577.6428571428571 630.1428571428569,978.5714285714286" fill="#000000"/><polygon points="505.285714285714,937.5714285714286 505.285714285714,257.1428571428571 546.285714285714,277.6428571428571 546.285714285714,958.0714285714286" fill="url('#backgroundGradient')"/><polygon points="546.285714285714,277.6428571428571 505.285714285714,257.1428571428571 546.285714285714,257.1428571428571 587.285714285714,277.6428571428571" fill="rgba(118, 129, 142, 1)"/><polygon points="546.285714285714,978.5714285714286 546.285714285714,277.6428571428571 587.285714285714,277.6428571428571 587.285714285714,978.5714285714286" fill="#000000"/><polygon points="462.42857142857116,937.5714285714286 462.42857142857116,385.71428571428567 503.42857142857116,406.21428571428567 503.42857142857116,958.0714285714286" fill="url('#backgroundGradient')"/><polygon points="503.42857142857116,406.21428571428567 462.42857142857116,385.71428571428567 503.42857142857116,385.71428571428567 544.4285714285711,406.21428571428567" fill="rgba(124, 125, 142, 1)"/><polygon points="503.42857142857116,978.5714285714286 503.42857142857116,406.21428571428567 544.4285714285711,406.21428571428567 544.4285714285711,978.5714285714286" fill="#000000"/><polygon points="419.5714285714283,937.5714285714286 419.5714285714283,300 460.5714285714283,320.5 460.5714285714283,958.0714285714286" fill="url('#backgroundGradient')"/><polygon points="460.5714285714283,320.5 419.5714285714283,300 460.5714285714283,300 501.5714285714283,320.5" fill="rgba(119, 129, 142, 1)"/><polygon points="460.5714285714283,978.5714285714286 460.5714285714283,320.5 501.5714285714283,320.5 501.5714285714283,978.5714285714286" fill="#000000"/><polygon points="376.7142857142855,937.5714285714286 376.7142857142855,600 417.7142857142855,620.5 417.7142857142855,958.0714285714286" fill="url('#backgroundGradient')"/><polygon points="417.7142857142855,620.5 376.7142857142855,600 417.7142857142855,600 458.7142857142855,620.5" fill="rgba(136, 120, 143, 1)"/><polygon points="417.7142857142855,978.5714285714286 417.7142857142855,620.5 458.7142857142855,620.5 458.7142857142855,978.5714285714286" fill="#000000"/><polygon points="333.85714285714266,937.5714285714286 333.85714285714266,300 374.85714285714266,320.5 374.85714285714266,958.0714285714286" fill="url('#backgroundGradient')"/><polygon points="374.85714285714266,320.5 333.85714285714266,300 374.85714285714266,300 415.85714285714266,320.5" fill="rgba(119, 129, 142, 1)"/><polygon points="374.85714285714266,978.5714285714286 374.85714285714266,320.5 415.85714285714266,320.5 415.85714285714266,978.5714285714286" fill="#000000"/><polygon points="290.99999999999983,937.5714285714286 290.99999999999983,685.7142857142857 331.99999999999983,706.2142857142857 331.99999999999983,958.0714285714286" fill="url('#backgroundGradient')"/><polygon points="331.99999999999983,706.2142857142857 290.99999999999983,685.7142857142857 331.99999999999983,685.7142857142857 372.99999999999983,706.2142857142857" fill="rgba(143, 119, 144, 1)"/><polygon points="331.99999999999983,978.5714285714286 331.99999999999983,706.2142857142857 372.99999999999983,706.2142857142857 372.99999999999983,978.5714285714286" fill="#000000"/><polygon points="248.142857142857,937.5714285714286 248.142857142857,342.85714285714283 289.142857142857,363.35714285714283 289.142857142857,958.0714285714286" fill="url('#backgroundGradient')"/><polygon points="289.142857142857,363.35714285714283 248.142857142857,342.85714285714283 289.142857142857,342.85714285714283 330.142857142857,363.35714285714283" fill="rgba(123, 127, 142, 1)"/><polygon points="289.142857142857,978.5714285714286 289.142857142857,363.35714285714283 330.142857142857,363.35714285714283 330.142857142857,978.5714285714286" fill="#000000"/><polygon points="205.28571428571414,937.5714285714286 205.28571428571414,642.8571428571428 246.28571428571414,663.3571428571428 246.28571428571414,958.0714285714286" fill="url('#backgroundGradient')"/><polygon points="246.28571428571414,663.3571428571428 205.28571428571414,642.8571428571428 246.28571428571414,642.8571428571428 287.2857142857141,663.3571428571428" fill="rgba(140, 119, 143, 1)"/><polygon points="246.28571428571414,978.5714285714286 246.28571428571414,663.3571428571428 287.2857142857141,663.3571428571428 287.2857142857141,978.5714285714286" fill="#000000"/><polygon points="162.42857142857127,937.5714285714286 162.42857142857127,685.7142857142857 203.42857142857127,706.2142857142857 203.42857142857127,958.0714285714286" fill="url('#backgroundGradient')"/><polygon points="203.42857142857127,706.2142857142857 162.42857142857127,685.7142857142857 203.42857142857127,685.7142857142857 244.42857142857127,706.2142857142857" fill="rgba(143, 119, 144, 1)"/><polygon points="203.42857142857127,978.5714285714286 203.42857142857127,706.2142857142857 244.42857142857127,706.2142857142857 244.42857142857127,978.5714285714286" fill="#000000"/><polygon points="119.57142857142841,937.5714285714286 119.57142857142841,728.5714285714286 160.5714285714284,749.0714285714286 160.5714285714284,958.0714285714286" fill="url('#backgroundGradient')"/><polygon points="160.5714285714284,749.0714285714286 119.57142857142841,728.5714285714286 160.5714285714284,728.5714285714286 201.5714285714284,749.0714285714286" fill="rgba(144, 117, 143, 1)"/><polygon points="160.5714285714284,978.5714285714286 160.5714285714284,749.0714285714286 201.5714285714284,749.0714285714286 201.5714285714284,978.5714285714286" fill="#000000"/><polygon points="76.71428571428555,937.5714285714286 76.71428571428555,428.57142857142856 117.71428571428555,449.07142857142856 117.71428571428555,958.0714285714286" fill="url('#backgroundGradient')"/><polygon points="117.71428571428555,449.07142857142856 76.71428571428555,428.57142857142856 117.71428571428555,428.57142857142856 158.71428571428555,449.07142857142856" fill="rgba(127, 126, 143, 1)"/><polygon points="117.71428571428555,978.5714285714286 117.71428571428555,449.07142857142856 158.71428571428555,449.07142857142856 158.71428571428555,978.5714285714286" fill="#000000"/><polygon points="33.8571428571427,937.5714285714286 33.8571428571427,214.28571428571428 74.85714285714269,234.78571428571428 74.85714285714269,958.0714285714286" fill="url('#backgroundGradient')"/><polygon points="74.85714285714269,234.78571428571428 33.85714285714269,214.28571428571428 74.85714285714269,214.28571428571428 115.85714285714269,234.78571428571428" fill="rgba(118, 129, 142, 1)"/><polygon points="74.85714285714269,978.5714285714286 74.85714285714269,234.78571428571428 115.85714285714269,234.78571428571428 115.85714285714269,978.5714285714286" fill="#000000"/></svg></svg>