<svg xmlns="http://www.w3.org/2000/svg" viewBox="0 0 1000 1000" style="background-color: rgb(0, 0, 0); width: 1000px; height: 1000px;"><svg viewBox="0 0 1000 1000" class="undefined" style="width: 1000px; height: 1000px;">
        <defs>
            <linearGradient id="backgroundGradient" gradientTransform="rotate(90)">
                <stop offset="0%" stop-color="rgba(250, 87, 56, 1)"/>
                <stop offset="100%" stop-color="rgba(13, 64, 121, 1)"/>

            </linearGradient>
        </defs>
    <polygon points="863.5,931.3333333333333 863.5,360 921.5,379.3333333333333 921.5,950.6666666666666" fill="url('#backgroundGradient')"/><polygon points="921.5,379.3333333333333 863.5,360 921.5,360 979.5,379.3333333333333" fill="rgba(247, 94, 58, 1)"/><polygon points="921.5,970 921.5,379.3333333333333 979.5,379.3333333333333 979.5,970" fill="#000000"/><polygon points="803.5,931.3333333333333 803.5,660 861.5,679.3333333333334 861.5,950.6666666666666" fill="url('#backgroundGradient')"/><polygon points="861.5,679.3333333333334 803.5,660 861.5,660 919.5,679.3333333333334" fill="rgba(243, 119, 65, 1)"/><polygon points="861.5,970 861.5,679.3333333333334 919.5,679.3333333333334 919.5,970" fill="#000000"/><polygon points="743.5,931.3333333333333 743.5,240 801.5,259.3333333333333 801.5,950.6666666666666" fill="url('#backgroundGradient')"/><polygon points="801.5,259.3333333333333 743.5,239.99999999999997 801.5,239.99999999999997 859.5,259.3333333333333" fill="rgba(249, 87, 56, 1)"/><polygon points="801.5,970 801.5,259.3333333333333 859.5,259.3333333333333 859.5,970" fill="#000000"/><polygon points="683.5,931.3333333333333 683.5,780 741.5,799.3333333333334 741.5,950.6666666666666" fill="url('#backgroundGradient')"/><polygon points="741.5,799.3333333333334 683.5,780 741.5,780 799.5,799.3333333333334" fill="rgba(241, 130, 69, 1)"/><polygon points="741.5,970 741.5,799.3333333333334 799.5,799.3333333333334 799.5,970" fill="#000000"/><polygon points="623.5,931.3333333333333 623.5,480 681.5,499.3333333333333 681.5,950.6666666666666" fill="url('#backgroundGradient')"/><polygon points="681.5,499.3333333333333 623.5,480 681.5,480 739.5,499.3333333333333" fill="rgba(246, 104, 61, 1)"/><polygon points="681.5,970 681.5,499.3333333333333 739.5,499.3333333333333 739.5,970" fill="#000000"/><polygon points="563.5,931.3333333333333 563.5,360 621.5,379.3333333333333 621.5,950.6666666666666" fill="url('#backgroundGradient')"/><polygon points="621.5,379.3333333333333 563.5,360 621.5,360 679.5,379.3333333333333" fill="rgba(247, 94, 58, 1)"/><polygon points="621.5,970 621.5,379.3333333333333 679.5,379.3333333333333 679.5,970" fill="#000000"/><polygon points="503.5,931.3333333333333 503.5,780 561.5,799.3333333333334 561.5,950.6666666666666" fill="url('#backgroundGradient')"/><polygon points="561.5,799.3333333333334 503.5,780 561.5,780 619.5,799.3333333333334" fill="rgba(241, 130, 69, 1)"/><polygon points="561.5,970 561.5,799.3333333333334 619.5,799.3333333333334 619.5,970" fill="#000000"/><polygon points="443.5,931.3333333333333 443.5,360 501.5,379.3333333333333 501.5,950.6666666666666" fill="url('#backgroundGradient')"/><polygon points="501.5,379.3333333333333 443.5,360 501.5,360 559.5,379.3333333333333" fill="rgba(247, 94, 58, 1)"/><polygon points="501.5,970 501.5,379.3333333333333 559.5,379.3333333333333 559.5,970" fill="#000000"/><polygon points="383.5,931.3333333333333 383.5,480 441.5,499.3333333333333 441.5,950.6666666666666" fill="url('#backgroundGradient')"/><polygon points="441.5,499.3333333333333 383.5,480 441.5,480 499.5,499.3333333333333" fill="rgba(246, 104, 61, 1)"/><polygon points="441.5,970 441.5,499.3333333333333 499.5,499.3333333333333 499.5,970" fill="#000000"/><polygon points="323.5,931.3333333333333 323.5,480 381.5,499.3333333333333 381.5,950.6666666666666" fill="url('#backgroundGradient')"/><polygon points="381.5,499.3333333333333 323.5,480 381.5,480 439.5,499.3333333333333" fill="rgba(246, 104, 61, 1)"/><polygon points="381.5,970 381.5,499.3333333333333 439.5,499.3333333333333 439.5,970" fill="#000000"/><polygon points="263.5,931.3333333333333 263.5,180 321.5,199.33333333333334 321.5,950.6666666666666" fill="url('#backgroundGradient')"/><polygon points="321.5,199.33333333333334 263.5,180 321.5,180 379.5,199.33333333333334" fill="rgba(250, 87, 56, 1)"/><polygon points="321.5,970 321.5,199.33333333333334 379.5,199.33333333333334 379.5,970" fill="#000000"/><polygon points="203.5,931.3333333333333 203.5,360 261.5,379.3333333333333 261.5,950.6666666666666" fill="url('#backgroundGradient')"/><polygon points="261.5,379.3333333333333 203.5,360 261.5,360 319.5,379.3333333333333" fill="rgba(247, 94, 58, 1)"/><polygon points="261.5,970 261.5,379.3333333333333 319.5,379.3333333333333 319.5,970" fill="#000000"/><polygon points="143.5,931.3333333333333 143.5,420 201.5,439.3333333333333 201.5,950.6666666666666" fill="url('#backgroundGradient')"/><polygon points="201.5,439.3333333333333 143.5,420 201.5,420 259.5,439.3333333333333" fill="rgba(246, 99, 60, 1)"/><polygon points="201.5,970 201.5,439.3333333333333 259.5,439.3333333333333 259.5,970" fill="#000000"/><polygon points="83.5,931.3333333333333 83.5,660 141.5,679.3333333333334 141.5,950.6666666666666" fill="url('#backgroundGradient')"/><polygon points="141.5,679.3333333333334 83.5,660 141.5,660 199.5,679.3333333333334" fill="rgba(243, 119, 65, 1)"/><polygon points="141.5,970 141.5,679.3333333333334 199.5,679.3333333333334 199.5,970" fill="#000000"/><polygon points="23.5,931.3333333333333 23.5,720 81.5,739.3333333333334 81.5,950.6666666666666" fill="url('#backgroundGradient')"/><polygon points="81.5,739.3333333333334 23.5,720 81.5,720 139.5,739.3333333333334" fill="rgba(242, 123, 68, 1)"/><polygon points="81.5,970 81.5,739.3333333333334 139.5,739.3333333333334 139.5,970" fill="#000000"/></svg></svg>