<svg xmlns="http://www.w3.org/2000/svg" viewBox="0 0 1000 1000" style="background-color: rgb(0, 0, 0); width: 1000px; height: 1000px;"><svg viewBox="0 0 1000 1000" class="undefined" style="width: 1000px; height: 1000px;">
        <defs>
            <linearGradient id="backgroundGradient" gradientTransform="rotate(90)">
                <stop offset="0%" stop-color="rgba(243, 198, 119, 1)"/>
                <stop offset="100%" stop-color="rgba(14, 10, 63, 1)"/>

            </linearGradient>
        </defs>
    <polygon points="837,959.5 837,750 879,764 879,973.5" fill="url('#backgroundGradient')"/><polygon points="879,764 837,750 879,750 921,764" fill="rgba(247, 127, 94, 1)"/><polygon points="879,987.5 879,764 921,764 921,987.5" fill="#000000"/><polygon points="812,959.5 812,225 854,239 854,973.5" fill="url('#backgroundGradient')"/><polygon points="854,239 812,225 854,225 896,239" fill="rgba(243, 198, 119, 1)"/><polygon points="854,987.5 854,239 896,239 896,987.5" fill="#000000"/><polygon points="787,959.5 787,700 829,714 829,973.5" fill="url('#backgroundGradient')"/><polygon points="829,714 787,700 829,700 871,714" fill="rgba(246, 137, 97, 1)"/><polygon points="829,987.5 829,714 871,714 871,987.5" fill="#000000"/><polygon points="762,959.5 762,200 804,214 804,973.5" fill="url('#backgroundGradient')"/><polygon points="804,214 762,200 804,200 846,214" fill="rgba(243, 198, 119, 1)"/><polygon points="804,987.5 804,214 846,214 846,987.5" fill="#000000"/><polygon points="737,959.5 737,650 779,664 779,973.5" fill="url('#backgroundGradient')"/><polygon points="779,664 737,650 779,650 821,664" fill="rgba(246, 142, 99, 1)"/><polygon points="779,987.5 779,664 821,664 821,987.5" fill="#000000"/><polygon points="712,959.5 712,750 754,764 754,973.5" fill="url('#backgroundGradient')"/><polygon points="754,764 712,750 754,750 796,764" fill="rgba(247, 127, 94, 1)"/><polygon points="754,987.5 754,764 796,764 796,987.5" fill="#000000"/><polygon points="687,959.5 687,425 729,439 729,973.5" fill="url('#backgroundGradient')"/><polygon points="729,439 687,425 729,425 771,439" fill="rgba(244, 176, 111, 1)"/><polygon points="729,987.5 729,439 771,439 771,987.5" fill="#000000"/><polygon points="662,959.5 662,400 704,414 704,973.5" fill="url('#backgroundGradient')"/><polygon points="704,414 662,400 704,400 746,414" fill="rgba(243, 180, 112, 1)"/><polygon points="704,987.5 704,414 746,414 746,987.5" fill="#000000"/><polygon points="637,959.5 637,425 679,439 679,973.5" fill="url('#backgroundGradient')"/><polygon points="679,439 637,425 679,425 721,439" fill="rgba(244, 176, 111, 1)"/><polygon points="679,987.5 679,439 721,439 721,987.5" fill="#000000"/><polygon points="612,959.5 612,150 654,164 654,973.5" fill="url('#backgroundGradient')"/><polygon points="654,164 612,150 654,150 696,164" fill="rgba(243, 198, 119, 1)"/><polygon points="654,987.5 654,164 696,164 696,987.5" fill="#000000"/><polygon points="587,959.5 587,375 629,389 629,973.5" fill="url('#backgroundGradient')"/><polygon points="629,389 587,375 629,375 671,389" fill="rgba(243, 180, 112, 1)"/><polygon points="629,987.5 629,389 671,389 671,987.5" fill="#000000"/><polygon points="562,959.5 562,450 604,464 604,973.5" fill="url('#backgroundGradient')"/><polygon points="604,464 562,450 604,450 646,464" fill="rgba(244, 171, 109, 1)"/><polygon points="604,987.5 604,464 646,464 646,987.5" fill="#000000"/><polygon points="537,959.5 537,225 579,239 579,973.5" fill="url('#backgroundGradient')"/><polygon points="579,239 537,225 579,225 621,239" fill="rgba(243, 198, 119, 1)"/><polygon points="579,987.5 579,239 621,239 621,987.5" fill="#000000"/><polygon points="512,959.5 512,200 554,214 554,973.5" fill="url('#backgroundGradient')"/><polygon points="554,214 512,200 554,200 596,214" fill="rgba(243, 198, 119, 1)"/><polygon points="554,987.5 554,214 596,214 596,987.5" fill="#000000"/><polygon points="487,959.5 487,350 529,364 529,973.5" fill="url('#backgroundGradient')"/><polygon points="529,364 487,350 529,350 571,364" fill="rgba(243, 186, 114, 1)"/><polygon points="529,987.5 529,364 571,364 571,987.5" fill="#000000"/><polygon points="462,959.5 462,200 504,214 504,973.5" fill="url('#backgroundGradient')"/><polygon points="504,214 462,200 504,200 546,214" fill="rgba(243, 198, 119, 1)"/><polygon points="504,987.5 504,214 546,214 546,987.5" fill="#000000"/><polygon points="437,959.5 437,700 479,714 479,973.5" fill="url('#backgroundGradient')"/><polygon points="479,714 437,700 479,700 521,714" fill="rgba(246, 137, 97, 1)"/><polygon points="479,987.5 479,714 521,714 521,987.5" fill="#000000"/><polygon points="412,959.5 412,525 454,539 454,973.5" fill="url('#backgroundGradient')"/><polygon points="454,539 412,525 454,525 496,539" fill="rgba(244, 161, 105, 1)"/><polygon points="454,987.5 454,539 496,539 496,987.5" fill="#000000"/><polygon points="387,959.5 387,300 429,314 429,973.5" fill="url('#backgroundGradient')"/><polygon points="429,314 387,300 429,300 471,314" fill="rgba(243, 195, 118, 1)"/><polygon points="429,987.5 429,314 471,314 471,987.5" fill="#000000"/><polygon points="362,959.5 362,625 404,639 404,973.5" fill="url('#backgroundGradient')"/><polygon points="404,639 362,625 404,625 446,639" fill="rgba(245, 147, 100, 1)"/><polygon points="404,987.5 404,639 446,639 446,987.5" fill="#000000"/><polygon points="337,959.5 337,625 379,639 379,973.5" fill="url('#backgroundGradient')"/><polygon points="379,639 337,625 379,625 421,639" fill="rgba(245, 147, 100, 1)"/><polygon points="379,987.5 379,639 421,639 421,987.5" fill="#000000"/><polygon points="312,959.5 312,200 354,214 354,973.5" fill="url('#backgroundGradient')"/><polygon points="354,214 312,200 354,200 396,214" fill="rgba(243, 198, 119, 1)"/><polygon points="354,987.5 354,214 396,214 396,987.5" fill="#000000"/><polygon points="287,959.5 287,175 329,189 329,973.5" fill="url('#backgroundGradient')"/><polygon points="329,189 287,175 329,175 371,189" fill="rgba(243, 198, 119, 1)"/><polygon points="329,987.5 329,189 371,189 371,987.5" fill="#000000"/><polygon points="262,959.5 262,525 304,539 304,973.5" fill="url('#backgroundGradient')"/><polygon points="304,539 262,525 304,525 346,539" fill="rgba(244, 161, 105, 1)"/><polygon points="304,987.5 304,539 346,539 346,987.5" fill="#000000"/><polygon points="237,959.5 237,275 279,289 279,973.5" fill="url('#backgroundGradient')"/><polygon points="279,289 237,275 279,275 321,289" fill="rgba(243, 195, 118, 1)"/><polygon points="279,987.5 279,289 321,289 321,987.5" fill="#000000"/><polygon points="212,959.5 212,525 254,539 254,973.5" fill="url('#backgroundGradient')"/><polygon points="254,539 212,525 254,525 296,539" fill="rgba(244, 161, 105, 1)"/><polygon points="254,987.5 254,539 296,539 296,987.5" fill="#000000"/><polygon points="187,959.5 187,625 229,639 229,973.5" fill="url('#backgroundGradient')"/><polygon points="229,639 187,625 229,625 271,639" fill="rgba(245, 147, 100, 1)"/><polygon points="229,987.5 229,639 271,639 271,987.5" fill="#000000"/><polygon points="162,959.5 162,750 204,764 204,973.5" fill="url('#backgroundGradient')"/><polygon points="204,764 162,750 204,750 246,764" fill="rgba(247, 127, 94, 1)"/><polygon points="204,987.5 204,764 246,764 246,987.5" fill="#000000"/><polygon points="137,959.5 137,500 179,514 179,973.5" fill="url('#backgroundGradient')"/><polygon points="179,514 137,500 179,500 221,514" fill="rgba(244, 166, 107, 1)"/><polygon points="179,987.5 179,514 221,514 221,987.5" fill="#000000"/><polygon points="112,959.5 112,425 154,439 154,973.5" fill="url('#backgroundGradient')"/><polygon points="154,439 112,425 154,425 196,439" fill="rgba(244, 176, 111, 1)"/><polygon points="154,987.5 154,439 196,439 196,987.5" fill="#000000"/><polygon points="87,959.5 87,700 129,714 129,973.5" fill="url('#backgroundGradient')"/><polygon points="129,714 87,700 129,700 171,714" fill="rgba(246, 137, 97, 1)"/><polygon points="129,987.5 129,714 171,714 171,987.5" fill="#000000"/></svg></svg>