<svg xmlns="http://www.w3.org/2000/svg" viewBox="0 0 1000 1000" style="background-color: rgb(0, 0, 0); width: 1000px; height: 1000px;"><svg viewBox="0 0 1000 1000" class="undefined" style="width: 1000px; height: 1000px;">
        <defs>
            <linearGradient id="backgroundGradient" gradientTransform="rotate(90)">
                <stop offset="0%" stop-color="rgba(255, 255, 255, 1)"/>
                <stop offset="100%" stop-color="rgba(1, 1, 1, 1)"/>

            </linearGradient>
        </defs>
    <polygon points="826,947.3333333333333 826,480 883,486.3333333333333 883,953.6666666666666" fill="url('#backgroundGradient')"/><polygon points="883,486.3333333333333 826,480 883,480 940,486.3333333333333" fill="rgba(231, 231, 231, 1)"/><polygon points="883,960 883,486.3333333333333 940,486.3333333333333 940,960" fill="#000000"/><polygon points="746,947.3333333333333 746,160 803,166.33333333333334 803,953.6666666666666" fill="url('#backgroundGradient')"/><polygon points="803,166.33333333333334 746,160 803,160 860,166.33333333333334" fill="rgba(255, 255, 255, 1)"/><polygon points="803,960 803,166.33333333333334 860,166.33333333333334 860,960" fill="#000000"/><polygon points="666,947.3333333333333 666,640 723,646.3333333333334 723,953.6666666666666" fill="url('#backgroundGradient')"/><polygon points="723,646.3333333333334 666,640 723,640 780,646.3333333333334" fill="rgba(212, 212, 212, 1)"/><polygon points="723,960 723,646.3333333333334 780,646.3333333333334 780,960" fill="#000000"/><polygon points="586,947.3333333333333 586,560 643,566.3333333333334 643,953.6666666666666" fill="url('#backgroundGradient')"/><polygon points="643,566.3333333333334 586,560 643,560 700,566.3333333333334" fill="rgba(223, 223, 223, 1)"/><polygon points="643,960 643,566.3333333333334 700,566.3333333333334 700,960" fill="#000000"/><polygon points="506,947.3333333333333 506,160 563,166.33333333333334 563,953.6666666666666" fill="url('#backgroundGradient')"/><polygon points="563,166.33333333333334 506,160 563,160 620,166.33333333333334" fill="rgba(255, 255, 255, 1)"/><polygon points="563,960 563,166.33333333333334 620,166.33333333333334 620,960" fill="#000000"/><polygon points="426,947.3333333333333 426,320 483,326.3333333333333 483,953.6666666666666" fill="url('#backgroundGradient')"/><polygon points="483,326.3333333333333 426,320 483,320 540,326.3333333333333" fill="rgba(249, 249, 249, 1)"/><polygon points="483,960 483,326.3333333333333 540,326.3333333333333 540,960" fill="#000000"/><polygon points="346,947.3333333333333 346,160 403,166.33333333333334 403,953.6666666666666" fill="url('#backgroundGradient')"/><polygon points="403,166.33333333333334 346,160 403,160 460,166.33333333333334" fill="rgba(255, 255, 255, 1)"/><polygon points="403,960 403,166.33333333333334 460,166.33333333333334 460,960" fill="#000000"/><polygon points="266,947.3333333333333 266,480 323,486.3333333333333 323,953.6666666666666" fill="url('#backgroundGradient')"/><polygon points="323,486.3333333333333 266,480 323,480 380,486.3333333333333" fill="rgba(231, 231, 231, 1)"/><polygon points="323,960 323,486.3333333333333 380,486.3333333333333 380,960" fill="#000000"/><polygon points="186,947.3333333333333 186,480 243,486.3333333333333 243,953.6666666666666" fill="url('#backgroundGradient')"/><polygon points="243,486.3333333333333 186,480 243,480 300,486.3333333333333" fill="rgba(231, 231, 231, 1)"/><polygon points="243,960 243,486.3333333333333 300,486.3333333333333 300,960" fill="#000000"/><polygon points="106,947.3333333333333 106,560 163,566.3333333333334 163,953.6666666666666" fill="url('#backgroundGradient')"/><polygon points="163,566.3333333333334 106,560 163,560 220,566.3333333333334" fill="rgba(223, 223, 223, 1)"/><polygon points="163,960 163,566.3333333333334 220,566.3333333333334 220,960" fill="#000000"/></svg></svg>